G75*
%MOIN*%
%OFA0B0*%
%FSLAX25Y25*%
%IPPOS*%
%LPD*%
%AMOC8*
5,1,8,0,0,1.08239X$1,22.5*
%
%ADD10C,0.00000*%
%ADD11R,0.03937X0.12598*%
%ADD12R,0.04331X0.03937*%
%ADD13R,0.03937X0.04331*%
%ADD14R,0.06693X0.01772*%
%ADD15R,0.08268X0.05807*%
%ADD16R,0.07480X0.09350*%
D10*
X0002265Y0032362D02*
X0002265Y0091417D01*
X0336910Y0091417D01*
X0336910Y0032362D01*
X0002265Y0032362D01*
D11*
X0057156Y0043976D03*
X0074873Y0043976D03*
X0111406Y0043976D03*
X0129123Y0043976D03*
X0154406Y0043976D03*
X0172123Y0043976D03*
X0197406Y0043976D03*
X0215123Y0043976D03*
X0240406Y0043976D03*
X0258123Y0043976D03*
X0283406Y0043976D03*
X0301123Y0043976D03*
X0301123Y0070748D03*
X0283406Y0070748D03*
X0258123Y0070748D03*
X0240406Y0070748D03*
X0215123Y0070748D03*
X0197406Y0070748D03*
X0172123Y0070748D03*
X0154406Y0070748D03*
X0129123Y0070748D03*
X0111406Y0070748D03*
X0074873Y0070748D03*
X0057156Y0070748D03*
D12*
X0104765Y0049459D03*
X0104765Y0042766D03*
X0191015Y0042766D03*
X0191015Y0049459D03*
X0234765Y0049459D03*
X0234765Y0042766D03*
X0276635Y0042766D03*
X0276635Y0049459D03*
D13*
X0148111Y0068612D03*
X0141418Y0068612D03*
D14*
X0021288Y0067480D03*
X0021288Y0064921D03*
X0021288Y0062362D03*
X0021288Y0059803D03*
X0021288Y0057244D03*
D15*
X0019320Y0052520D03*
X0019320Y0072205D03*
D16*
X0010265Y0073976D03*
X0010265Y0050748D03*
M02*
