%
M48
M72
T01C0.01378
T02C0.03200
%
T01
X62265Y44862
X98515Y42362
X116015Y48612
X141015Y42362
X164765Y42912
X186015Y42362
X202265Y47362
X229765Y42362
X246015Y47362
X271635Y42362
X289135Y47362
X289135Y69862
X246015Y69862
X202265Y69862
X161015Y73612
X138515Y81112
X143515Y81737
X104765Y76112
X86015Y82362
X27265Y71112
X116015Y66112
X153515Y58612
X159765Y58612
X164765Y57362
T02
X44765Y42362
X44765Y52362
X44765Y62362
X44765Y72362
X44765Y82362
X326482Y72205
X326482Y62362
X326482Y52520
M30
