G75*
%MOIN*%
%OFA0B0*%
%FSLAX25Y25*%
%IPPOS*%
%LPD*%
%AMOC8*
5,1,8,0,0,1.08239X$1,22.5*
%
%ADD10C,0.00000*%
%ADD11R,0.04252X0.04134*%
%ADD12R,0.01772X0.06890*%
%ADD13R,0.04331X0.03937*%
%ADD14R,0.04134X0.04252*%
%ADD15R,0.04724X0.05512*%
%ADD16R,0.05200X0.05200*%
%ADD17C,0.05200*%
%ADD18R,0.12500X0.06000*%
%ADD19C,0.02978*%
%ADD20C,0.00600*%
%ADD21C,0.02400*%
%ADD22C,0.01600*%
%ADD23C,0.02000*%
%ADD24C,0.01200*%
D10*
X0002265Y0032362D02*
X0002265Y0091417D01*
X0336910Y0091417D01*
X0336910Y0032362D01*
X0002265Y0032362D01*
D11*
X0027265Y0050167D03*
X0034765Y0050167D03*
X0034765Y0057057D03*
X0027265Y0057057D03*
X0123515Y0054557D03*
X0123515Y0047667D03*
X0179765Y0063917D03*
X0179765Y0070807D03*
X0179765Y0076417D03*
X0179765Y0083307D03*
D12*
X0172265Y0079655D03*
X0169706Y0079655D03*
X0167146Y0079655D03*
X0164587Y0079655D03*
X0162028Y0079655D03*
X0159469Y0079655D03*
X0156910Y0079655D03*
X0154351Y0079655D03*
X0151792Y0079655D03*
X0149233Y0079655D03*
X0149233Y0051112D03*
X0151792Y0051112D03*
X0154351Y0051112D03*
X0156910Y0051112D03*
X0159469Y0051112D03*
X0162028Y0051112D03*
X0164587Y0051112D03*
X0167146Y0051112D03*
X0169706Y0051112D03*
X0172265Y0051112D03*
D13*
X0068515Y0049459D03*
X0068515Y0042766D03*
D14*
X0132570Y0064862D03*
X0139459Y0064862D03*
D15*
X0139755Y0057087D03*
X0132274Y0057087D03*
X0132274Y0047638D03*
X0139755Y0047638D03*
D16*
X0044765Y0042362D03*
D17*
X0044765Y0052362D03*
X0044765Y0062362D03*
X0044765Y0072362D03*
X0044765Y0082362D03*
X0326482Y0072205D03*
X0326482Y0062362D03*
X0326482Y0052520D03*
D18*
X0316640Y0040862D03*
X0316640Y0083862D03*
D19*
X0289135Y0069862D03*
X0246015Y0069862D03*
X0202265Y0069862D03*
X0161015Y0073612D03*
X0138515Y0081112D03*
X0143515Y0081737D03*
X0104765Y0076112D03*
X0086015Y0082362D03*
X0027265Y0071112D03*
X0116015Y0066112D03*
X0153515Y0058612D03*
X0159765Y0058612D03*
X0164765Y0057362D03*
X0202265Y0047362D03*
X0186015Y0042362D03*
X0164765Y0042912D03*
X0141015Y0042362D03*
X0116015Y0048612D03*
X0098515Y0042362D03*
X0062265Y0044862D03*
X0229765Y0042362D03*
X0246015Y0047362D03*
X0271635Y0042362D03*
X0289135Y0047362D03*
D20*
X0289135Y0069862D01*
X0291524Y0070068D02*
X0323669Y0070068D01*
X0323515Y0070222D02*
X0324499Y0069238D01*
X0325786Y0068705D01*
X0327178Y0068705D01*
X0328465Y0069238D01*
X0329449Y0070222D01*
X0329982Y0071508D01*
X0329982Y0072901D01*
X0329449Y0074187D01*
X0328465Y0075172D01*
X0327178Y0075705D01*
X0325786Y0075705D01*
X0324499Y0075172D01*
X0323515Y0074187D01*
X0322982Y0072901D01*
X0322982Y0071508D01*
X0323515Y0070222D01*
X0323331Y0070667D02*
X0291524Y0070667D01*
X0291524Y0070852D02*
X0290124Y0072251D01*
X0288145Y0072251D01*
X0286746Y0070852D01*
X0286746Y0068873D01*
X0287935Y0067684D01*
X0287935Y0049541D01*
X0286746Y0048352D01*
X0286746Y0046373D01*
X0288145Y0044973D01*
X0290124Y0044973D01*
X0291524Y0046373D01*
X0291524Y0048352D01*
X0290335Y0049541D01*
X0290335Y0067684D01*
X0291524Y0068873D01*
X0291524Y0070852D01*
X0291110Y0071265D02*
X0323083Y0071265D01*
X0322982Y0071864D02*
X0290511Y0071864D01*
X0287758Y0071864D02*
X0247391Y0071864D01*
X0247004Y0072251D02*
X0245025Y0072251D01*
X0243626Y0070852D01*
X0243626Y0068873D01*
X0244815Y0067684D01*
X0244815Y0049541D01*
X0243626Y0048352D01*
X0243626Y0046373D01*
X0245025Y0044973D01*
X0247004Y0044973D01*
X0248404Y0046373D01*
X0248404Y0048352D01*
X0247215Y0049541D01*
X0247215Y0067684D01*
X0248404Y0068873D01*
X0248404Y0070852D01*
X0247004Y0072251D01*
X0247990Y0071265D02*
X0287159Y0071265D01*
X0286746Y0070667D02*
X0248404Y0070667D01*
X0248404Y0070068D02*
X0286746Y0070068D01*
X0286746Y0069470D02*
X0248404Y0069470D01*
X0248402Y0068871D02*
X0286747Y0068871D01*
X0287345Y0068273D02*
X0247804Y0068273D01*
X0247215Y0067674D02*
X0287935Y0067674D01*
X0287935Y0067076D02*
X0247215Y0067076D01*
X0247215Y0066477D02*
X0287935Y0066477D01*
X0287935Y0065879D02*
X0247215Y0065879D01*
X0247215Y0065280D02*
X0287935Y0065280D01*
X0287935Y0064682D02*
X0247215Y0064682D01*
X0247215Y0064083D02*
X0287935Y0064083D01*
X0287935Y0063485D02*
X0247215Y0063485D01*
X0247215Y0062886D02*
X0287935Y0062886D01*
X0287935Y0062288D02*
X0247215Y0062288D01*
X0247215Y0061689D02*
X0287935Y0061689D01*
X0287935Y0061091D02*
X0247215Y0061091D01*
X0247215Y0060492D02*
X0287935Y0060492D01*
X0287935Y0059894D02*
X0247215Y0059894D01*
X0247215Y0059295D02*
X0287935Y0059295D01*
X0287935Y0058697D02*
X0247215Y0058697D01*
X0247215Y0058098D02*
X0287935Y0058098D01*
X0287935Y0057500D02*
X0247215Y0057500D01*
X0247215Y0056901D02*
X0287935Y0056901D01*
X0287935Y0056303D02*
X0247215Y0056303D01*
X0247215Y0055704D02*
X0287935Y0055704D01*
X0287935Y0055106D02*
X0247215Y0055106D01*
X0247215Y0054507D02*
X0287935Y0054507D01*
X0287935Y0053909D02*
X0247215Y0053909D01*
X0247215Y0053310D02*
X0287935Y0053310D01*
X0287935Y0052712D02*
X0247215Y0052712D01*
X0247215Y0052113D02*
X0287935Y0052113D01*
X0287935Y0051515D02*
X0247215Y0051515D01*
X0247215Y0050916D02*
X0287935Y0050916D01*
X0287935Y0050317D02*
X0247215Y0050317D01*
X0247215Y0049719D02*
X0287935Y0049719D01*
X0287514Y0049120D02*
X0247635Y0049120D01*
X0248233Y0048522D02*
X0286916Y0048522D01*
X0286746Y0047923D02*
X0248404Y0047923D01*
X0248404Y0047325D02*
X0286746Y0047325D01*
X0286746Y0046726D02*
X0248404Y0046726D01*
X0248159Y0046128D02*
X0286990Y0046128D01*
X0287589Y0045529D02*
X0247560Y0045529D01*
X0244469Y0045529D02*
X0203810Y0045529D01*
X0203254Y0044973D02*
X0204654Y0046373D01*
X0204654Y0048352D01*
X0203465Y0049541D01*
X0203465Y0067684D01*
X0204654Y0068873D01*
X0204654Y0070852D01*
X0203254Y0072251D01*
X0201275Y0072251D01*
X0199876Y0070852D01*
X0199876Y0068873D01*
X0201065Y0067684D01*
X0201065Y0049541D01*
X0199876Y0048352D01*
X0199876Y0046373D01*
X0201275Y0044973D01*
X0203254Y0044973D01*
X0204409Y0046128D02*
X0243870Y0046128D01*
X0243626Y0046726D02*
X0204654Y0046726D01*
X0204654Y0047325D02*
X0243626Y0047325D01*
X0243626Y0047923D02*
X0204654Y0047923D01*
X0204483Y0048522D02*
X0243796Y0048522D01*
X0244394Y0049120D02*
X0203885Y0049120D01*
X0203465Y0049719D02*
X0244815Y0049719D01*
X0244815Y0050317D02*
X0203465Y0050317D01*
X0203465Y0050916D02*
X0244815Y0050916D01*
X0244815Y0051515D02*
X0203465Y0051515D01*
X0203465Y0052113D02*
X0244815Y0052113D01*
X0244815Y0052712D02*
X0203465Y0052712D01*
X0203465Y0053310D02*
X0244815Y0053310D01*
X0244815Y0053909D02*
X0203465Y0053909D01*
X0203465Y0054507D02*
X0244815Y0054507D01*
X0244815Y0055106D02*
X0203465Y0055106D01*
X0203465Y0055704D02*
X0244815Y0055704D01*
X0244815Y0056303D02*
X0203465Y0056303D01*
X0203465Y0056901D02*
X0244815Y0056901D01*
X0244815Y0057500D02*
X0203465Y0057500D01*
X0203465Y0058098D02*
X0244815Y0058098D01*
X0244815Y0058697D02*
X0203465Y0058697D01*
X0203465Y0059295D02*
X0244815Y0059295D01*
X0244815Y0059894D02*
X0203465Y0059894D01*
X0203465Y0060492D02*
X0244815Y0060492D01*
X0244815Y0061091D02*
X0203465Y0061091D01*
X0203465Y0061689D02*
X0244815Y0061689D01*
X0244815Y0062288D02*
X0203465Y0062288D01*
X0203465Y0062886D02*
X0244815Y0062886D01*
X0244815Y0063485D02*
X0203465Y0063485D01*
X0203465Y0064083D02*
X0244815Y0064083D01*
X0244815Y0064682D02*
X0203465Y0064682D01*
X0203465Y0065280D02*
X0244815Y0065280D01*
X0244815Y0065879D02*
X0203465Y0065879D01*
X0203465Y0066477D02*
X0244815Y0066477D01*
X0244815Y0067076D02*
X0203465Y0067076D01*
X0203465Y0067674D02*
X0244815Y0067674D01*
X0244225Y0068273D02*
X0204054Y0068273D01*
X0204652Y0068871D02*
X0243627Y0068871D01*
X0243626Y0069470D02*
X0204654Y0069470D01*
X0204654Y0070068D02*
X0243626Y0070068D01*
X0243626Y0070667D02*
X0204654Y0070667D01*
X0204240Y0071265D02*
X0244039Y0071265D01*
X0244638Y0071864D02*
X0203641Y0071864D01*
X0200888Y0071864D02*
X0183191Y0071864D01*
X0183191Y0072462D02*
X0322982Y0072462D01*
X0323048Y0073061D02*
X0183186Y0073061D01*
X0183191Y0073045D02*
X0183102Y0073376D01*
X0182965Y0073612D01*
X0183102Y0073849D01*
X0183191Y0074179D01*
X0183191Y0076117D01*
X0180065Y0076117D01*
X0180065Y0076717D01*
X0183191Y0076717D01*
X0183191Y0078655D01*
X0183102Y0078986D01*
X0182931Y0079282D01*
X0182689Y0079524D01*
X0182392Y0079696D01*
X0182062Y0079784D01*
X0180065Y0079784D01*
X0180065Y0076717D01*
X0179465Y0076717D01*
X0179465Y0079784D01*
X0177467Y0079784D01*
X0177137Y0079696D01*
X0176840Y0079524D01*
X0176598Y0079282D01*
X0176427Y0078986D01*
X0176339Y0078655D01*
X0176339Y0076717D01*
X0179465Y0076717D01*
X0179465Y0076117D01*
X0180065Y0076117D01*
X0180065Y0071107D01*
X0183191Y0071107D01*
X0183191Y0073045D01*
X0182993Y0073659D02*
X0323296Y0073659D01*
X0323586Y0074258D02*
X0183191Y0074258D01*
X0183191Y0074856D02*
X0324184Y0074856D01*
X0325183Y0075455D02*
X0183191Y0075455D01*
X0183191Y0076053D02*
X0332610Y0076053D01*
X0332610Y0075455D02*
X0327781Y0075455D01*
X0328780Y0074856D02*
X0332610Y0074856D01*
X0332610Y0074258D02*
X0329379Y0074258D01*
X0329668Y0073659D02*
X0332610Y0073659D01*
X0332610Y0073061D02*
X0329916Y0073061D01*
X0329982Y0072462D02*
X0332610Y0072462D01*
X0332610Y0071864D02*
X0329982Y0071864D01*
X0329881Y0071265D02*
X0332610Y0071265D01*
X0332610Y0070667D02*
X0329633Y0070667D01*
X0329296Y0070068D02*
X0332610Y0070068D01*
X0332610Y0069470D02*
X0328697Y0069470D01*
X0327581Y0068871D02*
X0332610Y0068871D01*
X0332610Y0068273D02*
X0290924Y0068273D01*
X0290335Y0067674D02*
X0332610Y0067674D01*
X0332610Y0067076D02*
X0290335Y0067076D01*
X0290335Y0066477D02*
X0332610Y0066477D01*
X0332610Y0065879D02*
X0328183Y0065879D01*
X0328329Y0065818D02*
X0327620Y0066112D01*
X0326866Y0066262D01*
X0326782Y0066262D01*
X0326782Y0062662D01*
X0330382Y0062662D01*
X0330382Y0062746D01*
X0330232Y0063500D01*
X0329938Y0064209D01*
X0329511Y0064848D01*
X0328968Y0065391D01*
X0328329Y0065818D01*
X0329079Y0065280D02*
X0332610Y0065280D01*
X0332610Y0064682D02*
X0329623Y0064682D01*
X0329991Y0064083D02*
X0332610Y0064083D01*
X0332610Y0063485D02*
X0330235Y0063485D01*
X0330354Y0062886D02*
X0332610Y0062886D01*
X0332610Y0062288D02*
X0326782Y0062288D01*
X0326782Y0062062D02*
X0326782Y0062662D01*
X0326182Y0062662D01*
X0326182Y0062062D01*
X0326782Y0062062D01*
X0326782Y0058462D01*
X0326866Y0058462D01*
X0327620Y0058612D01*
X0328329Y0058906D01*
X0328968Y0059333D01*
X0329511Y0059876D01*
X0329938Y0060515D01*
X0330232Y0061225D01*
X0330382Y0061978D01*
X0330382Y0062062D01*
X0326782Y0062062D01*
X0326782Y0061689D02*
X0326182Y0061689D01*
X0326182Y0062062D02*
X0326182Y0058462D01*
X0326098Y0058462D01*
X0325344Y0058612D01*
X0324635Y0058906D01*
X0323996Y0059333D01*
X0323453Y0059876D01*
X0323026Y0060515D01*
X0322732Y0061225D01*
X0322582Y0061978D01*
X0322582Y0062062D01*
X0326182Y0062062D01*
X0326182Y0062288D02*
X0290335Y0062288D01*
X0290335Y0062886D02*
X0322610Y0062886D01*
X0322582Y0062746D02*
X0322732Y0063500D01*
X0323026Y0064209D01*
X0323453Y0064848D01*
X0323996Y0065391D01*
X0324635Y0065818D01*
X0325344Y0066112D01*
X0326098Y0066262D01*
X0326182Y0066262D01*
X0326182Y0062662D01*
X0322582Y0062662D01*
X0322582Y0062746D01*
X0322729Y0063485D02*
X0290335Y0063485D01*
X0290335Y0064083D02*
X0322974Y0064083D01*
X0323342Y0064682D02*
X0290335Y0064682D01*
X0290335Y0065280D02*
X0323885Y0065280D01*
X0324781Y0065879D02*
X0290335Y0065879D01*
X0291522Y0068871D02*
X0325384Y0068871D01*
X0324267Y0069470D02*
X0291524Y0069470D01*
X0326182Y0065879D02*
X0326782Y0065879D01*
X0326782Y0065280D02*
X0326182Y0065280D01*
X0326182Y0064682D02*
X0326782Y0064682D01*
X0326782Y0064083D02*
X0326182Y0064083D01*
X0326182Y0063485D02*
X0326782Y0063485D01*
X0326782Y0062886D02*
X0326182Y0062886D01*
X0326182Y0061091D02*
X0326782Y0061091D01*
X0326782Y0060492D02*
X0326182Y0060492D01*
X0326182Y0059894D02*
X0326782Y0059894D01*
X0326782Y0059295D02*
X0326182Y0059295D01*
X0326182Y0058697D02*
X0326782Y0058697D01*
X0327824Y0058697D02*
X0332610Y0058697D01*
X0332610Y0059295D02*
X0328912Y0059295D01*
X0329523Y0059894D02*
X0332610Y0059894D01*
X0332610Y0060492D02*
X0329923Y0060492D01*
X0330177Y0061091D02*
X0332610Y0061091D01*
X0332610Y0061689D02*
X0330325Y0061689D01*
X0324052Y0059295D02*
X0290335Y0059295D01*
X0290335Y0058697D02*
X0325140Y0058697D01*
X0323441Y0059894D02*
X0290335Y0059894D01*
X0290335Y0060492D02*
X0323041Y0060492D01*
X0322787Y0061091D02*
X0290335Y0061091D01*
X0290335Y0061689D02*
X0322640Y0061689D01*
X0332610Y0058098D02*
X0290335Y0058098D01*
X0290335Y0057500D02*
X0332610Y0057500D01*
X0332610Y0056901D02*
X0290335Y0056901D01*
X0290335Y0056303D02*
X0332610Y0056303D01*
X0332610Y0055704D02*
X0327940Y0055704D01*
X0328465Y0055487D02*
X0327178Y0056020D01*
X0325786Y0056020D01*
X0324499Y0055487D01*
X0323515Y0054502D01*
X0322982Y0053216D01*
X0322982Y0051823D01*
X0323515Y0050537D01*
X0324499Y0049552D01*
X0325786Y0049020D01*
X0327178Y0049020D01*
X0328465Y0049552D01*
X0329449Y0050537D01*
X0329982Y0051823D01*
X0329982Y0053216D01*
X0329449Y0054502D01*
X0328465Y0055487D01*
X0328846Y0055106D02*
X0332610Y0055106D01*
X0332610Y0054507D02*
X0329444Y0054507D01*
X0329695Y0053909D02*
X0332610Y0053909D01*
X0332610Y0053310D02*
X0329943Y0053310D01*
X0329982Y0052712D02*
X0332610Y0052712D01*
X0332610Y0052113D02*
X0329982Y0052113D01*
X0329854Y0051515D02*
X0332610Y0051515D01*
X0332610Y0050916D02*
X0329606Y0050916D01*
X0329230Y0050317D02*
X0332610Y0050317D01*
X0332610Y0049719D02*
X0328631Y0049719D01*
X0327422Y0049120D02*
X0332610Y0049120D01*
X0332610Y0048522D02*
X0291353Y0048522D01*
X0291524Y0047923D02*
X0332610Y0047923D01*
X0332610Y0047325D02*
X0291524Y0047325D01*
X0291524Y0046726D02*
X0332610Y0046726D01*
X0332610Y0046128D02*
X0291279Y0046128D01*
X0290680Y0045529D02*
X0332610Y0045529D01*
X0332610Y0044931D02*
X0323638Y0044931D01*
X0323688Y0044902D02*
X0323391Y0045074D01*
X0323061Y0045162D01*
X0316940Y0045162D01*
X0316940Y0041162D01*
X0324190Y0041162D01*
X0324190Y0044033D01*
X0324101Y0044364D01*
X0323930Y0044660D01*
X0323688Y0044902D01*
X0324109Y0044332D02*
X0332610Y0044332D01*
X0332610Y0043734D02*
X0324190Y0043734D01*
X0324190Y0043135D02*
X0332610Y0043135D01*
X0332610Y0042537D02*
X0324190Y0042537D01*
X0324190Y0041938D02*
X0332610Y0041938D01*
X0332610Y0041340D02*
X0324190Y0041340D01*
X0324190Y0040562D02*
X0316940Y0040562D01*
X0316940Y0041162D01*
X0316340Y0041162D01*
X0316340Y0045162D01*
X0310218Y0045162D01*
X0309888Y0045074D01*
X0309591Y0044902D01*
X0309349Y0044660D01*
X0309178Y0044364D01*
X0309090Y0044033D01*
X0309090Y0041162D01*
X0316340Y0041162D01*
X0316340Y0040562D01*
X0309090Y0040562D01*
X0309090Y0037691D01*
X0309178Y0037360D01*
X0309349Y0037064D01*
X0309591Y0036822D01*
X0309868Y0036662D01*
X0269534Y0036662D01*
X0269565Y0036692D01*
X0269565Y0036777D01*
X0272341Y0039973D01*
X0272624Y0039973D01*
X0274024Y0041373D01*
X0274024Y0043352D01*
X0272624Y0044751D01*
X0270645Y0044751D01*
X0269246Y0043352D01*
X0269246Y0042814D01*
X0266507Y0039662D01*
X0230965Y0039662D01*
X0230965Y0040184D01*
X0232154Y0041373D01*
X0232154Y0043352D01*
X0230754Y0044751D01*
X0228775Y0044751D01*
X0227376Y0043352D01*
X0227376Y0041373D01*
X0228565Y0040184D01*
X0228565Y0039662D01*
X0187215Y0039662D01*
X0187215Y0040184D01*
X0188404Y0041373D01*
X0188404Y0043352D01*
X0187004Y0044751D01*
X0185025Y0044751D01*
X0183626Y0043352D01*
X0183626Y0041373D01*
X0184815Y0040184D01*
X0184815Y0039662D01*
X0173765Y0039662D01*
X0173765Y0047009D01*
X0174050Y0047294D01*
X0174050Y0049412D01*
X0175469Y0049412D01*
X0176465Y0050408D01*
X0181465Y0055408D01*
X0181465Y0060950D01*
X0182263Y0060950D01*
X0182791Y0061478D01*
X0182791Y0066357D01*
X0182263Y0066884D01*
X0177266Y0066884D01*
X0176739Y0066357D01*
X0176739Y0061478D01*
X0177266Y0060950D01*
X0178065Y0060950D01*
X0178065Y0056816D01*
X0174060Y0052812D01*
X0174050Y0052812D01*
X0174050Y0054930D01*
X0173523Y0055457D01*
X0171006Y0055457D01*
X0170985Y0055436D01*
X0170965Y0055457D01*
X0170965Y0060359D01*
X0170262Y0061062D01*
X0167762Y0063562D01*
X0149268Y0063562D01*
X0148565Y0062859D01*
X0143992Y0058287D01*
X0143017Y0058287D01*
X0143017Y0060215D01*
X0142490Y0060742D01*
X0140659Y0060742D01*
X0140659Y0061836D01*
X0141899Y0061836D01*
X0142426Y0062363D01*
X0142426Y0067361D01*
X0141899Y0067888D01*
X0137020Y0067888D01*
X0136493Y0067361D01*
X0136493Y0062363D01*
X0137020Y0061836D01*
X0138259Y0061836D01*
X0138259Y0060742D01*
X0137020Y0060742D01*
X0136493Y0060215D01*
X0136493Y0053958D01*
X0136888Y0053562D01*
X0136502Y0053562D01*
X0135799Y0052859D01*
X0134233Y0051294D01*
X0129539Y0051294D01*
X0129012Y0050766D01*
X0129012Y0048867D01*
X0126541Y0048867D01*
X0126541Y0050107D01*
X0126013Y0050634D01*
X0121016Y0050634D01*
X0120489Y0050107D01*
X0120489Y0045228D01*
X0121016Y0044700D01*
X0126013Y0044700D01*
X0126541Y0045228D01*
X0126541Y0046467D01*
X0129012Y0046467D01*
X0129012Y0044509D01*
X0129539Y0043982D01*
X0135009Y0043982D01*
X0135537Y0044509D01*
X0135537Y0049203D01*
X0136093Y0049759D01*
X0136093Y0047938D01*
X0139455Y0047938D01*
X0139455Y0047338D01*
X0136093Y0047338D01*
X0136093Y0044711D01*
X0136181Y0044380D01*
X0136352Y0044084D01*
X0136594Y0043842D01*
X0136891Y0043670D01*
X0137221Y0043582D01*
X0138856Y0043582D01*
X0138626Y0043352D01*
X0138626Y0041373D01*
X0139515Y0040484D01*
X0139515Y0039662D01*
X0099715Y0039662D01*
X0099715Y0040184D01*
X0100904Y0041373D01*
X0100904Y0043352D01*
X0099504Y0044751D01*
X0097525Y0044751D01*
X0096126Y0043352D01*
X0096126Y0041373D01*
X0097315Y0040184D01*
X0097315Y0039662D01*
X0069715Y0039662D01*
X0069715Y0039897D01*
X0071053Y0039897D01*
X0071580Y0040424D01*
X0071580Y0045107D01*
X0071053Y0045634D01*
X0065976Y0045634D01*
X0065449Y0045107D01*
X0065449Y0040424D01*
X0065976Y0039897D01*
X0067315Y0039897D01*
X0067315Y0039662D01*
X0061684Y0039662D01*
X0059365Y0041982D01*
X0059365Y0049482D01*
X0054384Y0054462D01*
X0047614Y0054462D01*
X0046747Y0055329D01*
X0045461Y0055862D01*
X0044068Y0055862D01*
X0042782Y0055329D01*
X0041797Y0054345D01*
X0041265Y0053058D01*
X0041265Y0053012D01*
X0037385Y0053012D01*
X0037263Y0053134D01*
X0032266Y0053134D01*
X0031739Y0052607D01*
X0031739Y0052267D01*
X0030291Y0052267D01*
X0030291Y0052607D01*
X0029763Y0053134D01*
X0024766Y0053134D01*
X0024239Y0052607D01*
X0024239Y0047728D01*
X0024766Y0047200D01*
X0029763Y0047200D01*
X0030291Y0047728D01*
X0030291Y0048067D01*
X0031739Y0048067D01*
X0031739Y0047728D01*
X0032266Y0047200D01*
X0037263Y0047200D01*
X0037791Y0047728D01*
X0037791Y0049212D01*
X0043223Y0049212D01*
X0044068Y0048862D01*
X0045461Y0048862D01*
X0046747Y0049395D01*
X0047614Y0050262D01*
X0052645Y0050262D01*
X0055165Y0047742D01*
X0055165Y0040242D01*
X0058715Y0036692D01*
X0058745Y0036662D01*
X0006565Y0036662D01*
X0006565Y0087117D01*
X0089073Y0087117D01*
X0086706Y0084751D01*
X0085025Y0084751D01*
X0083626Y0083352D01*
X0083626Y0081373D01*
X0085025Y0079973D01*
X0087004Y0079973D01*
X0088404Y0081373D01*
X0088404Y0083054D01*
X0090887Y0085537D01*
X0112493Y0085537D01*
X0105456Y0078501D01*
X0103775Y0078501D01*
X0102376Y0077102D01*
X0102376Y0075123D01*
X0103775Y0073723D01*
X0105754Y0073723D01*
X0107154Y0075123D01*
X0107154Y0076804D01*
X0114637Y0084287D01*
X0157393Y0084287D01*
X0157679Y0084000D01*
X0155652Y0084000D01*
X0155631Y0083979D01*
X0155610Y0084000D01*
X0153093Y0084000D01*
X0153072Y0083979D01*
X0153051Y0084000D01*
X0150534Y0084000D01*
X0150513Y0083979D01*
X0150492Y0084000D01*
X0147974Y0084000D01*
X0147447Y0083473D01*
X0147447Y0075838D01*
X0147974Y0075311D01*
X0150492Y0075311D01*
X0150513Y0075331D01*
X0150534Y0075311D01*
X0150592Y0075311D01*
X0150592Y0074887D01*
X0150518Y0074812D01*
X0147762Y0074812D01*
X0144715Y0077859D01*
X0144715Y0079559D01*
X0145904Y0080748D01*
X0145904Y0082727D01*
X0144504Y0084126D01*
X0142525Y0084126D01*
X0141126Y0082727D01*
X0141126Y0080748D01*
X0142315Y0079559D01*
X0142315Y0076865D01*
X0143018Y0076162D01*
X0145618Y0073562D01*
X0144012Y0073562D01*
X0139715Y0077859D01*
X0139715Y0078934D01*
X0140904Y0080123D01*
X0140904Y0082102D01*
X0139504Y0083501D01*
X0137525Y0083501D01*
X0136126Y0082102D01*
X0136126Y0080123D01*
X0137315Y0078934D01*
X0137315Y0076865D01*
X0138018Y0076162D01*
X0141868Y0072312D01*
X0065262Y0072312D01*
X0054012Y0083562D01*
X0048056Y0083562D01*
X0047732Y0084345D01*
X0046747Y0085329D01*
X0045461Y0085862D01*
X0044068Y0085862D01*
X0042782Y0085329D01*
X0041797Y0084345D01*
X0041265Y0083058D01*
X0041265Y0081666D01*
X0041797Y0080380D01*
X0042782Y0079395D01*
X0044068Y0078862D01*
X0045461Y0078862D01*
X0046747Y0079395D01*
X0047732Y0080380D01*
X0048056Y0081162D01*
X0053018Y0081162D01*
X0060618Y0073562D01*
X0048056Y0073562D01*
X0047732Y0074345D01*
X0046747Y0075329D01*
X0045461Y0075862D01*
X0044068Y0075862D01*
X0042782Y0075329D01*
X0041797Y0074345D01*
X0041265Y0073058D01*
X0041265Y0071666D01*
X0041797Y0070380D01*
X0042782Y0069395D01*
X0044068Y0068862D01*
X0045461Y0068862D01*
X0046747Y0069395D01*
X0047732Y0070380D01*
X0048056Y0071162D01*
X0060518Y0071162D01*
X0062315Y0069365D01*
X0063018Y0068662D01*
X0166512Y0068662D01*
X0170262Y0072412D01*
X0170965Y0073115D01*
X0170965Y0074976D01*
X0171208Y0074911D01*
X0172122Y0074911D01*
X0172122Y0079512D01*
X0172407Y0079512D01*
X0172407Y0074911D01*
X0173322Y0074911D01*
X0173652Y0074999D01*
X0173949Y0075170D01*
X0174191Y0075412D01*
X0174362Y0075709D01*
X0174450Y0076039D01*
X0174450Y0079513D01*
X0172408Y0079513D01*
X0172408Y0079798D01*
X0174450Y0079798D01*
X0174450Y0083271D01*
X0174362Y0083602D01*
X0174327Y0083662D01*
X0176739Y0083662D01*
X0176739Y0080867D01*
X0177266Y0080340D01*
X0182263Y0080340D01*
X0182791Y0080867D01*
X0182791Y0085747D01*
X0182263Y0086274D01*
X0177266Y0086274D01*
X0177054Y0086062D01*
X0165518Y0086062D01*
X0164815Y0085359D01*
X0163565Y0084109D01*
X0163565Y0084000D01*
X0163465Y0084000D01*
X0163465Y0084109D01*
X0162762Y0084812D01*
X0160456Y0087117D01*
X0309112Y0087117D01*
X0309090Y0087033D01*
X0309090Y0084162D01*
X0316340Y0084162D01*
X0316340Y0083562D01*
X0316940Y0083562D01*
X0316940Y0084162D01*
X0324190Y0084162D01*
X0324190Y0087033D01*
X0324167Y0087117D01*
X0332610Y0087117D01*
X0332610Y0036662D01*
X0323411Y0036662D01*
X0323688Y0036822D01*
X0323930Y0037064D01*
X0324101Y0037360D01*
X0324190Y0037691D01*
X0324190Y0040562D01*
X0324190Y0040143D02*
X0332610Y0040143D01*
X0332610Y0040741D02*
X0316940Y0040741D01*
X0316940Y0041340D02*
X0316340Y0041340D01*
X0316340Y0041938D02*
X0316940Y0041938D01*
X0316940Y0042537D02*
X0316340Y0042537D01*
X0316340Y0043135D02*
X0316940Y0043135D01*
X0316940Y0043734D02*
X0316340Y0043734D01*
X0316340Y0044332D02*
X0316940Y0044332D01*
X0316940Y0044931D02*
X0316340Y0044931D01*
X0309641Y0044931D02*
X0173765Y0044931D01*
X0173765Y0045529D02*
X0200719Y0045529D01*
X0200120Y0046128D02*
X0173765Y0046128D01*
X0173765Y0046726D02*
X0199876Y0046726D01*
X0199876Y0047325D02*
X0174050Y0047325D01*
X0174050Y0047923D02*
X0199876Y0047923D01*
X0200046Y0048522D02*
X0174050Y0048522D01*
X0174050Y0049120D02*
X0200644Y0049120D01*
X0201065Y0049719D02*
X0175776Y0049719D01*
X0176374Y0050317D02*
X0201065Y0050317D01*
X0201065Y0050916D02*
X0176973Y0050916D01*
X0177571Y0051515D02*
X0201065Y0051515D01*
X0201065Y0052113D02*
X0178170Y0052113D01*
X0178768Y0052712D02*
X0201065Y0052712D01*
X0201065Y0053310D02*
X0179367Y0053310D01*
X0179965Y0053909D02*
X0201065Y0053909D01*
X0201065Y0054507D02*
X0180564Y0054507D01*
X0181162Y0055106D02*
X0201065Y0055106D01*
X0201065Y0055704D02*
X0181465Y0055704D01*
X0181465Y0056303D02*
X0201065Y0056303D01*
X0201065Y0056901D02*
X0181465Y0056901D01*
X0181465Y0057500D02*
X0201065Y0057500D01*
X0201065Y0058098D02*
X0181465Y0058098D01*
X0181465Y0058697D02*
X0201065Y0058697D01*
X0201065Y0059295D02*
X0181465Y0059295D01*
X0181465Y0059894D02*
X0201065Y0059894D01*
X0201065Y0060492D02*
X0181465Y0060492D01*
X0182404Y0061091D02*
X0201065Y0061091D01*
X0201065Y0061689D02*
X0182791Y0061689D01*
X0182791Y0062288D02*
X0201065Y0062288D01*
X0201065Y0062886D02*
X0182791Y0062886D01*
X0182791Y0063485D02*
X0201065Y0063485D01*
X0201065Y0064083D02*
X0182791Y0064083D01*
X0182791Y0064682D02*
X0201065Y0064682D01*
X0201065Y0065280D02*
X0182791Y0065280D01*
X0182791Y0065879D02*
X0201065Y0065879D01*
X0201065Y0066477D02*
X0182670Y0066477D01*
X0182392Y0067529D02*
X0182062Y0067440D01*
X0180065Y0067440D01*
X0180065Y0070507D01*
X0180065Y0071107D01*
X0179465Y0071107D01*
X0179465Y0074174D01*
X0179465Y0076117D01*
X0176339Y0076117D01*
X0176339Y0074179D01*
X0176427Y0073849D01*
X0176564Y0073612D01*
X0176427Y0073376D01*
X0176339Y0073045D01*
X0176339Y0071107D01*
X0179465Y0071107D01*
X0179465Y0070507D01*
X0180065Y0070507D01*
X0183191Y0070507D01*
X0183191Y0068569D01*
X0183102Y0068238D01*
X0182931Y0067942D01*
X0182689Y0067700D01*
X0182392Y0067529D01*
X0182645Y0067674D02*
X0201065Y0067674D01*
X0201065Y0067076D02*
X0142426Y0067076D01*
X0142426Y0066477D02*
X0176859Y0066477D01*
X0176739Y0065879D02*
X0142426Y0065879D01*
X0142426Y0065280D02*
X0176739Y0065280D01*
X0176739Y0064682D02*
X0142426Y0064682D01*
X0142426Y0064083D02*
X0176739Y0064083D01*
X0176739Y0063485D02*
X0167839Y0063485D01*
X0168438Y0062886D02*
X0176739Y0062886D01*
X0176739Y0062288D02*
X0169036Y0062288D01*
X0169635Y0061689D02*
X0176739Y0061689D01*
X0177125Y0061091D02*
X0170233Y0061091D01*
X0170832Y0060492D02*
X0178065Y0060492D01*
X0178065Y0059894D02*
X0170965Y0059894D01*
X0170965Y0059295D02*
X0178065Y0059295D01*
X0178065Y0058697D02*
X0170965Y0058697D01*
X0170965Y0058098D02*
X0178065Y0058098D01*
X0178065Y0057500D02*
X0170965Y0057500D01*
X0170965Y0056901D02*
X0178065Y0056901D01*
X0177551Y0056303D02*
X0170965Y0056303D01*
X0170965Y0055704D02*
X0176952Y0055704D01*
X0176354Y0055106D02*
X0173875Y0055106D01*
X0174050Y0054507D02*
X0175755Y0054507D01*
X0175157Y0053909D02*
X0174050Y0053909D01*
X0174050Y0053310D02*
X0174558Y0053310D01*
X0169765Y0051171D02*
X0169706Y0051112D01*
X0169765Y0051171D02*
X0169765Y0059862D01*
X0167265Y0062362D01*
X0149765Y0062362D01*
X0144489Y0057087D01*
X0141015Y0057087D01*
X0139459Y0058642D01*
X0139459Y0064862D01*
X0136493Y0064682D02*
X0132870Y0064682D01*
X0132870Y0064562D02*
X0132870Y0065162D01*
X0135937Y0065162D01*
X0135937Y0067159D01*
X0135848Y0067490D01*
X0135677Y0067786D01*
X0135435Y0068028D01*
X0135138Y0068200D01*
X0134808Y0068288D01*
X0132870Y0068288D01*
X0132870Y0065162D01*
X0132270Y0065162D01*
X0132270Y0068288D01*
X0130332Y0068288D01*
X0130001Y0068200D01*
X0129705Y0068028D01*
X0129462Y0067786D01*
X0129291Y0067490D01*
X0129203Y0067159D01*
X0129203Y0065162D01*
X0132270Y0065162D01*
X0132270Y0064562D01*
X0132870Y0064562D01*
X0135937Y0064562D01*
X0135937Y0062565D01*
X0135848Y0062234D01*
X0135677Y0061938D01*
X0135435Y0061696D01*
X0135138Y0061525D01*
X0134808Y0061436D01*
X0132870Y0061436D01*
X0132870Y0064562D01*
X0132870Y0064083D02*
X0132270Y0064083D01*
X0132270Y0064562D02*
X0132270Y0061436D01*
X0130332Y0061436D01*
X0130001Y0061525D01*
X0129705Y0061696D01*
X0129462Y0061938D01*
X0129291Y0062234D01*
X0129203Y0062565D01*
X0129203Y0064562D01*
X0132270Y0064562D01*
X0132270Y0064682D02*
X0117963Y0064682D01*
X0118404Y0065123D02*
X0117215Y0063934D01*
X0117215Y0050791D01*
X0118404Y0049602D01*
X0118404Y0047623D01*
X0117004Y0046223D01*
X0115025Y0046223D01*
X0113626Y0047623D01*
X0113626Y0049602D01*
X0114815Y0050791D01*
X0114815Y0063934D01*
X0113626Y0065123D01*
X0113626Y0067102D01*
X0115025Y0068501D01*
X0117004Y0068501D01*
X0118404Y0067102D01*
X0118404Y0065123D01*
X0118404Y0065280D02*
X0129203Y0065280D01*
X0129203Y0065879D02*
X0118404Y0065879D01*
X0118404Y0066477D02*
X0129203Y0066477D01*
X0129203Y0067076D02*
X0118404Y0067076D01*
X0117831Y0067674D02*
X0129398Y0067674D01*
X0130275Y0068273D02*
X0117232Y0068273D01*
X0114797Y0068273D02*
X0028965Y0068273D01*
X0028965Y0068871D02*
X0044046Y0068871D01*
X0045483Y0068871D02*
X0062808Y0068871D01*
X0062210Y0069470D02*
X0046822Y0069470D01*
X0047421Y0070068D02*
X0061611Y0070068D01*
X0061013Y0070667D02*
X0047851Y0070667D01*
X0042707Y0069470D02*
X0029001Y0069470D01*
X0028965Y0069434D02*
X0029654Y0070123D01*
X0029654Y0072102D01*
X0028254Y0073501D01*
X0026275Y0073501D01*
X0024876Y0072102D01*
X0024876Y0070123D01*
X0025565Y0069434D01*
X0025565Y0060024D01*
X0024766Y0060024D01*
X0024239Y0059497D01*
X0024239Y0054617D01*
X0024766Y0054090D01*
X0029763Y0054090D01*
X0030291Y0054617D01*
X0030291Y0059497D01*
X0029763Y0060024D01*
X0028965Y0060024D01*
X0028965Y0069434D01*
X0029599Y0070068D02*
X0042109Y0070068D01*
X0041678Y0070667D02*
X0029654Y0070667D01*
X0029654Y0071265D02*
X0041430Y0071265D01*
X0041265Y0071864D02*
X0029654Y0071864D01*
X0029293Y0072462D02*
X0041265Y0072462D01*
X0041266Y0073061D02*
X0028694Y0073061D01*
X0025835Y0073061D02*
X0006565Y0073061D01*
X0006565Y0073659D02*
X0041514Y0073659D01*
X0041761Y0074258D02*
X0006565Y0074258D01*
X0006565Y0074856D02*
X0042309Y0074856D01*
X0043085Y0075455D02*
X0006565Y0075455D01*
X0006565Y0076053D02*
X0058126Y0076053D01*
X0058725Y0075455D02*
X0046444Y0075455D01*
X0047220Y0074856D02*
X0059323Y0074856D01*
X0059922Y0074258D02*
X0047768Y0074258D01*
X0048016Y0073659D02*
X0060520Y0073659D01*
X0061015Y0072362D02*
X0063515Y0069862D01*
X0166015Y0069862D01*
X0169765Y0073612D01*
X0169765Y0077362D01*
X0169706Y0077421D01*
X0169706Y0079655D01*
X0167265Y0079537D02*
X0167265Y0074862D01*
X0163515Y0071112D01*
X0064765Y0071112D01*
X0053515Y0082362D01*
X0044765Y0082362D01*
X0047943Y0083834D02*
X0084108Y0083834D01*
X0083626Y0083236D02*
X0054338Y0083236D01*
X0054937Y0082637D02*
X0083626Y0082637D01*
X0083626Y0082039D02*
X0055535Y0082039D01*
X0056134Y0081440D02*
X0083626Y0081440D01*
X0084157Y0080842D02*
X0056732Y0080842D01*
X0057331Y0080243D02*
X0084755Y0080243D01*
X0087274Y0080243D02*
X0107198Y0080243D01*
X0106600Y0079645D02*
X0057929Y0079645D01*
X0058528Y0079046D02*
X0106001Y0079046D01*
X0103721Y0078448D02*
X0059126Y0078448D01*
X0059725Y0077849D02*
X0103123Y0077849D01*
X0102524Y0077250D02*
X0060323Y0077250D01*
X0060922Y0076652D02*
X0102376Y0076652D01*
X0102376Y0076053D02*
X0061520Y0076053D01*
X0062119Y0075455D02*
X0102376Y0075455D01*
X0102642Y0074856D02*
X0062717Y0074856D01*
X0063316Y0074258D02*
X0103240Y0074258D01*
X0106289Y0074258D02*
X0139922Y0074258D01*
X0140520Y0073659D02*
X0063914Y0073659D01*
X0064513Y0073061D02*
X0141119Y0073061D01*
X0141717Y0072462D02*
X0065111Y0072462D01*
X0061015Y0072362D02*
X0044765Y0072362D01*
X0057528Y0076652D02*
X0006565Y0076652D01*
X0006565Y0077250D02*
X0056929Y0077250D01*
X0056331Y0077849D02*
X0006565Y0077849D01*
X0006565Y0078448D02*
X0055732Y0078448D01*
X0055134Y0079046D02*
X0045905Y0079046D01*
X0046997Y0079645D02*
X0054535Y0079645D01*
X0053937Y0080243D02*
X0047595Y0080243D01*
X0047923Y0080842D02*
X0053338Y0080842D01*
X0043624Y0079046D02*
X0006565Y0079046D01*
X0006565Y0079645D02*
X0042532Y0079645D01*
X0041934Y0080243D02*
X0006565Y0080243D01*
X0006565Y0080842D02*
X0041606Y0080842D01*
X0041358Y0081440D02*
X0006565Y0081440D01*
X0006565Y0082039D02*
X0041265Y0082039D01*
X0041265Y0082637D02*
X0006565Y0082637D01*
X0006565Y0083236D02*
X0041338Y0083236D01*
X0041586Y0083834D02*
X0006565Y0083834D01*
X0006565Y0084433D02*
X0041885Y0084433D01*
X0042484Y0085031D02*
X0006565Y0085031D01*
X0006565Y0085630D02*
X0043507Y0085630D01*
X0046022Y0085630D02*
X0087585Y0085630D01*
X0088184Y0086228D02*
X0006565Y0086228D01*
X0006565Y0086827D02*
X0088782Y0086827D01*
X0090390Y0086737D02*
X0159140Y0086737D01*
X0162265Y0083612D01*
X0162265Y0079892D01*
X0162028Y0079655D01*
X0159765Y0079951D02*
X0159765Y0083612D01*
X0157890Y0085487D01*
X0114140Y0085487D01*
X0104765Y0076112D01*
X0107154Y0076053D02*
X0138126Y0076053D01*
X0138725Y0075455D02*
X0107154Y0075455D01*
X0106887Y0074856D02*
X0139323Y0074856D01*
X0142119Y0075455D02*
X0143725Y0075455D01*
X0144323Y0074856D02*
X0142717Y0074856D01*
X0143316Y0074258D02*
X0144922Y0074258D01*
X0145520Y0073659D02*
X0143914Y0073659D01*
X0143515Y0072362D02*
X0153515Y0072362D01*
X0154765Y0073612D01*
X0154765Y0079242D01*
X0154351Y0079655D01*
X0151792Y0079655D02*
X0151792Y0074390D01*
X0151015Y0073612D01*
X0147265Y0073612D01*
X0143515Y0077362D01*
X0143515Y0081737D01*
X0145904Y0081440D02*
X0147447Y0081440D01*
X0147447Y0080842D02*
X0145904Y0080842D01*
X0145399Y0080243D02*
X0147447Y0080243D01*
X0147447Y0079645D02*
X0144800Y0079645D01*
X0144715Y0079046D02*
X0147447Y0079046D01*
X0147447Y0078448D02*
X0144715Y0078448D01*
X0144725Y0077849D02*
X0147447Y0077849D01*
X0147447Y0077250D02*
X0145323Y0077250D01*
X0145922Y0076652D02*
X0147447Y0076652D01*
X0147447Y0076053D02*
X0146520Y0076053D01*
X0147119Y0075455D02*
X0147830Y0075455D01*
X0147717Y0074856D02*
X0150562Y0074856D01*
X0157265Y0074862D02*
X0157265Y0080010D01*
X0156910Y0079655D01*
X0159469Y0079655D02*
X0159765Y0079951D01*
X0164587Y0079655D02*
X0164587Y0082185D01*
X0164765Y0082362D01*
X0164765Y0083612D01*
X0166015Y0084862D01*
X0178209Y0084862D01*
X0179765Y0083307D01*
X0182791Y0083236D02*
X0309090Y0083236D01*
X0309090Y0083562D02*
X0309090Y0080691D01*
X0309178Y0080360D01*
X0309349Y0080064D01*
X0309591Y0079822D01*
X0309888Y0079651D01*
X0310218Y0079562D01*
X0316340Y0079562D01*
X0316340Y0083562D01*
X0309090Y0083562D01*
X0309090Y0084433D02*
X0182791Y0084433D01*
X0182791Y0085031D02*
X0309090Y0085031D01*
X0309090Y0085630D02*
X0182791Y0085630D01*
X0182309Y0086228D02*
X0309090Y0086228D01*
X0309090Y0086827D02*
X0160747Y0086827D01*
X0161346Y0086228D02*
X0177220Y0086228D01*
X0176739Y0083236D02*
X0174450Y0083236D01*
X0174450Y0082637D02*
X0176739Y0082637D01*
X0176739Y0082039D02*
X0174450Y0082039D01*
X0174450Y0081440D02*
X0176739Y0081440D01*
X0176764Y0080842D02*
X0174450Y0080842D01*
X0174450Y0080243D02*
X0309246Y0080243D01*
X0309090Y0080842D02*
X0182765Y0080842D01*
X0182791Y0081440D02*
X0309090Y0081440D01*
X0309090Y0082039D02*
X0182791Y0082039D01*
X0182791Y0082637D02*
X0309090Y0082637D01*
X0316340Y0082637D02*
X0316940Y0082637D01*
X0316940Y0082039D02*
X0316340Y0082039D01*
X0316340Y0081440D02*
X0316940Y0081440D01*
X0316940Y0080842D02*
X0316340Y0080842D01*
X0316340Y0080243D02*
X0316940Y0080243D01*
X0316940Y0079645D02*
X0316340Y0079645D01*
X0316940Y0079562D02*
X0323061Y0079562D01*
X0323391Y0079651D01*
X0323688Y0079822D01*
X0323930Y0080064D01*
X0324101Y0080360D01*
X0324190Y0080691D01*
X0324190Y0083562D01*
X0316940Y0083562D01*
X0316940Y0079562D01*
X0323368Y0079645D02*
X0332610Y0079645D01*
X0332610Y0080243D02*
X0324033Y0080243D01*
X0324190Y0080842D02*
X0332610Y0080842D01*
X0332610Y0081440D02*
X0324190Y0081440D01*
X0324190Y0082039D02*
X0332610Y0082039D01*
X0332610Y0082637D02*
X0324190Y0082637D01*
X0324190Y0083236D02*
X0332610Y0083236D01*
X0332610Y0083834D02*
X0316940Y0083834D01*
X0316940Y0083236D02*
X0316340Y0083236D01*
X0316340Y0083834D02*
X0182791Y0083834D01*
X0182481Y0079645D02*
X0309911Y0079645D01*
X0324190Y0084433D02*
X0332610Y0084433D01*
X0332610Y0085031D02*
X0324190Y0085031D01*
X0324190Y0085630D02*
X0332610Y0085630D01*
X0332610Y0086228D02*
X0324190Y0086228D01*
X0324190Y0086827D02*
X0332610Y0086827D01*
X0332610Y0079046D02*
X0183067Y0079046D01*
X0183191Y0078448D02*
X0332610Y0078448D01*
X0332610Y0077849D02*
X0183191Y0077849D01*
X0183191Y0077250D02*
X0332610Y0077250D01*
X0332610Y0076652D02*
X0180065Y0076652D01*
X0180065Y0077250D02*
X0179465Y0077250D01*
X0179465Y0076652D02*
X0174450Y0076652D01*
X0174450Y0077250D02*
X0176339Y0077250D01*
X0176339Y0077849D02*
X0174450Y0077849D01*
X0174450Y0078448D02*
X0176339Y0078448D01*
X0176462Y0079046D02*
X0174450Y0079046D01*
X0172407Y0079046D02*
X0172122Y0079046D01*
X0172122Y0078448D02*
X0172407Y0078448D01*
X0172407Y0077849D02*
X0172122Y0077849D01*
X0172122Y0077250D02*
X0172407Y0077250D01*
X0172407Y0076652D02*
X0172122Y0076652D01*
X0172122Y0076053D02*
X0172407Y0076053D01*
X0172407Y0075455D02*
X0172122Y0075455D01*
X0170965Y0074856D02*
X0176339Y0074856D01*
X0176339Y0074258D02*
X0170965Y0074258D01*
X0170965Y0073659D02*
X0176536Y0073659D01*
X0176343Y0073061D02*
X0170910Y0073061D01*
X0170312Y0072462D02*
X0176339Y0072462D01*
X0176339Y0071864D02*
X0169713Y0071864D01*
X0169115Y0071265D02*
X0176339Y0071265D01*
X0176339Y0070507D02*
X0176339Y0068569D01*
X0176427Y0068238D01*
X0176598Y0067942D01*
X0176840Y0067700D01*
X0177137Y0067529D01*
X0177467Y0067440D01*
X0179465Y0067440D01*
X0179465Y0070507D01*
X0176339Y0070507D01*
X0176339Y0070068D02*
X0167918Y0070068D01*
X0167319Y0069470D02*
X0176339Y0069470D01*
X0176339Y0068871D02*
X0166721Y0068871D01*
X0168516Y0070667D02*
X0179465Y0070667D01*
X0179465Y0071265D02*
X0180065Y0071265D01*
X0180065Y0070667D02*
X0199876Y0070667D01*
X0199876Y0070068D02*
X0183191Y0070068D01*
X0183191Y0069470D02*
X0199876Y0069470D01*
X0199877Y0068871D02*
X0183191Y0068871D01*
X0183111Y0068273D02*
X0200475Y0068273D01*
X0202265Y0069862D02*
X0202265Y0047362D01*
X0188021Y0043734D02*
X0227758Y0043734D01*
X0227376Y0043135D02*
X0188404Y0043135D01*
X0188404Y0042537D02*
X0227376Y0042537D01*
X0227376Y0041938D02*
X0188404Y0041938D01*
X0188371Y0041340D02*
X0227408Y0041340D01*
X0228007Y0040741D02*
X0187772Y0040741D01*
X0187215Y0040143D02*
X0228565Y0040143D01*
X0230965Y0040143D02*
X0266925Y0040143D01*
X0267445Y0040741D02*
X0231522Y0040741D01*
X0232121Y0041340D02*
X0267965Y0041340D01*
X0268485Y0041938D02*
X0232154Y0041938D01*
X0232154Y0042537D02*
X0269005Y0042537D01*
X0269246Y0043135D02*
X0232154Y0043135D01*
X0231771Y0043734D02*
X0269628Y0043734D01*
X0270226Y0044332D02*
X0231173Y0044332D01*
X0228356Y0044332D02*
X0187423Y0044332D01*
X0184606Y0044332D02*
X0173765Y0044332D01*
X0173765Y0043734D02*
X0184008Y0043734D01*
X0183626Y0043135D02*
X0173765Y0043135D01*
X0173765Y0042537D02*
X0183626Y0042537D01*
X0183626Y0041938D02*
X0173765Y0041938D01*
X0173765Y0041340D02*
X0183658Y0041340D01*
X0184257Y0040741D02*
X0173765Y0040741D01*
X0173765Y0040143D02*
X0184815Y0040143D01*
X0186015Y0042362D02*
X0186015Y0037562D01*
X0170765Y0039662D02*
X0142515Y0039662D01*
X0142515Y0040484D01*
X0143404Y0041373D01*
X0143404Y0043352D01*
X0142914Y0043841D01*
X0142915Y0043842D01*
X0143157Y0044084D01*
X0143328Y0044380D01*
X0143417Y0044711D01*
X0143417Y0047338D01*
X0140055Y0047338D01*
X0140055Y0047938D01*
X0143417Y0047938D01*
X0143417Y0050565D01*
X0143328Y0050895D01*
X0143157Y0051192D01*
X0142974Y0051375D01*
X0151126Y0059526D01*
X0151126Y0057623D01*
X0152525Y0056223D01*
X0154206Y0056223D01*
X0154973Y0055457D01*
X0153093Y0055457D01*
X0153072Y0055436D01*
X0153051Y0055457D01*
X0150534Y0055457D01*
X0150513Y0055436D01*
X0150492Y0055457D01*
X0147974Y0055457D01*
X0147447Y0054930D01*
X0147447Y0047294D01*
X0147974Y0046767D01*
X0150492Y0046767D01*
X0150513Y0046788D01*
X0150534Y0046767D01*
X0153051Y0046767D01*
X0153072Y0046788D01*
X0153093Y0046767D01*
X0155610Y0046767D01*
X0155631Y0046788D01*
X0155652Y0046767D01*
X0158169Y0046767D01*
X0158190Y0046788D01*
X0158211Y0046767D01*
X0160728Y0046767D01*
X0160749Y0046788D01*
X0160770Y0046767D01*
X0163287Y0046767D01*
X0163308Y0046788D01*
X0163329Y0046767D01*
X0163565Y0046767D01*
X0163565Y0045091D01*
X0162376Y0043902D01*
X0162376Y0041923D01*
X0163775Y0040523D01*
X0165754Y0040523D01*
X0167154Y0041923D01*
X0167154Y0043902D01*
X0165965Y0045091D01*
X0165965Y0046767D01*
X0168405Y0046767D01*
X0168426Y0046788D01*
X0168447Y0046767D01*
X0170765Y0046767D01*
X0170765Y0039662D01*
X0170765Y0040143D02*
X0142515Y0040143D01*
X0142772Y0040741D02*
X0163557Y0040741D01*
X0162958Y0041340D02*
X0143371Y0041340D01*
X0143404Y0041938D02*
X0162376Y0041938D01*
X0162376Y0042537D02*
X0143404Y0042537D01*
X0143404Y0043135D02*
X0162376Y0043135D01*
X0162376Y0043734D02*
X0143021Y0043734D01*
X0143301Y0044332D02*
X0162806Y0044332D01*
X0163405Y0044931D02*
X0143417Y0044931D01*
X0143417Y0045529D02*
X0163565Y0045529D01*
X0163565Y0046128D02*
X0143417Y0046128D01*
X0143417Y0046726D02*
X0163565Y0046726D01*
X0165965Y0046726D02*
X0170765Y0046726D01*
X0170765Y0046128D02*
X0165965Y0046128D01*
X0165965Y0045529D02*
X0170765Y0045529D01*
X0170765Y0044931D02*
X0166124Y0044931D01*
X0166723Y0044332D02*
X0170765Y0044332D01*
X0170765Y0043734D02*
X0167154Y0043734D01*
X0167154Y0043135D02*
X0170765Y0043135D01*
X0170765Y0042537D02*
X0167154Y0042537D01*
X0167154Y0041938D02*
X0170765Y0041938D01*
X0170765Y0041340D02*
X0166571Y0041340D01*
X0165972Y0040741D02*
X0170765Y0040741D01*
X0164765Y0042912D02*
X0164765Y0050935D01*
X0164587Y0051112D01*
X0162028Y0051112D02*
X0162028Y0055876D01*
X0163515Y0057362D01*
X0164765Y0057362D01*
X0167154Y0056373D02*
X0167154Y0058352D01*
X0164393Y0061112D01*
X0151015Y0061112D01*
X0142265Y0052362D01*
X0136999Y0052362D01*
X0132274Y0047638D01*
X0132245Y0047667D01*
X0123515Y0047667D01*
X0120489Y0047923D02*
X0118404Y0047923D01*
X0118404Y0048522D02*
X0120489Y0048522D01*
X0120489Y0049120D02*
X0118404Y0049120D01*
X0118286Y0049719D02*
X0120489Y0049719D01*
X0120699Y0050317D02*
X0117688Y0050317D01*
X0117215Y0050916D02*
X0129162Y0050916D01*
X0129012Y0050317D02*
X0126330Y0050317D01*
X0126541Y0049719D02*
X0129012Y0049719D01*
X0129012Y0049120D02*
X0126541Y0049120D01*
X0125812Y0051190D02*
X0123815Y0051190D01*
X0123815Y0054257D01*
X0123815Y0054857D01*
X0126941Y0054857D01*
X0126941Y0056795D01*
X0126852Y0057126D01*
X0126681Y0057422D01*
X0126439Y0057664D01*
X0126142Y0057835D01*
X0125812Y0057924D01*
X0123815Y0057924D01*
X0123815Y0054857D01*
X0123215Y0054857D01*
X0123215Y0057924D01*
X0121217Y0057924D01*
X0120887Y0057835D01*
X0120590Y0057664D01*
X0120348Y0057422D01*
X0120177Y0057126D01*
X0120089Y0056795D01*
X0120089Y0054857D01*
X0123215Y0054857D01*
X0123215Y0054257D01*
X0123815Y0054257D01*
X0126941Y0054257D01*
X0126941Y0052319D01*
X0126852Y0051988D01*
X0126681Y0051692D01*
X0126439Y0051450D01*
X0126142Y0051279D01*
X0125812Y0051190D01*
X0126503Y0051515D02*
X0134454Y0051515D01*
X0135053Y0052113D02*
X0126885Y0052113D01*
X0126941Y0052712D02*
X0135651Y0052712D01*
X0135435Y0053290D02*
X0135677Y0053532D01*
X0135848Y0053829D01*
X0135937Y0054159D01*
X0135937Y0056787D01*
X0132574Y0056787D01*
X0132574Y0053031D01*
X0134808Y0053031D01*
X0135138Y0053119D01*
X0135435Y0053290D01*
X0135454Y0053310D02*
X0136250Y0053310D01*
X0136542Y0053909D02*
X0135869Y0053909D01*
X0135937Y0054507D02*
X0136493Y0054507D01*
X0136493Y0055106D02*
X0135937Y0055106D01*
X0135937Y0055704D02*
X0136493Y0055704D01*
X0136493Y0056303D02*
X0135937Y0056303D01*
X0136493Y0056901D02*
X0132574Y0056901D01*
X0132574Y0056787D02*
X0132574Y0057387D01*
X0131974Y0057387D01*
X0131974Y0061142D01*
X0129741Y0061142D01*
X0129410Y0061054D01*
X0129114Y0060883D01*
X0128872Y0060641D01*
X0128701Y0060344D01*
X0128612Y0060014D01*
X0128612Y0057387D01*
X0131974Y0057387D01*
X0131974Y0056787D01*
X0128612Y0056787D01*
X0128612Y0054159D01*
X0128701Y0053829D01*
X0128872Y0053532D01*
X0129114Y0053290D01*
X0129410Y0053119D01*
X0129741Y0053031D01*
X0131974Y0053031D01*
X0131974Y0056787D01*
X0132574Y0056787D01*
X0132574Y0056303D02*
X0131974Y0056303D01*
X0131974Y0056901D02*
X0126912Y0056901D01*
X0126941Y0056303D02*
X0128612Y0056303D01*
X0128612Y0055704D02*
X0126941Y0055704D01*
X0126941Y0055106D02*
X0128612Y0055106D01*
X0128612Y0054507D02*
X0123815Y0054507D01*
X0123815Y0053909D02*
X0123215Y0053909D01*
X0123215Y0054257D02*
X0123215Y0051190D01*
X0121217Y0051190D01*
X0120887Y0051279D01*
X0120590Y0051450D01*
X0120348Y0051692D01*
X0120177Y0051988D01*
X0120089Y0052319D01*
X0120089Y0054257D01*
X0123215Y0054257D01*
X0123215Y0054507D02*
X0117215Y0054507D01*
X0117215Y0053909D02*
X0120089Y0053909D01*
X0120089Y0053310D02*
X0117215Y0053310D01*
X0117215Y0052712D02*
X0120089Y0052712D01*
X0120144Y0052113D02*
X0117215Y0052113D01*
X0117215Y0051515D02*
X0120526Y0051515D01*
X0123215Y0051515D02*
X0123815Y0051515D01*
X0123815Y0052113D02*
X0123215Y0052113D01*
X0123215Y0052712D02*
X0123815Y0052712D01*
X0123815Y0053310D02*
X0123215Y0053310D01*
X0126941Y0053310D02*
X0129094Y0053310D01*
X0128679Y0053909D02*
X0126941Y0053909D01*
X0123815Y0055106D02*
X0123215Y0055106D01*
X0123215Y0055704D02*
X0123815Y0055704D01*
X0123815Y0056303D02*
X0123215Y0056303D01*
X0123215Y0056901D02*
X0123815Y0056901D01*
X0123815Y0057500D02*
X0123215Y0057500D01*
X0120426Y0057500D02*
X0117215Y0057500D01*
X0117215Y0058098D02*
X0128612Y0058098D01*
X0128612Y0057500D02*
X0126603Y0057500D01*
X0128612Y0058697D02*
X0117215Y0058697D01*
X0117215Y0059295D02*
X0128612Y0059295D01*
X0128612Y0059894D02*
X0117215Y0059894D01*
X0117215Y0060492D02*
X0128786Y0060492D01*
X0129548Y0061091D02*
X0117215Y0061091D01*
X0117215Y0061689D02*
X0129716Y0061689D01*
X0129277Y0062288D02*
X0117215Y0062288D01*
X0117215Y0062886D02*
X0129203Y0062886D01*
X0129203Y0063485D02*
X0117215Y0063485D01*
X0117364Y0064083D02*
X0129203Y0064083D01*
X0132270Y0063485D02*
X0132870Y0063485D01*
X0132870Y0062886D02*
X0132270Y0062886D01*
X0132270Y0062288D02*
X0132870Y0062288D01*
X0132870Y0061689D02*
X0132270Y0061689D01*
X0132574Y0061142D02*
X0132574Y0057387D01*
X0135937Y0057387D01*
X0135937Y0060014D01*
X0135848Y0060344D01*
X0135677Y0060641D01*
X0135435Y0060883D01*
X0135138Y0061054D01*
X0134808Y0061142D01*
X0132574Y0061142D01*
X0132574Y0061091D02*
X0131974Y0061091D01*
X0131974Y0060492D02*
X0132574Y0060492D01*
X0132574Y0059894D02*
X0131974Y0059894D01*
X0131974Y0059295D02*
X0132574Y0059295D01*
X0132574Y0058697D02*
X0131974Y0058697D01*
X0131974Y0058098D02*
X0132574Y0058098D01*
X0132574Y0057500D02*
X0131974Y0057500D01*
X0135937Y0057500D02*
X0136493Y0057500D01*
X0136493Y0058098D02*
X0135937Y0058098D01*
X0135937Y0058697D02*
X0136493Y0058697D01*
X0136493Y0059295D02*
X0135937Y0059295D01*
X0135937Y0059894D02*
X0136493Y0059894D01*
X0136769Y0060492D02*
X0135763Y0060492D01*
X0135001Y0061091D02*
X0138259Y0061091D01*
X0138259Y0061689D02*
X0135423Y0061689D01*
X0135862Y0062288D02*
X0136568Y0062288D01*
X0136493Y0062886D02*
X0135937Y0062886D01*
X0135937Y0063485D02*
X0136493Y0063485D01*
X0136493Y0064083D02*
X0135937Y0064083D01*
X0135937Y0065280D02*
X0136493Y0065280D01*
X0136493Y0065879D02*
X0135937Y0065879D01*
X0135937Y0066477D02*
X0136493Y0066477D01*
X0136493Y0067076D02*
X0135937Y0067076D01*
X0135742Y0067674D02*
X0136806Y0067674D01*
X0134865Y0068273D02*
X0176418Y0068273D01*
X0176885Y0067674D02*
X0142113Y0067674D01*
X0132870Y0067674D02*
X0132270Y0067674D01*
X0132270Y0067076D02*
X0132870Y0067076D01*
X0132870Y0066477D02*
X0132270Y0066477D01*
X0132270Y0065879D02*
X0132870Y0065879D01*
X0132870Y0065280D02*
X0132270Y0065280D01*
X0132270Y0068273D02*
X0132870Y0068273D01*
X0116015Y0066112D02*
X0116015Y0048612D01*
X0113626Y0048522D02*
X0071580Y0048522D01*
X0071580Y0049120D02*
X0113626Y0049120D01*
X0113743Y0049719D02*
X0071580Y0049719D01*
X0071580Y0050317D02*
X0114341Y0050317D01*
X0114815Y0050916D02*
X0071580Y0050916D01*
X0071580Y0051515D02*
X0114815Y0051515D01*
X0114815Y0052113D02*
X0071267Y0052113D01*
X0071053Y0052327D02*
X0065976Y0052327D01*
X0065449Y0051800D01*
X0065449Y0051062D01*
X0063018Y0051062D01*
X0062315Y0050359D01*
X0061065Y0049109D01*
X0061065Y0047041D01*
X0059876Y0045852D01*
X0059876Y0043873D01*
X0061275Y0042473D01*
X0063254Y0042473D01*
X0064654Y0043873D01*
X0064654Y0045852D01*
X0063465Y0047041D01*
X0063465Y0048115D01*
X0064012Y0048662D01*
X0065449Y0048662D01*
X0065449Y0047117D01*
X0065976Y0046590D01*
X0071053Y0046590D01*
X0071580Y0047117D01*
X0071580Y0051800D01*
X0071053Y0052327D01*
X0065762Y0052113D02*
X0056734Y0052113D01*
X0057332Y0051515D02*
X0065449Y0051515D01*
X0062871Y0050916D02*
X0057931Y0050916D01*
X0058529Y0050317D02*
X0062273Y0050317D01*
X0061674Y0049719D02*
X0059128Y0049719D01*
X0059365Y0049120D02*
X0061076Y0049120D01*
X0061065Y0048522D02*
X0059365Y0048522D01*
X0059365Y0047923D02*
X0061065Y0047923D01*
X0061065Y0047325D02*
X0059365Y0047325D01*
X0059365Y0046726D02*
X0060750Y0046726D01*
X0060152Y0046128D02*
X0059365Y0046128D01*
X0059365Y0045529D02*
X0059876Y0045529D01*
X0059876Y0044931D02*
X0059365Y0044931D01*
X0059365Y0044332D02*
X0059876Y0044332D01*
X0060014Y0043734D02*
X0059365Y0043734D01*
X0059365Y0043135D02*
X0060613Y0043135D01*
X0061211Y0042537D02*
X0059365Y0042537D01*
X0059408Y0041938D02*
X0065449Y0041938D01*
X0065449Y0041340D02*
X0060007Y0041340D01*
X0060605Y0040741D02*
X0065449Y0040741D01*
X0065731Y0040143D02*
X0061204Y0040143D01*
X0056461Y0038946D02*
X0047821Y0038946D01*
X0047737Y0038862D02*
X0048265Y0039389D01*
X0048265Y0045335D01*
X0047737Y0045862D01*
X0041792Y0045862D01*
X0041265Y0045335D01*
X0041265Y0039389D01*
X0041792Y0038862D01*
X0047737Y0038862D01*
X0048265Y0039544D02*
X0055863Y0039544D01*
X0055264Y0040143D02*
X0048265Y0040143D01*
X0048265Y0040741D02*
X0055165Y0040741D01*
X0055165Y0041340D02*
X0048265Y0041340D01*
X0048265Y0041938D02*
X0055165Y0041938D01*
X0055165Y0042537D02*
X0048265Y0042537D01*
X0048265Y0043135D02*
X0055165Y0043135D01*
X0055165Y0043734D02*
X0048265Y0043734D01*
X0048265Y0044332D02*
X0055165Y0044332D01*
X0055165Y0044931D02*
X0048265Y0044931D01*
X0048070Y0045529D02*
X0055165Y0045529D01*
X0055165Y0046128D02*
X0006565Y0046128D01*
X0006565Y0046726D02*
X0055165Y0046726D01*
X0055165Y0047325D02*
X0037388Y0047325D01*
X0037791Y0047923D02*
X0054983Y0047923D01*
X0054385Y0048522D02*
X0037791Y0048522D01*
X0037791Y0049120D02*
X0043445Y0049120D01*
X0046084Y0049120D02*
X0053786Y0049120D01*
X0053188Y0049719D02*
X0047071Y0049719D01*
X0062265Y0048612D02*
X0063515Y0049862D01*
X0068111Y0049862D01*
X0068515Y0049459D01*
X0065449Y0048522D02*
X0063871Y0048522D01*
X0063465Y0047923D02*
X0065449Y0047923D01*
X0065449Y0047325D02*
X0063465Y0047325D01*
X0063779Y0046726D02*
X0065840Y0046726D01*
X0065872Y0045529D02*
X0064654Y0045529D01*
X0064654Y0044931D02*
X0065449Y0044931D01*
X0065449Y0044332D02*
X0064654Y0044332D01*
X0064515Y0043734D02*
X0065449Y0043734D01*
X0065449Y0043135D02*
X0063916Y0043135D01*
X0063318Y0042537D02*
X0065449Y0042537D01*
X0068515Y0042766D02*
X0068515Y0037562D01*
X0058715Y0036692D02*
X0058715Y0036692D01*
X0058257Y0037150D02*
X0006565Y0037150D01*
X0006565Y0037749D02*
X0057658Y0037749D01*
X0057060Y0038347D02*
X0006565Y0038347D01*
X0006565Y0038946D02*
X0041708Y0038946D01*
X0041265Y0039544D02*
X0006565Y0039544D01*
X0006565Y0040143D02*
X0041265Y0040143D01*
X0041265Y0040741D02*
X0006565Y0040741D01*
X0006565Y0041340D02*
X0041265Y0041340D01*
X0041265Y0041938D02*
X0006565Y0041938D01*
X0006565Y0042537D02*
X0041265Y0042537D01*
X0041265Y0043135D02*
X0006565Y0043135D01*
X0006565Y0043734D02*
X0041265Y0043734D01*
X0041265Y0044332D02*
X0006565Y0044332D01*
X0006565Y0044931D02*
X0041265Y0044931D01*
X0041459Y0045529D02*
X0006565Y0045529D01*
X0006565Y0047325D02*
X0024641Y0047325D01*
X0024239Y0047923D02*
X0006565Y0047923D01*
X0006565Y0048522D02*
X0024239Y0048522D01*
X0024239Y0049120D02*
X0006565Y0049120D01*
X0006565Y0049719D02*
X0024239Y0049719D01*
X0024239Y0050317D02*
X0006565Y0050317D01*
X0006565Y0050916D02*
X0024239Y0050916D01*
X0024239Y0051515D02*
X0006565Y0051515D01*
X0006565Y0052113D02*
X0024239Y0052113D01*
X0024343Y0052712D02*
X0006565Y0052712D01*
X0006565Y0053310D02*
X0041369Y0053310D01*
X0041617Y0053909D02*
X0037617Y0053909D01*
X0037689Y0053950D02*
X0037931Y0054192D01*
X0038102Y0054488D01*
X0038191Y0054819D01*
X0038191Y0056757D01*
X0035065Y0056757D01*
X0035065Y0057357D01*
X0038191Y0057357D01*
X0038191Y0059295D01*
X0038102Y0059626D01*
X0037931Y0059922D01*
X0037689Y0060164D01*
X0037392Y0060335D01*
X0037062Y0060424D01*
X0035065Y0060424D01*
X0035065Y0057357D01*
X0034465Y0057357D01*
X0034465Y0060424D01*
X0032467Y0060424D01*
X0032137Y0060335D01*
X0031840Y0060164D01*
X0031598Y0059922D01*
X0031427Y0059626D01*
X0031339Y0059295D01*
X0030291Y0059295D01*
X0030291Y0058697D02*
X0031339Y0058697D01*
X0031339Y0059295D02*
X0031339Y0057357D01*
X0034465Y0057357D01*
X0034465Y0056757D01*
X0035065Y0056757D01*
X0035065Y0053690D01*
X0037062Y0053690D01*
X0037392Y0053779D01*
X0037689Y0053950D01*
X0038107Y0054507D02*
X0041960Y0054507D01*
X0042558Y0055106D02*
X0038191Y0055106D01*
X0038191Y0055704D02*
X0043687Y0055704D01*
X0045842Y0055704D02*
X0114815Y0055704D01*
X0114815Y0055106D02*
X0046971Y0055106D01*
X0047569Y0054507D02*
X0114815Y0054507D01*
X0114815Y0053909D02*
X0054938Y0053909D01*
X0055537Y0053310D02*
X0114815Y0053310D01*
X0114815Y0052712D02*
X0056135Y0052712D01*
X0038191Y0056303D02*
X0114815Y0056303D01*
X0114815Y0056901D02*
X0035065Y0056901D01*
X0035065Y0056303D02*
X0034465Y0056303D01*
X0034465Y0056757D02*
X0034465Y0053690D01*
X0032467Y0053690D01*
X0032137Y0053779D01*
X0031840Y0053950D01*
X0031598Y0054192D01*
X0031427Y0054488D01*
X0031339Y0054819D01*
X0031339Y0056757D01*
X0034465Y0056757D01*
X0034465Y0056901D02*
X0030291Y0056901D01*
X0030291Y0056303D02*
X0031339Y0056303D01*
X0031339Y0055704D02*
X0030291Y0055704D01*
X0030291Y0055106D02*
X0031339Y0055106D01*
X0031422Y0054507D02*
X0030180Y0054507D01*
X0030186Y0052712D02*
X0031843Y0052712D01*
X0031912Y0053909D02*
X0006565Y0053909D01*
X0006565Y0054507D02*
X0024349Y0054507D01*
X0024239Y0055106D02*
X0006565Y0055106D01*
X0006565Y0055704D02*
X0024239Y0055704D01*
X0024239Y0056303D02*
X0006565Y0056303D01*
X0006565Y0056901D02*
X0024239Y0056901D01*
X0024239Y0057500D02*
X0006565Y0057500D01*
X0006565Y0058098D02*
X0024239Y0058098D01*
X0024239Y0058697D02*
X0006565Y0058697D01*
X0006565Y0059295D02*
X0024239Y0059295D01*
X0024636Y0059894D02*
X0006565Y0059894D01*
X0006565Y0060492D02*
X0025565Y0060492D01*
X0025565Y0061091D02*
X0006565Y0061091D01*
X0006565Y0061689D02*
X0025565Y0061689D01*
X0025565Y0062288D02*
X0006565Y0062288D01*
X0006565Y0062886D02*
X0025565Y0062886D01*
X0025565Y0063485D02*
X0006565Y0063485D01*
X0006565Y0064083D02*
X0025565Y0064083D01*
X0025565Y0064682D02*
X0006565Y0064682D01*
X0006565Y0065280D02*
X0025565Y0065280D01*
X0025565Y0065879D02*
X0006565Y0065879D01*
X0006565Y0066477D02*
X0025565Y0066477D01*
X0025565Y0067076D02*
X0006565Y0067076D01*
X0006565Y0067674D02*
X0025565Y0067674D01*
X0025565Y0068273D02*
X0006565Y0068273D01*
X0006565Y0068871D02*
X0025565Y0068871D01*
X0025528Y0069470D02*
X0006565Y0069470D01*
X0006565Y0070068D02*
X0024930Y0070068D01*
X0024876Y0070667D02*
X0006565Y0070667D01*
X0006565Y0071265D02*
X0024876Y0071265D01*
X0024876Y0071864D02*
X0006565Y0071864D01*
X0006565Y0072462D02*
X0025236Y0072462D01*
X0028965Y0067674D02*
X0114198Y0067674D01*
X0113626Y0067076D02*
X0028965Y0067076D01*
X0028965Y0066477D02*
X0113626Y0066477D01*
X0113626Y0065879D02*
X0046466Y0065879D01*
X0046612Y0065818D02*
X0045902Y0066112D01*
X0045149Y0066262D01*
X0045065Y0066262D01*
X0045065Y0062662D01*
X0048665Y0062662D01*
X0048665Y0062746D01*
X0048515Y0063500D01*
X0048221Y0064209D01*
X0047794Y0064848D01*
X0047251Y0065391D01*
X0046612Y0065818D01*
X0047362Y0065280D02*
X0113626Y0065280D01*
X0114066Y0064682D02*
X0047905Y0064682D01*
X0048273Y0064083D02*
X0114665Y0064083D01*
X0114815Y0063485D02*
X0048518Y0063485D01*
X0048637Y0062886D02*
X0114815Y0062886D01*
X0114815Y0062288D02*
X0045065Y0062288D01*
X0045065Y0062062D02*
X0045065Y0062662D01*
X0044465Y0062662D01*
X0044465Y0066262D01*
X0044380Y0066262D01*
X0043627Y0066112D01*
X0042917Y0065818D01*
X0042278Y0065391D01*
X0041735Y0064848D01*
X0041308Y0064209D01*
X0041014Y0063500D01*
X0040865Y0062746D01*
X0040865Y0062662D01*
X0044465Y0062662D01*
X0044465Y0062062D01*
X0045065Y0062062D01*
X0048665Y0062062D01*
X0048665Y0061978D01*
X0048515Y0061225D01*
X0048221Y0060515D01*
X0047794Y0059876D01*
X0047251Y0059333D01*
X0046612Y0058906D01*
X0045902Y0058612D01*
X0045149Y0058462D01*
X0045065Y0058462D01*
X0045065Y0062062D01*
X0045065Y0061689D02*
X0044465Y0061689D01*
X0044465Y0062062D02*
X0044465Y0058462D01*
X0044380Y0058462D01*
X0043627Y0058612D01*
X0042917Y0058906D01*
X0042278Y0059333D01*
X0041735Y0059876D01*
X0041308Y0060515D01*
X0041014Y0061225D01*
X0040865Y0061978D01*
X0040865Y0062062D01*
X0044465Y0062062D01*
X0044465Y0062288D02*
X0028965Y0062288D01*
X0028965Y0062886D02*
X0040892Y0062886D01*
X0041011Y0063485D02*
X0028965Y0063485D01*
X0028965Y0064083D02*
X0041256Y0064083D01*
X0041624Y0064682D02*
X0028965Y0064682D01*
X0028965Y0065280D02*
X0042167Y0065280D01*
X0043063Y0065879D02*
X0028965Y0065879D01*
X0044465Y0065879D02*
X0045065Y0065879D01*
X0045065Y0065280D02*
X0044465Y0065280D01*
X0044465Y0064682D02*
X0045065Y0064682D01*
X0045065Y0064083D02*
X0044465Y0064083D01*
X0044465Y0063485D02*
X0045065Y0063485D01*
X0045065Y0062886D02*
X0044465Y0062886D01*
X0044465Y0061091D02*
X0045065Y0061091D01*
X0045065Y0060492D02*
X0044465Y0060492D01*
X0044465Y0059894D02*
X0045065Y0059894D01*
X0045065Y0059295D02*
X0044465Y0059295D01*
X0044465Y0058697D02*
X0045065Y0058697D01*
X0046106Y0058697D02*
X0114815Y0058697D01*
X0114815Y0059295D02*
X0047194Y0059295D01*
X0047806Y0059894D02*
X0114815Y0059894D01*
X0114815Y0060492D02*
X0048206Y0060492D01*
X0048459Y0061091D02*
X0114815Y0061091D01*
X0114815Y0061689D02*
X0048607Y0061689D01*
X0042335Y0059295D02*
X0038191Y0059295D01*
X0038191Y0058697D02*
X0043423Y0058697D01*
X0041723Y0059894D02*
X0037947Y0059894D01*
X0035065Y0059894D02*
X0034465Y0059894D01*
X0034465Y0059295D02*
X0035065Y0059295D01*
X0035065Y0058697D02*
X0034465Y0058697D01*
X0034465Y0058098D02*
X0035065Y0058098D01*
X0035065Y0057500D02*
X0034465Y0057500D01*
X0031339Y0057500D02*
X0030291Y0057500D01*
X0030291Y0058098D02*
X0031339Y0058098D01*
X0031582Y0059894D02*
X0029894Y0059894D01*
X0028965Y0060492D02*
X0041324Y0060492D01*
X0041070Y0061091D02*
X0028965Y0061091D01*
X0028965Y0061689D02*
X0040922Y0061689D01*
X0038191Y0058098D02*
X0114815Y0058098D01*
X0114815Y0057500D02*
X0038191Y0057500D01*
X0035065Y0055704D02*
X0034465Y0055704D01*
X0034465Y0055106D02*
X0035065Y0055106D01*
X0035065Y0054507D02*
X0034465Y0054507D01*
X0034465Y0053909D02*
X0035065Y0053909D01*
X0062265Y0048612D02*
X0062265Y0044862D01*
X0064377Y0046128D02*
X0120489Y0046128D01*
X0120489Y0046726D02*
X0117507Y0046726D01*
X0118106Y0047325D02*
X0120489Y0047325D01*
X0114522Y0046726D02*
X0071189Y0046726D01*
X0071580Y0047325D02*
X0113923Y0047325D01*
X0113626Y0047923D02*
X0071580Y0047923D01*
X0071157Y0045529D02*
X0120489Y0045529D01*
X0120785Y0044931D02*
X0071580Y0044931D01*
X0071580Y0044332D02*
X0097106Y0044332D01*
X0096508Y0043734D02*
X0071580Y0043734D01*
X0071580Y0043135D02*
X0096126Y0043135D01*
X0096126Y0042537D02*
X0071580Y0042537D01*
X0071580Y0041938D02*
X0096126Y0041938D01*
X0096158Y0041340D02*
X0071580Y0041340D01*
X0071580Y0040741D02*
X0096757Y0040741D01*
X0097315Y0040143D02*
X0071298Y0040143D01*
X0098515Y0042362D02*
X0098515Y0037562D01*
X0099715Y0040143D02*
X0139515Y0040143D01*
X0139257Y0040741D02*
X0100272Y0040741D01*
X0100871Y0041340D02*
X0138658Y0041340D01*
X0138626Y0041938D02*
X0100904Y0041938D01*
X0100904Y0042537D02*
X0138626Y0042537D01*
X0138626Y0043135D02*
X0100904Y0043135D01*
X0100521Y0043734D02*
X0136781Y0043734D01*
X0136209Y0044332D02*
X0135360Y0044332D01*
X0135537Y0044931D02*
X0136093Y0044931D01*
X0136093Y0045529D02*
X0135537Y0045529D01*
X0135537Y0046128D02*
X0136093Y0046128D01*
X0136093Y0046726D02*
X0135537Y0046726D01*
X0135537Y0047325D02*
X0136093Y0047325D01*
X0135537Y0047923D02*
X0139455Y0047923D01*
X0140055Y0047923D02*
X0147447Y0047923D01*
X0147447Y0047325D02*
X0143417Y0047325D01*
X0143417Y0048522D02*
X0147447Y0048522D01*
X0147447Y0049120D02*
X0143417Y0049120D01*
X0143417Y0049719D02*
X0147447Y0049719D01*
X0147447Y0050317D02*
X0143417Y0050317D01*
X0143316Y0050916D02*
X0147447Y0050916D01*
X0147447Y0051515D02*
X0143114Y0051515D01*
X0143712Y0052113D02*
X0147447Y0052113D01*
X0147447Y0052712D02*
X0144311Y0052712D01*
X0144909Y0053310D02*
X0147447Y0053310D01*
X0147447Y0053909D02*
X0145508Y0053909D01*
X0146107Y0054507D02*
X0147447Y0054507D01*
X0147623Y0055106D02*
X0146705Y0055106D01*
X0147304Y0055704D02*
X0154726Y0055704D01*
X0156910Y0055216D02*
X0153515Y0058612D01*
X0151126Y0058697D02*
X0150296Y0058697D01*
X0150895Y0059295D02*
X0151126Y0059295D01*
X0146198Y0060492D02*
X0142740Y0060492D01*
X0143017Y0059894D02*
X0145599Y0059894D01*
X0145001Y0059295D02*
X0143017Y0059295D01*
X0143017Y0058697D02*
X0144402Y0058697D01*
X0149099Y0057500D02*
X0151249Y0057500D01*
X0151126Y0058098D02*
X0149698Y0058098D01*
X0148501Y0056901D02*
X0151847Y0056901D01*
X0152446Y0056303D02*
X0147902Y0056303D01*
X0141015Y0057087D02*
X0139755Y0057087D01*
X0132574Y0055704D02*
X0131974Y0055704D01*
X0131974Y0055106D02*
X0132574Y0055106D01*
X0132574Y0054507D02*
X0131974Y0054507D01*
X0131974Y0053909D02*
X0132574Y0053909D01*
X0132574Y0053310D02*
X0131974Y0053310D01*
X0120089Y0055106D02*
X0117215Y0055106D01*
X0117215Y0055704D02*
X0120089Y0055704D01*
X0120089Y0056303D02*
X0117215Y0056303D01*
X0117215Y0056901D02*
X0120117Y0056901D01*
X0140659Y0061091D02*
X0146796Y0061091D01*
X0147395Y0061689D02*
X0140659Y0061689D01*
X0142351Y0062288D02*
X0147993Y0062288D01*
X0148592Y0062886D02*
X0142426Y0062886D01*
X0142426Y0063485D02*
X0149190Y0063485D01*
X0159765Y0058612D02*
X0159765Y0051407D01*
X0159469Y0051112D01*
X0156910Y0051112D02*
X0156910Y0055216D01*
X0167146Y0056365D02*
X0167146Y0051112D01*
X0167146Y0056365D02*
X0167154Y0056373D01*
X0136093Y0049719D02*
X0136053Y0049719D01*
X0136093Y0049120D02*
X0135537Y0049120D01*
X0135537Y0048522D02*
X0136093Y0048522D01*
X0129012Y0046128D02*
X0126541Y0046128D01*
X0126541Y0045529D02*
X0129012Y0045529D01*
X0129012Y0044931D02*
X0126244Y0044931D01*
X0129189Y0044332D02*
X0099923Y0044332D01*
X0032141Y0047325D02*
X0029888Y0047325D01*
X0030291Y0047923D02*
X0031739Y0047923D01*
X0138515Y0077362D02*
X0143515Y0072362D01*
X0157265Y0074862D02*
X0158515Y0073612D01*
X0161015Y0073612D01*
X0174215Y0075455D02*
X0176339Y0075455D01*
X0176339Y0076053D02*
X0174450Y0076053D01*
X0179465Y0076053D02*
X0180065Y0076053D01*
X0180065Y0075455D02*
X0179465Y0075455D01*
X0179465Y0074856D02*
X0180065Y0074856D01*
X0180065Y0074258D02*
X0179465Y0074258D01*
X0179465Y0073659D02*
X0180065Y0073659D01*
X0180065Y0073061D02*
X0179465Y0073061D01*
X0179465Y0072462D02*
X0180065Y0072462D01*
X0180065Y0071864D02*
X0179465Y0071864D01*
X0183191Y0071265D02*
X0200289Y0071265D01*
X0180065Y0070068D02*
X0179465Y0070068D01*
X0179465Y0069470D02*
X0180065Y0069470D01*
X0180065Y0068871D02*
X0179465Y0068871D01*
X0179465Y0068273D02*
X0180065Y0068273D01*
X0180065Y0067674D02*
X0179465Y0067674D01*
X0143126Y0076053D02*
X0141520Y0076053D01*
X0140922Y0076652D02*
X0142528Y0076652D01*
X0142315Y0077250D02*
X0140323Y0077250D01*
X0139725Y0077849D02*
X0142315Y0077849D01*
X0142315Y0078448D02*
X0139715Y0078448D01*
X0139827Y0079046D02*
X0142315Y0079046D01*
X0142229Y0079645D02*
X0140425Y0079645D01*
X0140904Y0080243D02*
X0141630Y0080243D01*
X0141126Y0080842D02*
X0140904Y0080842D01*
X0140904Y0081440D02*
X0141126Y0081440D01*
X0141126Y0082039D02*
X0140904Y0082039D01*
X0141126Y0082637D02*
X0140368Y0082637D01*
X0139770Y0083236D02*
X0141635Y0083236D01*
X0142233Y0083834D02*
X0114184Y0083834D01*
X0113585Y0083236D02*
X0137260Y0083236D01*
X0136661Y0082637D02*
X0112987Y0082637D01*
X0112388Y0082039D02*
X0136126Y0082039D01*
X0136126Y0081440D02*
X0111790Y0081440D01*
X0111191Y0080842D02*
X0136126Y0080842D01*
X0136126Y0080243D02*
X0110593Y0080243D01*
X0109994Y0079645D02*
X0136604Y0079645D01*
X0137202Y0079046D02*
X0109395Y0079046D01*
X0108797Y0078448D02*
X0137315Y0078448D01*
X0137315Y0077849D02*
X0108198Y0077849D01*
X0107600Y0077250D02*
X0137315Y0077250D01*
X0137528Y0076652D02*
X0107154Y0076652D01*
X0107797Y0080842D02*
X0087873Y0080842D01*
X0088404Y0081440D02*
X0108395Y0081440D01*
X0108994Y0082039D02*
X0088404Y0082039D01*
X0088404Y0082637D02*
X0109592Y0082637D01*
X0110191Y0083236D02*
X0088585Y0083236D01*
X0089184Y0083834D02*
X0110790Y0083834D01*
X0111388Y0084433D02*
X0089782Y0084433D01*
X0090381Y0085031D02*
X0111987Y0085031D01*
X0090390Y0086737D02*
X0086015Y0082362D01*
X0084707Y0084433D02*
X0047644Y0084433D01*
X0047045Y0085031D02*
X0086987Y0085031D01*
X0138515Y0081112D02*
X0138515Y0077362D01*
X0145904Y0082039D02*
X0147447Y0082039D01*
X0147447Y0082637D02*
X0145904Y0082637D01*
X0145395Y0083236D02*
X0147447Y0083236D01*
X0147808Y0083834D02*
X0144796Y0083834D01*
X0161944Y0085630D02*
X0165085Y0085630D01*
X0164487Y0085031D02*
X0162543Y0085031D01*
X0163141Y0084433D02*
X0163888Y0084433D01*
X0167146Y0079655D02*
X0167265Y0079537D01*
X0172408Y0079645D02*
X0177048Y0079645D01*
X0179465Y0079645D02*
X0180065Y0079645D01*
X0180065Y0079046D02*
X0179465Y0079046D01*
X0179465Y0078448D02*
X0180065Y0078448D01*
X0180065Y0077849D02*
X0179465Y0077849D01*
X0246015Y0069862D02*
X0246015Y0047362D01*
X0229765Y0042362D02*
X0229765Y0037562D01*
X0269889Y0037150D02*
X0309299Y0037150D01*
X0309090Y0037749D02*
X0270408Y0037749D01*
X0270928Y0038347D02*
X0309090Y0038347D01*
X0309090Y0038946D02*
X0271448Y0038946D01*
X0271968Y0039544D02*
X0309090Y0039544D01*
X0309090Y0040143D02*
X0272794Y0040143D01*
X0273392Y0040741D02*
X0316340Y0040741D01*
X0309090Y0041340D02*
X0273991Y0041340D01*
X0274024Y0041938D02*
X0309090Y0041938D01*
X0309090Y0042537D02*
X0274024Y0042537D01*
X0274024Y0043135D02*
X0309090Y0043135D01*
X0309090Y0043734D02*
X0273641Y0043734D01*
X0273043Y0044332D02*
X0309170Y0044332D01*
X0324190Y0039544D02*
X0332610Y0039544D01*
X0332610Y0038946D02*
X0324190Y0038946D01*
X0324190Y0038347D02*
X0332610Y0038347D01*
X0332610Y0037749D02*
X0324190Y0037749D01*
X0323980Y0037150D02*
X0332610Y0037150D01*
X0325542Y0049120D02*
X0290755Y0049120D01*
X0290335Y0049719D02*
X0324333Y0049719D01*
X0323734Y0050317D02*
X0290335Y0050317D01*
X0290335Y0050916D02*
X0323358Y0050916D01*
X0323110Y0051515D02*
X0290335Y0051515D01*
X0290335Y0052113D02*
X0322982Y0052113D01*
X0322982Y0052712D02*
X0290335Y0052712D01*
X0290335Y0053310D02*
X0323021Y0053310D01*
X0323269Y0053909D02*
X0290335Y0053909D01*
X0290335Y0054507D02*
X0323520Y0054507D01*
X0324118Y0055106D02*
X0290335Y0055106D01*
X0290335Y0055704D02*
X0325024Y0055704D01*
D21*
X0271635Y0042362D02*
X0267465Y0037562D01*
X0229765Y0037562D01*
X0186015Y0037562D01*
X0172265Y0037562D01*
X0141015Y0037562D01*
X0098515Y0037562D01*
X0068515Y0037562D01*
X0060815Y0037562D01*
X0057265Y0041112D01*
X0057265Y0048612D01*
X0053515Y0052362D01*
X0044765Y0052362D01*
X0034765Y0050167D02*
X0027265Y0050167D01*
X0179765Y0070807D02*
X0179765Y0071112D01*
X0191015Y0071112D01*
X0191015Y0076112D02*
X0179765Y0076112D01*
X0179765Y0076417D01*
D22*
X0179765Y0063917D02*
X0179765Y0056112D01*
X0174765Y0051112D01*
X0172265Y0051112D01*
X0034765Y0057057D02*
X0034765Y0061737D01*
X0027265Y0057057D02*
X0027265Y0071112D01*
D23*
X0044765Y0052362D02*
X0043515Y0051112D01*
X0035709Y0051112D01*
X0034765Y0050167D01*
D24*
X0141015Y0042362D02*
X0141015Y0037562D01*
X0172265Y0037562D02*
X0172265Y0051112D01*
M02*
