G75*
%MOIN*%
%OFA0B0*%
%FSLAX25Y25*%
%IPPOS*%
%LPD*%
%AMOC8*
5,1,8,0,0,1.08239X$1,22.5*
%
%ADD10C,0.00000*%
%ADD11R,0.04737X0.13398*%
%ADD12R,0.05131X0.04737*%
%ADD13R,0.04737X0.05131*%
%ADD14R,0.07493X0.02572*%
%ADD15R,0.09068X0.06607*%
%ADD16R,0.08280X0.10150*%
%ADD17R,0.08268X0.04528*%
%ADD18R,0.06000X0.06000*%
%ADD19C,0.06000*%
%ADD20R,0.13300X0.06800*%
%ADD21C,0.03778*%
D10*
X0002265Y0032362D02*
X0002265Y0091417D01*
X0336910Y0091417D01*
X0336910Y0032362D01*
X0002265Y0032362D01*
D11*
X0057156Y0043976D03*
X0074873Y0043976D03*
X0111406Y0043976D03*
X0129123Y0043976D03*
X0154406Y0043976D03*
X0172123Y0043976D03*
X0197406Y0043976D03*
X0215123Y0043976D03*
X0240406Y0043976D03*
X0258123Y0043976D03*
X0283406Y0043976D03*
X0301123Y0043976D03*
X0301123Y0070748D03*
X0283406Y0070748D03*
X0258123Y0070748D03*
X0240406Y0070748D03*
X0215123Y0070748D03*
X0197406Y0070748D03*
X0172123Y0070748D03*
X0154406Y0070748D03*
X0129123Y0070748D03*
X0111406Y0070748D03*
X0074873Y0070748D03*
X0057156Y0070748D03*
D12*
X0104765Y0049459D03*
X0104765Y0042766D03*
X0191015Y0042766D03*
X0191015Y0049459D03*
X0234765Y0049459D03*
X0234765Y0042766D03*
X0276635Y0042766D03*
X0276635Y0049459D03*
D13*
X0148111Y0068612D03*
X0141418Y0068612D03*
D14*
X0021288Y0067480D03*
X0021288Y0064921D03*
X0021288Y0062362D03*
X0021288Y0059803D03*
X0021288Y0057244D03*
D15*
X0019320Y0052520D03*
X0019320Y0072205D03*
D16*
X0010265Y0073976D03*
X0010265Y0050748D03*
D17*
X0010265Y0059311D03*
X0010265Y0065413D03*
D18*
X0044765Y0042362D03*
D19*
X0044765Y0052362D03*
X0044765Y0062362D03*
X0044765Y0072362D03*
X0044765Y0082362D03*
X0326482Y0072205D03*
X0326482Y0062362D03*
X0326482Y0052520D03*
D20*
X0316640Y0040862D03*
X0316640Y0083862D03*
D21*
X0289135Y0069862D03*
X0246015Y0069862D03*
X0202265Y0069862D03*
X0161015Y0073612D03*
X0138515Y0081112D03*
X0143515Y0081737D03*
X0104765Y0076112D03*
X0086015Y0082362D03*
X0027265Y0071112D03*
X0116015Y0066112D03*
X0153515Y0058612D03*
X0159765Y0058612D03*
X0164765Y0057362D03*
X0202265Y0047362D03*
X0186015Y0042362D03*
X0164765Y0042912D03*
X0141015Y0042362D03*
X0116015Y0048612D03*
X0098515Y0042362D03*
X0062265Y0044862D03*
X0229765Y0042362D03*
X0246015Y0047362D03*
X0271635Y0042362D03*
X0289135Y0047362D03*
M02*
