G75*
%MOIN*%
%OFA0B0*%
%FSLAX25Y25*%
%IPPOS*%
%LPD*%
%AMOC8*
5,1,8,0,0,1.08239X$1,22.5*
%
%ADD10C,0.00000*%
%ADD11R,0.03937X0.12598*%
%ADD12R,0.04331X0.03937*%
%ADD13R,0.03937X0.04331*%
%ADD14R,0.06693X0.01772*%
%ADD15R,0.08268X0.05807*%
%ADD16R,0.07480X0.09350*%
%ADD17R,0.05200X0.05200*%
%ADD18C,0.05200*%
%ADD19R,0.12500X0.06000*%
%ADD20C,0.01200*%
%ADD21C,0.00600*%
%ADD22C,0.02978*%
%ADD23C,0.01600*%
D10*
X0002265Y0032362D02*
X0002265Y0091417D01*
X0336910Y0091417D01*
X0336910Y0032362D01*
X0002265Y0032362D01*
D11*
X0057156Y0043976D03*
X0074873Y0043976D03*
X0111406Y0043976D03*
X0129123Y0043976D03*
X0154406Y0043976D03*
X0172123Y0043976D03*
X0197406Y0043976D03*
X0215123Y0043976D03*
X0240406Y0043976D03*
X0258123Y0043976D03*
X0283406Y0043976D03*
X0301123Y0043976D03*
X0301123Y0070748D03*
X0283406Y0070748D03*
X0258123Y0070748D03*
X0240406Y0070748D03*
X0215123Y0070748D03*
X0197406Y0070748D03*
X0172123Y0070748D03*
X0154406Y0070748D03*
X0129123Y0070748D03*
X0111406Y0070748D03*
X0074873Y0070748D03*
X0057156Y0070748D03*
D12*
X0104765Y0049459D03*
X0104765Y0042766D03*
X0191015Y0042766D03*
X0191015Y0049459D03*
X0234765Y0049459D03*
X0234765Y0042766D03*
X0276635Y0042766D03*
X0276635Y0049459D03*
D13*
X0148111Y0068612D03*
X0141418Y0068612D03*
D14*
X0021288Y0067480D03*
X0021288Y0064921D03*
X0021288Y0062362D03*
X0021288Y0059803D03*
X0021288Y0057244D03*
D15*
X0019320Y0052520D03*
X0019320Y0072205D03*
D16*
X0010265Y0073976D03*
X0010265Y0050748D03*
D17*
X0044765Y0042362D03*
D18*
X0044765Y0052362D03*
X0044765Y0062362D03*
X0044765Y0072362D03*
X0044765Y0082362D03*
X0326482Y0072205D03*
X0326482Y0062362D03*
X0326482Y0052520D03*
D19*
X0316640Y0040862D03*
X0316640Y0083862D03*
D20*
X0057156Y0070748D02*
X0057156Y0043976D01*
X0055906Y0041220D01*
X0056015Y0041112D01*
X0034765Y0066112D02*
X0031015Y0062362D01*
X0021288Y0062362D01*
X0021347Y0064862D02*
X0021288Y0064921D01*
X0021347Y0064862D02*
X0029765Y0064862D01*
X0032265Y0067362D01*
X0032265Y0078612D01*
X0036015Y0082362D01*
X0044765Y0082362D01*
X0044765Y0072362D02*
X0037265Y0072362D01*
X0034765Y0069862D01*
X0034765Y0066112D01*
D21*
X0036265Y0065879D02*
X0043063Y0065879D01*
X0042917Y0065818D02*
X0042278Y0065391D01*
X0041735Y0064848D01*
X0041308Y0064209D01*
X0041014Y0063500D01*
X0040865Y0062746D01*
X0040865Y0062662D01*
X0044465Y0062662D01*
X0044465Y0066262D01*
X0044380Y0066262D01*
X0043627Y0066112D01*
X0042917Y0065818D01*
X0042167Y0065280D02*
X0036054Y0065280D01*
X0036265Y0065491D02*
X0036265Y0069241D01*
X0037886Y0070862D01*
X0041598Y0070862D01*
X0041797Y0070380D01*
X0042782Y0069395D01*
X0044068Y0068862D01*
X0045461Y0068862D01*
X0046747Y0069395D01*
X0047732Y0070380D01*
X0048265Y0071666D01*
X0048265Y0073058D01*
X0047732Y0074345D01*
X0046747Y0075329D01*
X0045461Y0075862D01*
X0044068Y0075862D01*
X0042782Y0075329D01*
X0041797Y0074345D01*
X0041598Y0073862D01*
X0036643Y0073862D01*
X0035765Y0072983D01*
X0034143Y0071362D01*
X0033765Y0070983D01*
X0033765Y0077991D01*
X0036636Y0080862D01*
X0041598Y0080862D01*
X0041797Y0080380D01*
X0042782Y0079395D01*
X0044068Y0078862D01*
X0045461Y0078862D01*
X0046747Y0079395D01*
X0047732Y0080380D01*
X0048265Y0081666D01*
X0048265Y0083058D01*
X0047732Y0084345D01*
X0046747Y0085329D01*
X0045461Y0085862D01*
X0044068Y0085862D01*
X0042782Y0085329D01*
X0041797Y0084345D01*
X0041598Y0083862D01*
X0035393Y0083862D01*
X0034515Y0082983D01*
X0030765Y0079233D01*
X0030765Y0067983D01*
X0029143Y0066362D01*
X0027419Y0066362D01*
X0027969Y0066912D01*
X0028965Y0067908D01*
X0028965Y0069434D01*
X0029654Y0070123D01*
X0029654Y0072102D01*
X0028254Y0073501D01*
X0026275Y0073501D01*
X0024876Y0072102D01*
X0024876Y0070123D01*
X0025565Y0069434D01*
X0025565Y0069316D01*
X0025429Y0069180D01*
X0025093Y0069180D01*
X0025007Y0069266D01*
X0024754Y0069266D01*
X0024754Y0071905D01*
X0019620Y0071905D01*
X0019620Y0072505D01*
X0019020Y0072505D01*
X0019020Y0076408D01*
X0015305Y0076408D01*
X0015305Y0078823D01*
X0015216Y0079153D01*
X0015045Y0079450D01*
X0014803Y0079692D01*
X0014506Y0079863D01*
X0014176Y0079952D01*
X0010565Y0079952D01*
X0010565Y0074276D01*
X0009965Y0074276D01*
X0009965Y0079952D01*
X0006565Y0079952D01*
X0006565Y0087117D01*
X0309112Y0087117D01*
X0309090Y0087033D01*
X0309090Y0084162D01*
X0316340Y0084162D01*
X0316340Y0083562D01*
X0316940Y0083562D01*
X0316940Y0084162D01*
X0324190Y0084162D01*
X0324190Y0087033D01*
X0324167Y0087117D01*
X0332610Y0087117D01*
X0332610Y0036662D01*
X0323411Y0036662D01*
X0323688Y0036822D01*
X0323930Y0037064D01*
X0324101Y0037360D01*
X0324190Y0037691D01*
X0324190Y0040562D01*
X0316940Y0040562D01*
X0316940Y0041162D01*
X0324190Y0041162D01*
X0324190Y0044033D01*
X0324101Y0044364D01*
X0323930Y0044660D01*
X0323688Y0044902D01*
X0323391Y0045074D01*
X0323061Y0045162D01*
X0316940Y0045162D01*
X0316940Y0041162D01*
X0316340Y0041162D01*
X0316340Y0045162D01*
X0310218Y0045162D01*
X0309888Y0045074D01*
X0309591Y0044902D01*
X0309349Y0044660D01*
X0309178Y0044364D01*
X0309090Y0044033D01*
X0309090Y0041162D01*
X0316340Y0041162D01*
X0316340Y0040562D01*
X0309090Y0040562D01*
X0309090Y0037691D01*
X0309178Y0037360D01*
X0309349Y0037064D01*
X0309591Y0036822D01*
X0309868Y0036662D01*
X0303915Y0036662D01*
X0304132Y0036879D01*
X0304303Y0037175D01*
X0304391Y0037506D01*
X0304391Y0043676D01*
X0301423Y0043676D01*
X0301423Y0044276D01*
X0304391Y0044276D01*
X0304391Y0050447D01*
X0304303Y0050777D01*
X0304132Y0051074D01*
X0303890Y0051316D01*
X0303593Y0051487D01*
X0303262Y0051576D01*
X0301423Y0051576D01*
X0301423Y0044276D01*
X0300823Y0044276D01*
X0300823Y0043676D01*
X0297854Y0043676D01*
X0297854Y0037506D01*
X0297943Y0037175D01*
X0298114Y0036879D01*
X0298331Y0036662D01*
X0260915Y0036662D01*
X0261132Y0036879D01*
X0261303Y0037175D01*
X0261391Y0037506D01*
X0261391Y0043676D01*
X0258423Y0043676D01*
X0258423Y0044276D01*
X0261391Y0044276D01*
X0261391Y0050447D01*
X0261303Y0050777D01*
X0261132Y0051074D01*
X0260890Y0051316D01*
X0260593Y0051487D01*
X0260262Y0051576D01*
X0258423Y0051576D01*
X0258423Y0044276D01*
X0257823Y0044276D01*
X0257823Y0043676D01*
X0254854Y0043676D01*
X0254854Y0037506D01*
X0254943Y0037175D01*
X0255114Y0036879D01*
X0255331Y0036662D01*
X0217915Y0036662D01*
X0218132Y0036879D01*
X0218303Y0037175D01*
X0218391Y0037506D01*
X0218391Y0043676D01*
X0215423Y0043676D01*
X0215423Y0044276D01*
X0218391Y0044276D01*
X0218391Y0050447D01*
X0218303Y0050777D01*
X0218132Y0051074D01*
X0217890Y0051316D01*
X0217593Y0051487D01*
X0217262Y0051576D01*
X0215423Y0051576D01*
X0215423Y0044276D01*
X0214823Y0044276D01*
X0214823Y0043676D01*
X0211854Y0043676D01*
X0211854Y0037506D01*
X0211943Y0037175D01*
X0212114Y0036879D01*
X0212331Y0036662D01*
X0174915Y0036662D01*
X0175132Y0036879D01*
X0175303Y0037175D01*
X0175391Y0037506D01*
X0175391Y0043676D01*
X0172423Y0043676D01*
X0172423Y0044276D01*
X0175391Y0044276D01*
X0175391Y0050447D01*
X0175303Y0050777D01*
X0175132Y0051074D01*
X0174890Y0051316D01*
X0174593Y0051487D01*
X0174262Y0051576D01*
X0172423Y0051576D01*
X0172423Y0044276D01*
X0171823Y0044276D01*
X0171823Y0043676D01*
X0168854Y0043676D01*
X0168854Y0037506D01*
X0168943Y0037175D01*
X0169114Y0036879D01*
X0169331Y0036662D01*
X0162863Y0036662D01*
X0165207Y0038662D01*
X0165262Y0038662D01*
X0165580Y0038980D01*
X0165922Y0039272D01*
X0165926Y0039326D01*
X0165965Y0039365D01*
X0165965Y0039815D01*
X0166000Y0040263D01*
X0165965Y0040305D01*
X0165965Y0040734D01*
X0167154Y0041923D01*
X0167154Y0043902D01*
X0165754Y0045301D01*
X0163775Y0045301D01*
X0162376Y0043902D01*
X0162376Y0041923D01*
X0163565Y0040734D01*
X0163565Y0040416D01*
X0160572Y0037862D01*
X0157275Y0037862D01*
X0157275Y0050648D01*
X0156748Y0051176D01*
X0152065Y0051176D01*
X0151538Y0050648D01*
X0151538Y0037862D01*
X0132391Y0037862D01*
X0132391Y0043676D01*
X0129423Y0043676D01*
X0129423Y0044276D01*
X0132391Y0044276D01*
X0132391Y0050447D01*
X0132303Y0050777D01*
X0132132Y0051074D01*
X0131890Y0051316D01*
X0131593Y0051487D01*
X0131262Y0051576D01*
X0129423Y0051576D01*
X0129423Y0044276D01*
X0128823Y0044276D01*
X0128823Y0043676D01*
X0125854Y0043676D01*
X0125854Y0037862D01*
X0114275Y0037862D01*
X0114275Y0046973D01*
X0115025Y0046223D01*
X0117004Y0046223D01*
X0118404Y0047623D01*
X0118404Y0049602D01*
X0117004Y0051001D01*
X0115025Y0051001D01*
X0114275Y0050251D01*
X0114275Y0050648D01*
X0113748Y0051176D01*
X0109065Y0051176D01*
X0108538Y0050648D01*
X0108538Y0049812D01*
X0107830Y0049812D01*
X0107830Y0051800D01*
X0107303Y0052327D01*
X0102226Y0052327D01*
X0101699Y0051800D01*
X0101699Y0047117D01*
X0102226Y0046590D01*
X0107303Y0046590D01*
X0107830Y0047117D01*
X0107830Y0047412D01*
X0108538Y0047412D01*
X0108538Y0037862D01*
X0078141Y0037862D01*
X0078141Y0043676D01*
X0075173Y0043676D01*
X0075173Y0044276D01*
X0078141Y0044276D01*
X0078141Y0050447D01*
X0078053Y0050777D01*
X0077882Y0051074D01*
X0077640Y0051316D01*
X0077343Y0051487D01*
X0077012Y0051576D01*
X0075173Y0051576D01*
X0075173Y0044276D01*
X0074573Y0044276D01*
X0074573Y0043676D01*
X0071604Y0043676D01*
X0071604Y0037862D01*
X0060025Y0037862D01*
X0060025Y0043662D01*
X0060086Y0043662D01*
X0061275Y0042473D01*
X0063254Y0042473D01*
X0064654Y0043873D01*
X0064654Y0045852D01*
X0063254Y0047251D01*
X0061275Y0047251D01*
X0060086Y0046062D01*
X0060025Y0046062D01*
X0060025Y0050648D01*
X0059498Y0051176D01*
X0058656Y0051176D01*
X0058656Y0063549D01*
X0059498Y0063549D01*
X0060025Y0064076D01*
X0060025Y0077420D01*
X0059498Y0077947D01*
X0058465Y0077947D01*
X0058465Y0079365D01*
X0060262Y0081162D01*
X0083836Y0081162D01*
X0085025Y0079973D01*
X0087004Y0079973D01*
X0088404Y0081373D01*
X0088404Y0083352D01*
X0087004Y0084751D01*
X0085025Y0084751D01*
X0083836Y0083562D01*
X0059268Y0083562D01*
X0058565Y0082859D01*
X0056768Y0081062D01*
X0056065Y0080359D01*
X0056065Y0077947D01*
X0054815Y0077947D01*
X0054288Y0077420D01*
X0054288Y0064076D01*
X0054815Y0063549D01*
X0055656Y0063549D01*
X0055656Y0051176D01*
X0054815Y0051176D01*
X0054288Y0050648D01*
X0054288Y0041283D01*
X0054284Y0041274D01*
X0054288Y0041263D01*
X0054288Y0038286D01*
X0049012Y0043562D01*
X0048265Y0043562D01*
X0048265Y0045335D01*
X0047737Y0045862D01*
X0041792Y0045862D01*
X0041265Y0045335D01*
X0041265Y0039389D01*
X0041792Y0038862D01*
X0047737Y0038862D01*
X0048265Y0039389D01*
X0048265Y0040915D01*
X0052518Y0036662D01*
X0006565Y0036662D01*
X0006565Y0044773D01*
X0009965Y0044773D01*
X0009965Y0050448D01*
X0010565Y0050448D01*
X0010565Y0044773D01*
X0014176Y0044773D01*
X0014506Y0044861D01*
X0014803Y0045033D01*
X0015045Y0045275D01*
X0015216Y0045571D01*
X0015305Y0045902D01*
X0015305Y0048316D01*
X0019020Y0048316D01*
X0019020Y0052220D01*
X0019620Y0052220D01*
X0019620Y0052820D01*
X0024754Y0052820D01*
X0024754Y0055058D01*
X0024806Y0055058D01*
X0025136Y0055147D01*
X0025433Y0055318D01*
X0025675Y0055560D01*
X0025846Y0055856D01*
X0025935Y0056187D01*
X0025935Y0057101D01*
X0021431Y0057101D01*
X0021431Y0057387D01*
X0025935Y0057387D01*
X0025935Y0058301D01*
X0025846Y0058632D01*
X0025675Y0058928D01*
X0025535Y0059068D01*
X0025535Y0060862D01*
X0031636Y0060862D01*
X0035386Y0064612D01*
X0036265Y0065491D01*
X0036265Y0066477D02*
X0054288Y0066477D01*
X0054288Y0065879D02*
X0046466Y0065879D01*
X0046612Y0065818D02*
X0045902Y0066112D01*
X0045149Y0066262D01*
X0045065Y0066262D01*
X0045065Y0062662D01*
X0048665Y0062662D01*
X0048665Y0062746D01*
X0048515Y0063500D01*
X0048221Y0064209D01*
X0047794Y0064848D01*
X0047251Y0065391D01*
X0046612Y0065818D01*
X0047362Y0065280D02*
X0054288Y0065280D01*
X0054288Y0064682D02*
X0047905Y0064682D01*
X0048273Y0064083D02*
X0054288Y0064083D01*
X0055656Y0063485D02*
X0048518Y0063485D01*
X0048637Y0062886D02*
X0055656Y0062886D01*
X0055656Y0062288D02*
X0045065Y0062288D01*
X0045065Y0062062D02*
X0045065Y0062662D01*
X0044465Y0062662D01*
X0044465Y0062062D01*
X0045065Y0062062D01*
X0048665Y0062062D01*
X0048665Y0061978D01*
X0048515Y0061225D01*
X0048221Y0060515D01*
X0047794Y0059876D01*
X0047251Y0059333D01*
X0046612Y0058906D01*
X0045902Y0058612D01*
X0045149Y0058462D01*
X0045065Y0058462D01*
X0045065Y0062062D01*
X0045065Y0061689D02*
X0044465Y0061689D01*
X0044465Y0062062D02*
X0044465Y0058462D01*
X0044380Y0058462D01*
X0043627Y0058612D01*
X0042917Y0058906D01*
X0042278Y0059333D01*
X0041735Y0059876D01*
X0041308Y0060515D01*
X0041014Y0061225D01*
X0040865Y0061978D01*
X0040865Y0062062D01*
X0044465Y0062062D01*
X0044465Y0062288D02*
X0033061Y0062288D01*
X0032463Y0061689D02*
X0040922Y0061689D01*
X0041070Y0061091D02*
X0031864Y0061091D01*
X0025535Y0060492D02*
X0041324Y0060492D01*
X0041723Y0059894D02*
X0025535Y0059894D01*
X0025535Y0059295D02*
X0042335Y0059295D01*
X0043423Y0058697D02*
X0025809Y0058697D01*
X0025935Y0058098D02*
X0055656Y0058098D01*
X0055656Y0057500D02*
X0025935Y0057500D01*
X0025935Y0056901D02*
X0055656Y0056901D01*
X0055656Y0056303D02*
X0025935Y0056303D01*
X0025758Y0055704D02*
X0043687Y0055704D01*
X0044068Y0055862D02*
X0042782Y0055329D01*
X0041797Y0054345D01*
X0041265Y0053058D01*
X0041265Y0051666D01*
X0041797Y0050380D01*
X0042782Y0049395D01*
X0044068Y0048862D01*
X0045461Y0048862D01*
X0046747Y0049395D01*
X0047732Y0050380D01*
X0048265Y0051666D01*
X0048265Y0053058D01*
X0047732Y0054345D01*
X0046747Y0055329D01*
X0045461Y0055862D01*
X0044068Y0055862D01*
X0042558Y0055106D02*
X0024983Y0055106D01*
X0024754Y0054507D02*
X0041960Y0054507D01*
X0041617Y0053909D02*
X0024754Y0053909D01*
X0024754Y0053310D02*
X0041369Y0053310D01*
X0041265Y0052712D02*
X0019620Y0052712D01*
X0019620Y0052220D02*
X0024754Y0052220D01*
X0024754Y0049445D01*
X0024665Y0049114D01*
X0024494Y0048818D01*
X0024252Y0048576D01*
X0023955Y0048405D01*
X0023625Y0048316D01*
X0019620Y0048316D01*
X0019620Y0052220D01*
X0019620Y0052113D02*
X0019020Y0052113D01*
X0019020Y0051515D02*
X0019620Y0051515D01*
X0019620Y0050916D02*
X0019020Y0050916D01*
X0019020Y0050317D02*
X0019620Y0050317D01*
X0019620Y0049719D02*
X0019020Y0049719D01*
X0019020Y0049120D02*
X0019620Y0049120D01*
X0019620Y0048522D02*
X0019020Y0048522D01*
X0015305Y0047923D02*
X0054288Y0047923D01*
X0054288Y0047325D02*
X0015305Y0047325D01*
X0015305Y0046726D02*
X0054288Y0046726D01*
X0054288Y0046128D02*
X0015305Y0046128D01*
X0015192Y0045529D02*
X0041459Y0045529D01*
X0041265Y0044931D02*
X0014627Y0044931D01*
X0010565Y0044931D02*
X0009965Y0044931D01*
X0009965Y0045529D02*
X0010565Y0045529D01*
X0010565Y0046128D02*
X0009965Y0046128D01*
X0009965Y0046726D02*
X0010565Y0046726D01*
X0010565Y0047325D02*
X0009965Y0047325D01*
X0009965Y0047923D02*
X0010565Y0047923D01*
X0010565Y0048522D02*
X0009965Y0048522D01*
X0009965Y0049120D02*
X0010565Y0049120D01*
X0010565Y0049719D02*
X0009965Y0049719D01*
X0009965Y0050317D02*
X0010565Y0050317D01*
X0010565Y0051048D02*
X0009965Y0051048D01*
X0009965Y0056723D01*
X0006565Y0056723D01*
X0006565Y0068001D01*
X0009965Y0068001D01*
X0009965Y0073676D01*
X0010565Y0073676D01*
X0010565Y0068001D01*
X0014176Y0068001D01*
X0014506Y0068090D01*
X0014595Y0068141D01*
X0014684Y0068090D01*
X0014689Y0068088D01*
X0014689Y0056636D01*
X0014684Y0056635D01*
X0014595Y0056583D01*
X0014506Y0056635D01*
X0014176Y0056723D01*
X0010565Y0056723D01*
X0010565Y0051048D01*
X0010565Y0051515D02*
X0009965Y0051515D01*
X0009965Y0052113D02*
X0010565Y0052113D01*
X0010565Y0052712D02*
X0009965Y0052712D01*
X0009965Y0053310D02*
X0010565Y0053310D01*
X0010565Y0053909D02*
X0009965Y0053909D01*
X0009965Y0054507D02*
X0010565Y0054507D01*
X0010565Y0055106D02*
X0009965Y0055106D01*
X0009965Y0055704D02*
X0010565Y0055704D01*
X0010565Y0056303D02*
X0009965Y0056303D01*
X0006565Y0056901D02*
X0014689Y0056901D01*
X0014689Y0057500D02*
X0006565Y0057500D01*
X0006565Y0058098D02*
X0014689Y0058098D01*
X0014689Y0058697D02*
X0006565Y0058697D01*
X0006565Y0059295D02*
X0014689Y0059295D01*
X0014689Y0059894D02*
X0006565Y0059894D01*
X0006565Y0060492D02*
X0014689Y0060492D01*
X0014689Y0061091D02*
X0006565Y0061091D01*
X0006565Y0061689D02*
X0014689Y0061689D01*
X0014689Y0062288D02*
X0006565Y0062288D01*
X0006565Y0062886D02*
X0014689Y0062886D01*
X0014689Y0063485D02*
X0006565Y0063485D01*
X0006565Y0064083D02*
X0014689Y0064083D01*
X0014689Y0064682D02*
X0006565Y0064682D01*
X0006565Y0065280D02*
X0014689Y0065280D01*
X0014689Y0065879D02*
X0006565Y0065879D01*
X0006565Y0066477D02*
X0014689Y0066477D01*
X0014689Y0067076D02*
X0006565Y0067076D01*
X0006565Y0067674D02*
X0014689Y0067674D01*
X0010565Y0068273D02*
X0009965Y0068273D01*
X0009965Y0068871D02*
X0010565Y0068871D01*
X0010565Y0069470D02*
X0009965Y0069470D01*
X0009965Y0070068D02*
X0010565Y0070068D01*
X0010565Y0070667D02*
X0009965Y0070667D01*
X0009965Y0071265D02*
X0010565Y0071265D01*
X0010565Y0071864D02*
X0009965Y0071864D01*
X0009965Y0072462D02*
X0010565Y0072462D01*
X0010565Y0073061D02*
X0009965Y0073061D01*
X0009965Y0073659D02*
X0010565Y0073659D01*
X0010565Y0074856D02*
X0009965Y0074856D01*
X0009965Y0075455D02*
X0010565Y0075455D01*
X0010565Y0076053D02*
X0009965Y0076053D01*
X0009965Y0076652D02*
X0010565Y0076652D01*
X0010565Y0077250D02*
X0009965Y0077250D01*
X0009965Y0077849D02*
X0010565Y0077849D01*
X0010565Y0078448D02*
X0009965Y0078448D01*
X0009965Y0079046D02*
X0010565Y0079046D01*
X0010565Y0079645D02*
X0009965Y0079645D01*
X0006565Y0080243D02*
X0031774Y0080243D01*
X0031176Y0079645D02*
X0014850Y0079645D01*
X0015245Y0079046D02*
X0030765Y0079046D01*
X0030765Y0078448D02*
X0015305Y0078448D01*
X0015305Y0077849D02*
X0030765Y0077849D01*
X0030765Y0077250D02*
X0015305Y0077250D01*
X0015305Y0076652D02*
X0030765Y0076652D01*
X0030765Y0076053D02*
X0024347Y0076053D01*
X0024252Y0076148D02*
X0023955Y0076320D01*
X0023625Y0076408D01*
X0019620Y0076408D01*
X0019620Y0072505D01*
X0024754Y0072505D01*
X0024754Y0075279D01*
X0024665Y0075610D01*
X0024494Y0075906D01*
X0024252Y0076148D01*
X0024706Y0075455D02*
X0030765Y0075455D01*
X0030765Y0074856D02*
X0024754Y0074856D01*
X0024754Y0074258D02*
X0030765Y0074258D01*
X0030765Y0073659D02*
X0024754Y0073659D01*
X0024754Y0073061D02*
X0025835Y0073061D01*
X0025236Y0072462D02*
X0019620Y0072462D01*
X0019620Y0073061D02*
X0019020Y0073061D01*
X0019020Y0073659D02*
X0019620Y0073659D01*
X0019620Y0074258D02*
X0019020Y0074258D01*
X0019020Y0074856D02*
X0019620Y0074856D01*
X0019620Y0075455D02*
X0019020Y0075455D01*
X0019020Y0076053D02*
X0019620Y0076053D01*
X0028694Y0073061D02*
X0030765Y0073061D01*
X0030765Y0072462D02*
X0029293Y0072462D01*
X0029654Y0071864D02*
X0030765Y0071864D01*
X0030765Y0071265D02*
X0029654Y0071265D01*
X0029654Y0070667D02*
X0030765Y0070667D01*
X0030765Y0070068D02*
X0029599Y0070068D01*
X0029001Y0069470D02*
X0030765Y0069470D01*
X0030765Y0068871D02*
X0028965Y0068871D01*
X0028965Y0068273D02*
X0030765Y0068273D01*
X0030455Y0067674D02*
X0028731Y0067674D01*
X0028132Y0067076D02*
X0029857Y0067076D01*
X0029258Y0066477D02*
X0027534Y0066477D01*
X0034857Y0064083D02*
X0041256Y0064083D01*
X0041011Y0063485D02*
X0034258Y0063485D01*
X0033660Y0062886D02*
X0040892Y0062886D01*
X0041624Y0064682D02*
X0035455Y0064682D01*
X0044465Y0064682D02*
X0045065Y0064682D01*
X0045065Y0065280D02*
X0044465Y0065280D01*
X0044465Y0065879D02*
X0045065Y0065879D01*
X0045065Y0064083D02*
X0044465Y0064083D01*
X0044465Y0063485D02*
X0045065Y0063485D01*
X0045065Y0062886D02*
X0044465Y0062886D01*
X0044465Y0061091D02*
X0045065Y0061091D01*
X0045065Y0060492D02*
X0044465Y0060492D01*
X0044465Y0059894D02*
X0045065Y0059894D01*
X0045065Y0059295D02*
X0044465Y0059295D01*
X0044465Y0058697D02*
X0045065Y0058697D01*
X0046106Y0058697D02*
X0055656Y0058697D01*
X0055656Y0059295D02*
X0047194Y0059295D01*
X0047806Y0059894D02*
X0055656Y0059894D01*
X0055656Y0060492D02*
X0048206Y0060492D01*
X0048459Y0061091D02*
X0055656Y0061091D01*
X0055656Y0061689D02*
X0048607Y0061689D01*
X0058656Y0061689D02*
X0139815Y0061689D01*
X0139815Y0061091D02*
X0058656Y0061091D01*
X0058656Y0060492D02*
X0139815Y0060492D01*
X0139815Y0059894D02*
X0058656Y0059894D01*
X0058656Y0059295D02*
X0139815Y0059295D01*
X0139815Y0058697D02*
X0058656Y0058697D01*
X0058656Y0058098D02*
X0139815Y0058098D01*
X0139815Y0057500D02*
X0058656Y0057500D01*
X0058656Y0056901D02*
X0139815Y0056901D01*
X0139815Y0056303D02*
X0058656Y0056303D01*
X0058656Y0055704D02*
X0139815Y0055704D01*
X0139815Y0055106D02*
X0058656Y0055106D01*
X0058656Y0054507D02*
X0139815Y0054507D01*
X0139815Y0053909D02*
X0058656Y0053909D01*
X0058656Y0053310D02*
X0139815Y0053310D01*
X0139815Y0052712D02*
X0058656Y0052712D01*
X0058656Y0052113D02*
X0102012Y0052113D01*
X0101699Y0051515D02*
X0077240Y0051515D01*
X0077973Y0050916D02*
X0101699Y0050916D01*
X0101699Y0050317D02*
X0078141Y0050317D01*
X0078141Y0049719D02*
X0101699Y0049719D01*
X0101699Y0049120D02*
X0078141Y0049120D01*
X0078141Y0048522D02*
X0101699Y0048522D01*
X0101699Y0047923D02*
X0078141Y0047923D01*
X0078141Y0047325D02*
X0101699Y0047325D01*
X0102090Y0046726D02*
X0078141Y0046726D01*
X0078141Y0046128D02*
X0108538Y0046128D01*
X0108538Y0046726D02*
X0107439Y0046726D01*
X0107830Y0047325D02*
X0108538Y0047325D01*
X0111015Y0048612D02*
X0105611Y0048612D01*
X0104765Y0049459D01*
X0107830Y0050317D02*
X0108538Y0050317D01*
X0108805Y0050916D02*
X0107830Y0050916D01*
X0107830Y0051515D02*
X0126755Y0051515D01*
X0126653Y0051487D02*
X0126356Y0051316D01*
X0126114Y0051074D01*
X0125943Y0050777D01*
X0125854Y0050447D01*
X0125854Y0044276D01*
X0128823Y0044276D01*
X0128823Y0051576D01*
X0126983Y0051576D01*
X0126653Y0051487D01*
X0126023Y0050916D02*
X0117089Y0050916D01*
X0117688Y0050317D02*
X0125854Y0050317D01*
X0125854Y0049719D02*
X0118286Y0049719D01*
X0118404Y0049120D02*
X0125854Y0049120D01*
X0125854Y0048522D02*
X0118404Y0048522D01*
X0118404Y0047923D02*
X0125854Y0047923D01*
X0125854Y0047325D02*
X0118106Y0047325D01*
X0117507Y0046726D02*
X0125854Y0046726D01*
X0125854Y0046128D02*
X0114275Y0046128D01*
X0114275Y0046726D02*
X0114522Y0046726D01*
X0114275Y0045529D02*
X0125854Y0045529D01*
X0125854Y0044931D02*
X0114275Y0044931D01*
X0114275Y0044332D02*
X0125854Y0044332D01*
X0125854Y0043135D02*
X0114275Y0043135D01*
X0114275Y0042537D02*
X0125854Y0042537D01*
X0125854Y0041938D02*
X0114275Y0041938D01*
X0114275Y0041340D02*
X0125854Y0041340D01*
X0125854Y0040741D02*
X0114275Y0040741D01*
X0114275Y0040143D02*
X0125854Y0040143D01*
X0125854Y0039544D02*
X0114275Y0039544D01*
X0114275Y0038946D02*
X0125854Y0038946D01*
X0125854Y0038347D02*
X0114275Y0038347D01*
X0108538Y0038347D02*
X0078141Y0038347D01*
X0078141Y0038946D02*
X0108538Y0038946D01*
X0108538Y0039544D02*
X0078141Y0039544D01*
X0078141Y0040143D02*
X0097355Y0040143D01*
X0097525Y0039973D02*
X0099504Y0039973D01*
X0100693Y0041162D01*
X0101699Y0041162D01*
X0101699Y0040424D01*
X0102226Y0039897D01*
X0107303Y0039897D01*
X0107830Y0040424D01*
X0107830Y0045107D01*
X0107303Y0045634D01*
X0102226Y0045634D01*
X0101699Y0045107D01*
X0101699Y0043562D01*
X0100693Y0043562D01*
X0099504Y0044751D01*
X0097525Y0044751D01*
X0096126Y0043352D01*
X0096126Y0041373D01*
X0097525Y0039973D01*
X0096757Y0040741D02*
X0078141Y0040741D01*
X0078141Y0041340D02*
X0096158Y0041340D01*
X0096126Y0041938D02*
X0078141Y0041938D01*
X0078141Y0042537D02*
X0096126Y0042537D01*
X0096126Y0043135D02*
X0078141Y0043135D01*
X0078141Y0044332D02*
X0097106Y0044332D01*
X0096508Y0043734D02*
X0075173Y0043734D01*
X0075173Y0044332D02*
X0074573Y0044332D01*
X0074573Y0044276D02*
X0074573Y0051576D01*
X0072733Y0051576D01*
X0072403Y0051487D01*
X0072106Y0051316D01*
X0071864Y0051074D01*
X0071693Y0050777D01*
X0071604Y0050447D01*
X0071604Y0044276D01*
X0074573Y0044276D01*
X0074573Y0043734D02*
X0064515Y0043734D01*
X0064654Y0044332D02*
X0071604Y0044332D01*
X0071604Y0044931D02*
X0064654Y0044931D01*
X0064654Y0045529D02*
X0071604Y0045529D01*
X0071604Y0046128D02*
X0064377Y0046128D01*
X0063779Y0046726D02*
X0071604Y0046726D01*
X0071604Y0047325D02*
X0060025Y0047325D01*
X0060025Y0047923D02*
X0071604Y0047923D01*
X0071604Y0048522D02*
X0060025Y0048522D01*
X0060025Y0049120D02*
X0071604Y0049120D01*
X0071604Y0049719D02*
X0060025Y0049719D01*
X0060025Y0050317D02*
X0071604Y0050317D01*
X0071773Y0050916D02*
X0059757Y0050916D01*
X0058656Y0051515D02*
X0072505Y0051515D01*
X0074573Y0051515D02*
X0075173Y0051515D01*
X0075173Y0050916D02*
X0074573Y0050916D01*
X0074573Y0050317D02*
X0075173Y0050317D01*
X0075173Y0049719D02*
X0074573Y0049719D01*
X0074573Y0049120D02*
X0075173Y0049120D01*
X0075173Y0048522D02*
X0074573Y0048522D01*
X0074573Y0047923D02*
X0075173Y0047923D01*
X0075173Y0047325D02*
X0074573Y0047325D01*
X0074573Y0046726D02*
X0075173Y0046726D01*
X0075173Y0046128D02*
X0074573Y0046128D01*
X0074573Y0045529D02*
X0075173Y0045529D01*
X0075173Y0044931D02*
X0074573Y0044931D01*
X0078141Y0044931D02*
X0101699Y0044931D01*
X0101699Y0044332D02*
X0099923Y0044332D01*
X0100521Y0043734D02*
X0101699Y0043734D01*
X0104361Y0042362D02*
X0104765Y0042766D01*
X0104361Y0042362D02*
X0098515Y0042362D01*
X0100272Y0040741D02*
X0101699Y0040741D01*
X0101981Y0040143D02*
X0099674Y0040143D01*
X0107548Y0040143D02*
X0108538Y0040143D01*
X0108538Y0040741D02*
X0107830Y0040741D01*
X0107830Y0041340D02*
X0108538Y0041340D01*
X0108538Y0041938D02*
X0107830Y0041938D01*
X0107830Y0042537D02*
X0108538Y0042537D01*
X0108538Y0043135D02*
X0107830Y0043135D01*
X0107830Y0043734D02*
X0108538Y0043734D01*
X0108538Y0044332D02*
X0107830Y0044332D01*
X0107830Y0044931D02*
X0108538Y0044931D01*
X0108538Y0045529D02*
X0107407Y0045529D01*
X0102122Y0045529D02*
X0078141Y0045529D01*
X0071604Y0043135D02*
X0063916Y0043135D01*
X0063318Y0042537D02*
X0071604Y0042537D01*
X0071604Y0041938D02*
X0060025Y0041938D01*
X0060025Y0041340D02*
X0071604Y0041340D01*
X0071604Y0040741D02*
X0060025Y0040741D01*
X0060025Y0040143D02*
X0071604Y0040143D01*
X0071604Y0039544D02*
X0060025Y0039544D01*
X0060025Y0038946D02*
X0071604Y0038946D01*
X0071604Y0038347D02*
X0060025Y0038347D01*
X0054288Y0038347D02*
X0054226Y0038347D01*
X0054288Y0038946D02*
X0053628Y0038946D01*
X0053029Y0039544D02*
X0054288Y0039544D01*
X0054288Y0040143D02*
X0052431Y0040143D01*
X0051832Y0040741D02*
X0054288Y0040741D01*
X0054288Y0041340D02*
X0051234Y0041340D01*
X0050635Y0041938D02*
X0054288Y0041938D01*
X0054288Y0042537D02*
X0050037Y0042537D01*
X0049438Y0043135D02*
X0054288Y0043135D01*
X0054288Y0043734D02*
X0048265Y0043734D01*
X0048265Y0044332D02*
X0054288Y0044332D01*
X0054288Y0044931D02*
X0048265Y0044931D01*
X0048070Y0045529D02*
X0054288Y0045529D01*
X0057156Y0043976D02*
X0058042Y0044862D01*
X0062265Y0044862D01*
X0060152Y0046128D02*
X0060025Y0046128D01*
X0060025Y0046726D02*
X0060750Y0046726D01*
X0054288Y0048522D02*
X0024158Y0048522D01*
X0024667Y0049120D02*
X0043445Y0049120D01*
X0042458Y0049719D02*
X0024754Y0049719D01*
X0024754Y0050317D02*
X0041859Y0050317D01*
X0041575Y0050916D02*
X0024754Y0050916D01*
X0024754Y0051515D02*
X0041327Y0051515D01*
X0041265Y0052113D02*
X0024754Y0052113D01*
X0045842Y0055704D02*
X0055656Y0055704D01*
X0055656Y0055106D02*
X0046971Y0055106D01*
X0047569Y0054507D02*
X0055656Y0054507D01*
X0055656Y0053909D02*
X0047912Y0053909D01*
X0048160Y0053310D02*
X0055656Y0053310D01*
X0055656Y0052712D02*
X0048265Y0052712D01*
X0048265Y0052113D02*
X0055656Y0052113D01*
X0055656Y0051515D02*
X0048202Y0051515D01*
X0047954Y0050916D02*
X0054555Y0050916D01*
X0054288Y0050317D02*
X0047670Y0050317D01*
X0047071Y0049719D02*
X0054288Y0049719D01*
X0054288Y0049120D02*
X0046084Y0049120D01*
X0041265Y0044332D02*
X0006565Y0044332D01*
X0006565Y0043734D02*
X0041265Y0043734D01*
X0041265Y0043135D02*
X0006565Y0043135D01*
X0006565Y0042537D02*
X0041265Y0042537D01*
X0041265Y0041938D02*
X0006565Y0041938D01*
X0006565Y0041340D02*
X0041265Y0041340D01*
X0041265Y0040741D02*
X0006565Y0040741D01*
X0006565Y0040143D02*
X0041265Y0040143D01*
X0041265Y0039544D02*
X0006565Y0039544D01*
X0006565Y0038946D02*
X0041708Y0038946D01*
X0047821Y0038946D02*
X0050234Y0038946D01*
X0049635Y0039544D02*
X0048265Y0039544D01*
X0048265Y0040143D02*
X0049037Y0040143D01*
X0048438Y0040741D02*
X0048265Y0040741D01*
X0048515Y0042362D02*
X0044765Y0042362D01*
X0048515Y0042362D02*
X0054215Y0036662D01*
X0161015Y0036662D01*
X0164765Y0039862D01*
X0164765Y0042912D01*
X0167154Y0043135D02*
X0168854Y0043135D01*
X0168854Y0042537D02*
X0167154Y0042537D01*
X0167154Y0041938D02*
X0168854Y0041938D01*
X0168854Y0041340D02*
X0166571Y0041340D01*
X0165972Y0040741D02*
X0168854Y0040741D01*
X0168854Y0040143D02*
X0165991Y0040143D01*
X0165965Y0039544D02*
X0168854Y0039544D01*
X0168854Y0038946D02*
X0165545Y0038946D01*
X0164838Y0038347D02*
X0168854Y0038347D01*
X0168854Y0037749D02*
X0164137Y0037749D01*
X0163435Y0037150D02*
X0168957Y0037150D01*
X0175288Y0037150D02*
X0194692Y0037150D01*
X0194538Y0037304D02*
X0195065Y0036777D01*
X0199748Y0036777D01*
X0200275Y0037304D01*
X0200275Y0045973D01*
X0201275Y0044973D01*
X0203254Y0044973D01*
X0204654Y0046373D01*
X0204654Y0048352D01*
X0203254Y0049751D01*
X0201275Y0049751D01*
X0200275Y0048751D01*
X0200275Y0050648D01*
X0199748Y0051176D01*
X0195065Y0051176D01*
X0194548Y0050659D01*
X0194080Y0050659D01*
X0194080Y0051800D01*
X0193553Y0052327D01*
X0192215Y0052327D01*
X0192215Y0054109D01*
X0188465Y0057859D01*
X0187762Y0058562D01*
X0166943Y0058562D01*
X0166843Y0058662D01*
X0229268Y0058662D01*
X0233565Y0054365D01*
X0233565Y0052327D01*
X0232226Y0052327D01*
X0231699Y0051800D01*
X0231699Y0047117D01*
X0232226Y0046590D01*
X0237303Y0046590D01*
X0237538Y0046825D01*
X0237538Y0045399D01*
X0237303Y0045634D01*
X0232226Y0045634D01*
X0231699Y0045107D01*
X0231699Y0043806D01*
X0230754Y0044751D01*
X0228775Y0044751D01*
X0227376Y0043352D01*
X0227376Y0041373D01*
X0228775Y0039973D01*
X0230754Y0039973D01*
X0231699Y0040918D01*
X0231699Y0040424D01*
X0232226Y0039897D01*
X0237303Y0039897D01*
X0237538Y0040132D01*
X0237538Y0037304D01*
X0238065Y0036777D01*
X0242748Y0036777D01*
X0243275Y0037304D01*
X0243275Y0046162D01*
X0243836Y0046162D01*
X0245025Y0044973D01*
X0247004Y0044973D01*
X0248404Y0046373D01*
X0248404Y0048352D01*
X0247004Y0049751D01*
X0245025Y0049751D01*
X0243836Y0048562D01*
X0243275Y0048562D01*
X0243275Y0050648D01*
X0242748Y0051176D01*
X0238065Y0051176D01*
X0237830Y0050940D01*
X0237830Y0051800D01*
X0237303Y0052327D01*
X0235965Y0052327D01*
X0235965Y0055359D01*
X0231412Y0059912D01*
X0265094Y0059912D01*
X0273569Y0050953D01*
X0273569Y0047117D01*
X0274096Y0046590D01*
X0279173Y0046590D01*
X0279700Y0047117D01*
X0279700Y0048259D01*
X0280538Y0048259D01*
X0280538Y0037304D01*
X0281065Y0036777D01*
X0285748Y0036777D01*
X0286275Y0037304D01*
X0286275Y0046162D01*
X0286956Y0046162D01*
X0288145Y0044973D01*
X0290124Y0044973D01*
X0291524Y0046373D01*
X0291524Y0048352D01*
X0290124Y0049751D01*
X0288145Y0049751D01*
X0286956Y0048562D01*
X0286275Y0048562D01*
X0286275Y0050648D01*
X0285748Y0051176D01*
X0281065Y0051176D01*
X0280548Y0050659D01*
X0279700Y0050659D01*
X0279700Y0051800D01*
X0279173Y0052327D01*
X0275573Y0052327D01*
X0266811Y0061590D01*
X0266811Y0061609D01*
X0266471Y0061949D01*
X0266141Y0062298D01*
X0266122Y0062298D01*
X0266108Y0062312D01*
X0265628Y0062312D01*
X0265147Y0062325D01*
X0265133Y0062312D01*
X0155518Y0062312D01*
X0154206Y0061001D01*
X0152525Y0061001D01*
X0151126Y0059602D01*
X0151126Y0057623D01*
X0152525Y0056223D01*
X0154504Y0056223D01*
X0155904Y0057623D01*
X0155904Y0059304D01*
X0156512Y0059912D01*
X0157686Y0059912D01*
X0157376Y0059602D01*
X0157376Y0057623D01*
X0158775Y0056223D01*
X0160754Y0056223D01*
X0161943Y0057412D01*
X0162376Y0057412D01*
X0162376Y0056373D01*
X0163775Y0054973D01*
X0165754Y0054973D01*
X0166943Y0056162D01*
X0186768Y0056162D01*
X0189815Y0053115D01*
X0189815Y0052327D01*
X0188476Y0052327D01*
X0187949Y0051800D01*
X0187949Y0047117D01*
X0188476Y0046590D01*
X0193553Y0046590D01*
X0194080Y0047117D01*
X0194080Y0048259D01*
X0194538Y0048259D01*
X0194538Y0037304D01*
X0194538Y0037749D02*
X0175391Y0037749D01*
X0175391Y0038347D02*
X0194538Y0038347D01*
X0194538Y0038946D02*
X0175391Y0038946D01*
X0175391Y0039544D02*
X0194538Y0039544D01*
X0194538Y0040143D02*
X0193798Y0040143D01*
X0193553Y0039897D02*
X0194080Y0040424D01*
X0194080Y0045107D01*
X0193553Y0045634D01*
X0188476Y0045634D01*
X0187949Y0045107D01*
X0187949Y0043806D01*
X0187004Y0044751D01*
X0185025Y0044751D01*
X0183626Y0043352D01*
X0183626Y0041373D01*
X0185025Y0039973D01*
X0187004Y0039973D01*
X0187949Y0040918D01*
X0187949Y0040424D01*
X0188476Y0039897D01*
X0193553Y0039897D01*
X0194080Y0040741D02*
X0194538Y0040741D01*
X0194538Y0041340D02*
X0194080Y0041340D01*
X0194080Y0041938D02*
X0194538Y0041938D01*
X0194538Y0042537D02*
X0194080Y0042537D01*
X0194080Y0043135D02*
X0194538Y0043135D01*
X0194538Y0043734D02*
X0194080Y0043734D01*
X0194080Y0044332D02*
X0194538Y0044332D01*
X0194538Y0044931D02*
X0194080Y0044931D01*
X0193657Y0045529D02*
X0194538Y0045529D01*
X0194538Y0046128D02*
X0175391Y0046128D01*
X0175391Y0046726D02*
X0188340Y0046726D01*
X0187949Y0047325D02*
X0175391Y0047325D01*
X0175391Y0047923D02*
X0187949Y0047923D01*
X0187949Y0048522D02*
X0175391Y0048522D01*
X0175391Y0049120D02*
X0187949Y0049120D01*
X0187949Y0049719D02*
X0175391Y0049719D01*
X0175391Y0050317D02*
X0187949Y0050317D01*
X0187949Y0050916D02*
X0175223Y0050916D01*
X0174490Y0051515D02*
X0187949Y0051515D01*
X0188262Y0052113D02*
X0142215Y0052113D01*
X0142215Y0051515D02*
X0169755Y0051515D01*
X0169653Y0051487D02*
X0169356Y0051316D01*
X0169114Y0051074D01*
X0168943Y0050777D01*
X0168854Y0050447D01*
X0168854Y0044276D01*
X0171823Y0044276D01*
X0171823Y0051576D01*
X0169983Y0051576D01*
X0169653Y0051487D01*
X0169023Y0050916D02*
X0157007Y0050916D01*
X0157275Y0050317D02*
X0168854Y0050317D01*
X0168854Y0049719D02*
X0157275Y0049719D01*
X0157275Y0049120D02*
X0168854Y0049120D01*
X0168854Y0048522D02*
X0157275Y0048522D01*
X0157275Y0047923D02*
X0168854Y0047923D01*
X0168854Y0047325D02*
X0157275Y0047325D01*
X0157275Y0046726D02*
X0168854Y0046726D01*
X0168854Y0046128D02*
X0157275Y0046128D01*
X0157275Y0045529D02*
X0168854Y0045529D01*
X0168854Y0044931D02*
X0166124Y0044931D01*
X0166723Y0044332D02*
X0168854Y0044332D01*
X0167154Y0043734D02*
X0171823Y0043734D01*
X0171823Y0044332D02*
X0172423Y0044332D01*
X0172423Y0043734D02*
X0184008Y0043734D01*
X0183626Y0043135D02*
X0175391Y0043135D01*
X0175391Y0042537D02*
X0183626Y0042537D01*
X0183626Y0041938D02*
X0175391Y0041938D01*
X0175391Y0041340D02*
X0183658Y0041340D01*
X0184257Y0040741D02*
X0175391Y0040741D01*
X0175391Y0040143D02*
X0184855Y0040143D01*
X0187174Y0040143D02*
X0188231Y0040143D01*
X0187949Y0040741D02*
X0187772Y0040741D01*
X0186015Y0042362D02*
X0190611Y0042362D01*
X0191015Y0042766D01*
X0187949Y0044332D02*
X0187423Y0044332D01*
X0187949Y0044931D02*
X0175391Y0044931D01*
X0175391Y0045529D02*
X0188372Y0045529D01*
X0193689Y0046726D02*
X0194538Y0046726D01*
X0194538Y0047325D02*
X0194080Y0047325D01*
X0194080Y0047923D02*
X0194538Y0047923D01*
X0196015Y0049862D02*
X0197265Y0048612D01*
X0197265Y0047362D01*
X0202265Y0047362D01*
X0204654Y0047325D02*
X0211854Y0047325D01*
X0211854Y0047923D02*
X0204654Y0047923D01*
X0204483Y0048522D02*
X0211854Y0048522D01*
X0211854Y0049120D02*
X0203885Y0049120D01*
X0203286Y0049719D02*
X0211854Y0049719D01*
X0211854Y0050317D02*
X0200275Y0050317D01*
X0200275Y0049719D02*
X0201243Y0049719D01*
X0200644Y0049120D02*
X0200275Y0049120D01*
X0196015Y0049862D02*
X0195611Y0049459D01*
X0191015Y0049459D01*
X0191015Y0053612D01*
X0187265Y0057362D01*
X0164765Y0057362D01*
X0162376Y0056901D02*
X0161432Y0056901D01*
X0160834Y0056303D02*
X0162446Y0056303D01*
X0163044Y0055704D02*
X0142215Y0055704D01*
X0142215Y0055106D02*
X0163643Y0055106D01*
X0165887Y0055106D02*
X0187824Y0055106D01*
X0187226Y0055704D02*
X0166485Y0055704D01*
X0158696Y0056303D02*
X0154584Y0056303D01*
X0155182Y0056901D02*
X0158097Y0056901D01*
X0157499Y0057500D02*
X0155781Y0057500D01*
X0155904Y0058098D02*
X0157376Y0058098D01*
X0157376Y0058697D02*
X0155904Y0058697D01*
X0155904Y0059295D02*
X0157376Y0059295D01*
X0157668Y0059894D02*
X0156493Y0059894D01*
X0156015Y0061112D02*
X0153515Y0058612D01*
X0151126Y0058697D02*
X0142215Y0058697D01*
X0142215Y0059295D02*
X0151126Y0059295D01*
X0151418Y0059894D02*
X0142215Y0059894D01*
X0142215Y0060492D02*
X0152016Y0060492D01*
X0154296Y0061091D02*
X0142215Y0061091D01*
X0142215Y0061689D02*
X0154895Y0061689D01*
X0155493Y0062288D02*
X0142215Y0062288D01*
X0142215Y0062886D02*
X0311690Y0062886D01*
X0311690Y0062288D02*
X0266151Y0062288D01*
X0266731Y0061689D02*
X0311690Y0061689D01*
X0311690Y0061091D02*
X0267283Y0061091D01*
X0267849Y0060492D02*
X0311690Y0060492D01*
X0311690Y0059894D02*
X0268415Y0059894D01*
X0268982Y0059295D02*
X0311690Y0059295D01*
X0311690Y0058697D02*
X0269548Y0058697D01*
X0270114Y0058098D02*
X0311690Y0058098D01*
X0311690Y0057500D02*
X0270680Y0057500D01*
X0271246Y0056901D02*
X0311690Y0056901D01*
X0311690Y0056865D02*
X0316532Y0052023D01*
X0317235Y0051320D01*
X0323191Y0051320D01*
X0323515Y0050537D01*
X0324499Y0049552D01*
X0325786Y0049020D01*
X0327178Y0049020D01*
X0328465Y0049552D01*
X0329449Y0050537D01*
X0329982Y0051823D01*
X0329982Y0053216D01*
X0329449Y0054502D01*
X0328465Y0055487D01*
X0327178Y0056020D01*
X0325786Y0056020D01*
X0324499Y0055487D01*
X0323515Y0054502D01*
X0323191Y0053720D01*
X0318229Y0053720D01*
X0314090Y0057859D01*
X0314090Y0071005D01*
X0323191Y0071005D01*
X0323515Y0070222D01*
X0324499Y0069238D01*
X0325786Y0068705D01*
X0327178Y0068705D01*
X0328465Y0069238D01*
X0329449Y0070222D01*
X0329982Y0071508D01*
X0329982Y0072901D01*
X0329449Y0074187D01*
X0328465Y0075172D01*
X0327178Y0075705D01*
X0325786Y0075705D01*
X0324499Y0075172D01*
X0323515Y0074187D01*
X0323191Y0073405D01*
X0314169Y0073405D01*
X0304090Y0083484D01*
X0303387Y0084187D01*
X0147137Y0084187D01*
X0146590Y0084734D01*
X0145887Y0085437D01*
X0141143Y0085437D01*
X0139206Y0083501D01*
X0137525Y0083501D01*
X0136126Y0082102D01*
X0136126Y0080123D01*
X0137525Y0078723D01*
X0139504Y0078723D01*
X0140904Y0080123D01*
X0140904Y0081804D01*
X0141126Y0082026D01*
X0141126Y0080748D01*
X0142525Y0079348D01*
X0144504Y0079348D01*
X0145693Y0080537D01*
X0301768Y0080537D01*
X0311690Y0070615D01*
X0311690Y0056865D01*
X0312252Y0056303D02*
X0271812Y0056303D01*
X0272379Y0055704D02*
X0312851Y0055704D01*
X0313449Y0055106D02*
X0272945Y0055106D01*
X0273511Y0054507D02*
X0314048Y0054507D01*
X0314646Y0053909D02*
X0274077Y0053909D01*
X0274643Y0053310D02*
X0315245Y0053310D01*
X0315843Y0052712D02*
X0275209Y0052712D01*
X0272472Y0052113D02*
X0237517Y0052113D01*
X0237830Y0051515D02*
X0255755Y0051515D01*
X0255653Y0051487D02*
X0255356Y0051316D01*
X0255114Y0051074D01*
X0254943Y0050777D01*
X0254854Y0050447D01*
X0254854Y0044276D01*
X0257823Y0044276D01*
X0257823Y0051576D01*
X0255983Y0051576D01*
X0255653Y0051487D01*
X0255023Y0050916D02*
X0243007Y0050916D01*
X0243275Y0050317D02*
X0254854Y0050317D01*
X0254854Y0049719D02*
X0247036Y0049719D01*
X0247635Y0049120D02*
X0254854Y0049120D01*
X0254854Y0048522D02*
X0248233Y0048522D01*
X0248404Y0047923D02*
X0254854Y0047923D01*
X0254854Y0047325D02*
X0248404Y0047325D01*
X0248404Y0046726D02*
X0254854Y0046726D01*
X0254854Y0046128D02*
X0248159Y0046128D01*
X0247560Y0045529D02*
X0254854Y0045529D01*
X0254854Y0044931D02*
X0243275Y0044931D01*
X0243275Y0045529D02*
X0244469Y0045529D01*
X0243870Y0046128D02*
X0243275Y0046128D01*
X0237538Y0046128D02*
X0218391Y0046128D01*
X0218391Y0046726D02*
X0232090Y0046726D01*
X0231699Y0047325D02*
X0218391Y0047325D01*
X0218391Y0047923D02*
X0231699Y0047923D01*
X0231699Y0048522D02*
X0218391Y0048522D01*
X0218391Y0049120D02*
X0231699Y0049120D01*
X0231699Y0049719D02*
X0218391Y0049719D01*
X0218391Y0050317D02*
X0231699Y0050317D01*
X0231699Y0050916D02*
X0218223Y0050916D01*
X0217490Y0051515D02*
X0231699Y0051515D01*
X0232012Y0052113D02*
X0193767Y0052113D01*
X0194080Y0051515D02*
X0212755Y0051515D01*
X0212653Y0051487D02*
X0212356Y0051316D01*
X0212114Y0051074D01*
X0211943Y0050777D01*
X0211854Y0050447D01*
X0211854Y0044276D01*
X0214823Y0044276D01*
X0214823Y0051576D01*
X0212983Y0051576D01*
X0212653Y0051487D01*
X0212023Y0050916D02*
X0200007Y0050916D01*
X0194805Y0050916D02*
X0194080Y0050916D01*
X0192215Y0052712D02*
X0233565Y0052712D01*
X0233565Y0053310D02*
X0192215Y0053310D01*
X0192215Y0053909D02*
X0233565Y0053909D01*
X0233423Y0054507D02*
X0191817Y0054507D01*
X0191218Y0055106D02*
X0232824Y0055106D01*
X0232226Y0055704D02*
X0190620Y0055704D01*
X0190021Y0056303D02*
X0231627Y0056303D01*
X0231029Y0056901D02*
X0189423Y0056901D01*
X0188824Y0057500D02*
X0230430Y0057500D01*
X0229832Y0058098D02*
X0188226Y0058098D01*
X0188423Y0054507D02*
X0142215Y0054507D01*
X0142215Y0053909D02*
X0189021Y0053909D01*
X0189620Y0053310D02*
X0142215Y0053310D01*
X0142215Y0052712D02*
X0189815Y0052712D01*
X0172423Y0051515D02*
X0171823Y0051515D01*
X0171823Y0050916D02*
X0172423Y0050916D01*
X0172423Y0050317D02*
X0171823Y0050317D01*
X0171823Y0049719D02*
X0172423Y0049719D01*
X0172423Y0049120D02*
X0171823Y0049120D01*
X0171823Y0048522D02*
X0172423Y0048522D01*
X0172423Y0047923D02*
X0171823Y0047923D01*
X0171823Y0047325D02*
X0172423Y0047325D01*
X0172423Y0046726D02*
X0171823Y0046726D01*
X0171823Y0046128D02*
X0172423Y0046128D01*
X0172423Y0045529D02*
X0171823Y0045529D01*
X0171823Y0044931D02*
X0172423Y0044931D01*
X0175391Y0044332D02*
X0184606Y0044332D01*
X0197406Y0043976D02*
X0197156Y0047254D01*
X0197265Y0047362D01*
X0200275Y0045529D02*
X0200719Y0045529D01*
X0200275Y0044931D02*
X0211854Y0044931D01*
X0211854Y0045529D02*
X0203810Y0045529D01*
X0204409Y0046128D02*
X0211854Y0046128D01*
X0211854Y0046726D02*
X0204654Y0046726D01*
X0214823Y0046726D02*
X0215423Y0046726D01*
X0215423Y0046128D02*
X0214823Y0046128D01*
X0214823Y0045529D02*
X0215423Y0045529D01*
X0215423Y0044931D02*
X0214823Y0044931D01*
X0214823Y0044332D02*
X0215423Y0044332D01*
X0215423Y0043734D02*
X0227758Y0043734D01*
X0227376Y0043135D02*
X0218391Y0043135D01*
X0218391Y0042537D02*
X0227376Y0042537D01*
X0227376Y0041938D02*
X0218391Y0041938D01*
X0218391Y0041340D02*
X0227408Y0041340D01*
X0228007Y0040741D02*
X0218391Y0040741D01*
X0218391Y0040143D02*
X0228605Y0040143D01*
X0230924Y0040143D02*
X0231981Y0040143D01*
X0231699Y0040741D02*
X0231522Y0040741D01*
X0229765Y0042362D02*
X0234361Y0042362D01*
X0234765Y0042766D01*
X0231699Y0044332D02*
X0231173Y0044332D01*
X0231699Y0044931D02*
X0218391Y0044931D01*
X0218391Y0045529D02*
X0232122Y0045529D01*
X0228356Y0044332D02*
X0218391Y0044332D01*
X0214823Y0043734D02*
X0200275Y0043734D01*
X0200275Y0044332D02*
X0211854Y0044332D01*
X0211854Y0043135D02*
X0200275Y0043135D01*
X0200275Y0042537D02*
X0211854Y0042537D01*
X0211854Y0041938D02*
X0200275Y0041938D01*
X0200275Y0041340D02*
X0211854Y0041340D01*
X0211854Y0040741D02*
X0200275Y0040741D01*
X0200275Y0040143D02*
X0211854Y0040143D01*
X0211854Y0039544D02*
X0200275Y0039544D01*
X0200275Y0038946D02*
X0211854Y0038946D01*
X0211854Y0038347D02*
X0200275Y0038347D01*
X0200275Y0037749D02*
X0211854Y0037749D01*
X0211957Y0037150D02*
X0200121Y0037150D01*
X0218288Y0037150D02*
X0237692Y0037150D01*
X0237538Y0037749D02*
X0218391Y0037749D01*
X0218391Y0038347D02*
X0237538Y0038347D01*
X0237538Y0038946D02*
X0218391Y0038946D01*
X0218391Y0039544D02*
X0237538Y0039544D01*
X0243275Y0039544D02*
X0254854Y0039544D01*
X0254854Y0038946D02*
X0243275Y0038946D01*
X0243275Y0038347D02*
X0254854Y0038347D01*
X0254854Y0037749D02*
X0243275Y0037749D01*
X0243121Y0037150D02*
X0254957Y0037150D01*
X0261288Y0037150D02*
X0280692Y0037150D01*
X0280538Y0037749D02*
X0261391Y0037749D01*
X0261391Y0038347D02*
X0280538Y0038347D01*
X0280538Y0038946D02*
X0261391Y0038946D01*
X0261391Y0039544D02*
X0280538Y0039544D01*
X0280538Y0040143D02*
X0279418Y0040143D01*
X0279173Y0039897D02*
X0279700Y0040424D01*
X0279700Y0045107D01*
X0279173Y0045634D01*
X0274096Y0045634D01*
X0273569Y0045107D01*
X0273569Y0043806D01*
X0272624Y0044751D01*
X0270645Y0044751D01*
X0269246Y0043352D01*
X0269246Y0041373D01*
X0270645Y0039973D01*
X0272624Y0039973D01*
X0273569Y0040918D01*
X0273569Y0040424D01*
X0274096Y0039897D01*
X0279173Y0039897D01*
X0279700Y0040741D02*
X0280538Y0040741D01*
X0280538Y0041340D02*
X0279700Y0041340D01*
X0279700Y0041938D02*
X0280538Y0041938D01*
X0280538Y0042537D02*
X0279700Y0042537D01*
X0279700Y0043135D02*
X0280538Y0043135D01*
X0280538Y0043734D02*
X0279700Y0043734D01*
X0279700Y0044332D02*
X0280538Y0044332D01*
X0280538Y0044931D02*
X0279700Y0044931D01*
X0279278Y0045529D02*
X0280538Y0045529D01*
X0280538Y0046128D02*
X0261391Y0046128D01*
X0261391Y0046726D02*
X0273960Y0046726D01*
X0273569Y0047325D02*
X0261391Y0047325D01*
X0261391Y0047923D02*
X0273569Y0047923D01*
X0273569Y0048522D02*
X0261391Y0048522D01*
X0261391Y0049120D02*
X0273569Y0049120D01*
X0273569Y0049719D02*
X0261391Y0049719D01*
X0261391Y0050317D02*
X0273569Y0050317D01*
X0273569Y0050916D02*
X0261223Y0050916D01*
X0260490Y0051515D02*
X0273038Y0051515D01*
X0271906Y0052712D02*
X0235965Y0052712D01*
X0235965Y0053310D02*
X0271340Y0053310D01*
X0270773Y0053909D02*
X0235965Y0053909D01*
X0235965Y0054507D02*
X0270207Y0054507D01*
X0269641Y0055106D02*
X0235965Y0055106D01*
X0235620Y0055704D02*
X0269075Y0055704D01*
X0268509Y0056303D02*
X0235021Y0056303D01*
X0234423Y0056901D02*
X0267943Y0056901D01*
X0267376Y0057500D02*
X0233824Y0057500D01*
X0233226Y0058098D02*
X0266810Y0058098D01*
X0266244Y0058697D02*
X0232627Y0058697D01*
X0232029Y0059295D02*
X0265678Y0059295D01*
X0265112Y0059894D02*
X0231430Y0059894D01*
X0229765Y0059862D02*
X0163886Y0059862D01*
X0162636Y0058612D01*
X0159765Y0058612D01*
X0151847Y0056901D02*
X0142215Y0056901D01*
X0142215Y0056303D02*
X0152446Y0056303D01*
X0151249Y0057500D02*
X0142215Y0057500D01*
X0142215Y0058098D02*
X0151126Y0058098D01*
X0156015Y0061112D02*
X0265611Y0061112D01*
X0276635Y0049459D01*
X0282481Y0049459D01*
X0282885Y0049862D01*
X0284135Y0048612D01*
X0284135Y0047362D01*
X0282776Y0046004D01*
X0283406Y0043976D01*
X0286275Y0043734D02*
X0300823Y0043734D01*
X0300823Y0044276D02*
X0297854Y0044276D01*
X0297854Y0050447D01*
X0297943Y0050777D01*
X0298114Y0051074D01*
X0298356Y0051316D01*
X0298653Y0051487D01*
X0298983Y0051576D01*
X0300823Y0051576D01*
X0300823Y0044276D01*
X0300823Y0044332D02*
X0301423Y0044332D01*
X0301423Y0043734D02*
X0309090Y0043734D01*
X0309090Y0043135D02*
X0304391Y0043135D01*
X0304391Y0042537D02*
X0309090Y0042537D01*
X0309090Y0041938D02*
X0304391Y0041938D01*
X0304391Y0041340D02*
X0309090Y0041340D01*
X0309090Y0040143D02*
X0304391Y0040143D01*
X0304391Y0040741D02*
X0316340Y0040741D01*
X0316340Y0041340D02*
X0316940Y0041340D01*
X0316940Y0041938D02*
X0316340Y0041938D01*
X0316340Y0042537D02*
X0316940Y0042537D01*
X0316940Y0043135D02*
X0316340Y0043135D01*
X0316340Y0043734D02*
X0316940Y0043734D01*
X0316940Y0044332D02*
X0316340Y0044332D01*
X0316340Y0044931D02*
X0316940Y0044931D01*
X0323638Y0044931D02*
X0332610Y0044931D01*
X0332610Y0045529D02*
X0304391Y0045529D01*
X0304391Y0044931D02*
X0309641Y0044931D01*
X0309170Y0044332D02*
X0304391Y0044332D01*
X0301423Y0044931D02*
X0300823Y0044931D01*
X0300823Y0045529D02*
X0301423Y0045529D01*
X0301423Y0046128D02*
X0300823Y0046128D01*
X0300823Y0046726D02*
X0301423Y0046726D01*
X0301423Y0047325D02*
X0300823Y0047325D01*
X0300823Y0047923D02*
X0301423Y0047923D01*
X0301423Y0048522D02*
X0300823Y0048522D01*
X0300823Y0049120D02*
X0301423Y0049120D01*
X0301423Y0049719D02*
X0300823Y0049719D01*
X0300823Y0050317D02*
X0301423Y0050317D01*
X0301423Y0050916D02*
X0300823Y0050916D01*
X0300823Y0051515D02*
X0301423Y0051515D01*
X0303490Y0051515D02*
X0317040Y0051515D01*
X0316442Y0052113D02*
X0279387Y0052113D01*
X0279700Y0051515D02*
X0298755Y0051515D01*
X0298023Y0050916D02*
X0286007Y0050916D01*
X0286275Y0050317D02*
X0297854Y0050317D01*
X0297854Y0049719D02*
X0290156Y0049719D01*
X0290755Y0049120D02*
X0297854Y0049120D01*
X0297854Y0048522D02*
X0291353Y0048522D01*
X0291524Y0047923D02*
X0297854Y0047923D01*
X0297854Y0047325D02*
X0291524Y0047325D01*
X0291524Y0046726D02*
X0297854Y0046726D01*
X0297854Y0046128D02*
X0291279Y0046128D01*
X0290680Y0045529D02*
X0297854Y0045529D01*
X0297854Y0044931D02*
X0286275Y0044931D01*
X0286275Y0045529D02*
X0287589Y0045529D01*
X0286990Y0046128D02*
X0286275Y0046128D01*
X0280538Y0046726D02*
X0279309Y0046726D01*
X0279700Y0047325D02*
X0280538Y0047325D01*
X0280538Y0047923D02*
X0279700Y0047923D01*
X0284135Y0047362D02*
X0289135Y0047362D01*
X0287514Y0049120D02*
X0286275Y0049120D01*
X0286275Y0049719D02*
X0288113Y0049719D01*
X0280805Y0050916D02*
X0279700Y0050916D01*
X0258423Y0050916D02*
X0257823Y0050916D01*
X0257823Y0051515D02*
X0258423Y0051515D01*
X0258423Y0050317D02*
X0257823Y0050317D01*
X0257823Y0049719D02*
X0258423Y0049719D01*
X0258423Y0049120D02*
X0257823Y0049120D01*
X0257823Y0048522D02*
X0258423Y0048522D01*
X0258423Y0047923D02*
X0257823Y0047923D01*
X0257823Y0047325D02*
X0258423Y0047325D01*
X0258423Y0046726D02*
X0257823Y0046726D01*
X0257823Y0046128D02*
X0258423Y0046128D01*
X0258423Y0045529D02*
X0257823Y0045529D01*
X0257823Y0044931D02*
X0258423Y0044931D01*
X0258423Y0044332D02*
X0257823Y0044332D01*
X0257823Y0043734D02*
X0243275Y0043734D01*
X0243275Y0044332D02*
X0254854Y0044332D01*
X0254854Y0043135D02*
X0243275Y0043135D01*
X0243275Y0042537D02*
X0254854Y0042537D01*
X0254854Y0041938D02*
X0243275Y0041938D01*
X0243275Y0041340D02*
X0254854Y0041340D01*
X0254854Y0040741D02*
X0243275Y0040741D01*
X0243275Y0040143D02*
X0254854Y0040143D01*
X0261391Y0040143D02*
X0270475Y0040143D01*
X0269877Y0040741D02*
X0261391Y0040741D01*
X0261391Y0041340D02*
X0269278Y0041340D01*
X0269246Y0041938D02*
X0261391Y0041938D01*
X0261391Y0042537D02*
X0269246Y0042537D01*
X0269246Y0043135D02*
X0261391Y0043135D01*
X0261391Y0044332D02*
X0270226Y0044332D01*
X0269628Y0043734D02*
X0258423Y0043734D01*
X0261391Y0044931D02*
X0273569Y0044931D01*
X0273569Y0044332D02*
X0273043Y0044332D01*
X0276231Y0042362D02*
X0276635Y0042766D01*
X0276231Y0042362D02*
X0271635Y0042362D01*
X0273392Y0040741D02*
X0273569Y0040741D01*
X0273851Y0040143D02*
X0272794Y0040143D01*
X0286275Y0040143D02*
X0297854Y0040143D01*
X0297854Y0040741D02*
X0286275Y0040741D01*
X0286275Y0041340D02*
X0297854Y0041340D01*
X0297854Y0041938D02*
X0286275Y0041938D01*
X0286275Y0042537D02*
X0297854Y0042537D01*
X0297854Y0043135D02*
X0286275Y0043135D01*
X0286275Y0044332D02*
X0297854Y0044332D01*
X0304391Y0046128D02*
X0332610Y0046128D01*
X0332610Y0046726D02*
X0304391Y0046726D01*
X0304391Y0047325D02*
X0332610Y0047325D01*
X0332610Y0047923D02*
X0304391Y0047923D01*
X0304391Y0048522D02*
X0332610Y0048522D01*
X0332610Y0049120D02*
X0327422Y0049120D01*
X0328631Y0049719D02*
X0332610Y0049719D01*
X0332610Y0050317D02*
X0329230Y0050317D01*
X0329606Y0050916D02*
X0332610Y0050916D01*
X0332610Y0051515D02*
X0329854Y0051515D01*
X0329982Y0052113D02*
X0332610Y0052113D01*
X0332610Y0052712D02*
X0329982Y0052712D01*
X0329943Y0053310D02*
X0332610Y0053310D01*
X0332610Y0053909D02*
X0329695Y0053909D01*
X0329444Y0054507D02*
X0332610Y0054507D01*
X0332610Y0055106D02*
X0328846Y0055106D01*
X0327940Y0055704D02*
X0332610Y0055704D01*
X0332610Y0056303D02*
X0315646Y0056303D01*
X0315048Y0056901D02*
X0332610Y0056901D01*
X0332610Y0057500D02*
X0314449Y0057500D01*
X0314090Y0058098D02*
X0332610Y0058098D01*
X0332610Y0058697D02*
X0327824Y0058697D01*
X0327620Y0058612D02*
X0328329Y0058906D01*
X0328968Y0059333D01*
X0329511Y0059876D01*
X0329938Y0060515D01*
X0330232Y0061225D01*
X0330382Y0061978D01*
X0330382Y0062062D01*
X0326782Y0062062D01*
X0326782Y0058462D01*
X0326866Y0058462D01*
X0327620Y0058612D01*
X0326782Y0058697D02*
X0326182Y0058697D01*
X0326182Y0058462D02*
X0326182Y0062062D01*
X0326782Y0062062D01*
X0326782Y0062662D01*
X0330382Y0062662D01*
X0330382Y0062746D01*
X0330232Y0063500D01*
X0329938Y0064209D01*
X0329511Y0064848D01*
X0328968Y0065391D01*
X0328329Y0065818D01*
X0327620Y0066112D01*
X0326866Y0066262D01*
X0326782Y0066262D01*
X0326782Y0062662D01*
X0326182Y0062662D01*
X0326182Y0062062D01*
X0322582Y0062062D01*
X0322582Y0061978D01*
X0322732Y0061225D01*
X0323026Y0060515D01*
X0323453Y0059876D01*
X0323996Y0059333D01*
X0324635Y0058906D01*
X0325344Y0058612D01*
X0326098Y0058462D01*
X0326182Y0058462D01*
X0326182Y0059295D02*
X0326782Y0059295D01*
X0326782Y0059894D02*
X0326182Y0059894D01*
X0326182Y0060492D02*
X0326782Y0060492D01*
X0326782Y0061091D02*
X0326182Y0061091D01*
X0326182Y0061689D02*
X0326782Y0061689D01*
X0326782Y0062288D02*
X0332610Y0062288D01*
X0332610Y0062886D02*
X0330354Y0062886D01*
X0330235Y0063485D02*
X0332610Y0063485D01*
X0332610Y0064083D02*
X0329991Y0064083D01*
X0329623Y0064682D02*
X0332610Y0064682D01*
X0332610Y0065280D02*
X0329079Y0065280D01*
X0328183Y0065879D02*
X0332610Y0065879D01*
X0332610Y0066477D02*
X0314090Y0066477D01*
X0314090Y0065879D02*
X0324781Y0065879D01*
X0324635Y0065818D02*
X0325344Y0066112D01*
X0326098Y0066262D01*
X0326182Y0066262D01*
X0326182Y0062662D01*
X0322582Y0062662D01*
X0322582Y0062746D01*
X0322732Y0063500D01*
X0323026Y0064209D01*
X0323453Y0064848D01*
X0323996Y0065391D01*
X0324635Y0065818D01*
X0323885Y0065280D02*
X0314090Y0065280D01*
X0314090Y0064682D02*
X0323342Y0064682D01*
X0322974Y0064083D02*
X0314090Y0064083D01*
X0314090Y0063485D02*
X0322729Y0063485D01*
X0322610Y0062886D02*
X0314090Y0062886D01*
X0314090Y0062288D02*
X0326182Y0062288D01*
X0326182Y0062886D02*
X0326782Y0062886D01*
X0326782Y0063485D02*
X0326182Y0063485D01*
X0326182Y0064083D02*
X0326782Y0064083D01*
X0326782Y0064682D02*
X0326182Y0064682D01*
X0326182Y0065280D02*
X0326782Y0065280D01*
X0326782Y0065879D02*
X0326182Y0065879D01*
X0332610Y0067076D02*
X0314090Y0067076D01*
X0314090Y0067674D02*
X0332610Y0067674D01*
X0332610Y0068273D02*
X0314090Y0068273D01*
X0314090Y0068871D02*
X0325384Y0068871D01*
X0324267Y0069470D02*
X0314090Y0069470D01*
X0314090Y0070068D02*
X0323669Y0070068D01*
X0323331Y0070667D02*
X0314090Y0070667D01*
X0312890Y0071112D02*
X0312890Y0057362D01*
X0317732Y0052520D01*
X0326482Y0052520D01*
X0323358Y0050916D02*
X0304223Y0050916D01*
X0304391Y0050317D02*
X0323734Y0050317D01*
X0324333Y0049719D02*
X0304391Y0049719D01*
X0304391Y0049120D02*
X0325542Y0049120D01*
X0323269Y0053909D02*
X0318040Y0053909D01*
X0317442Y0054507D02*
X0323520Y0054507D01*
X0324118Y0055106D02*
X0316843Y0055106D01*
X0316245Y0055704D02*
X0325024Y0055704D01*
X0325140Y0058697D02*
X0314090Y0058697D01*
X0314090Y0059295D02*
X0324052Y0059295D01*
X0323441Y0059894D02*
X0314090Y0059894D01*
X0314090Y0060492D02*
X0323041Y0060492D01*
X0322787Y0061091D02*
X0314090Y0061091D01*
X0314090Y0061689D02*
X0322640Y0061689D01*
X0328912Y0059295D02*
X0332610Y0059295D01*
X0332610Y0059894D02*
X0329523Y0059894D01*
X0329923Y0060492D02*
X0332610Y0060492D01*
X0332610Y0061091D02*
X0330177Y0061091D01*
X0330325Y0061689D02*
X0332610Y0061689D01*
X0311690Y0063485D02*
X0303966Y0063485D01*
X0303890Y0063409D02*
X0304132Y0063651D01*
X0304303Y0063947D01*
X0304391Y0064278D01*
X0304391Y0070448D01*
X0301423Y0070448D01*
X0301423Y0071048D01*
X0304391Y0071048D01*
X0304391Y0077218D01*
X0304303Y0077549D01*
X0304132Y0077845D01*
X0303890Y0078087D01*
X0303593Y0078259D01*
X0303262Y0078347D01*
X0301423Y0078347D01*
X0301423Y0071048D01*
X0300823Y0071048D01*
X0300823Y0078347D01*
X0298983Y0078347D01*
X0298653Y0078259D01*
X0298356Y0078087D01*
X0298114Y0077845D01*
X0297943Y0077549D01*
X0297854Y0077218D01*
X0297854Y0071048D01*
X0300823Y0071048D01*
X0300823Y0070448D01*
X0301423Y0070448D01*
X0301423Y0063149D01*
X0303262Y0063149D01*
X0303593Y0063237D01*
X0303890Y0063409D01*
X0304339Y0064083D02*
X0311690Y0064083D01*
X0311690Y0064682D02*
X0304391Y0064682D01*
X0304391Y0065280D02*
X0311690Y0065280D01*
X0311690Y0065879D02*
X0304391Y0065879D01*
X0304391Y0066477D02*
X0311690Y0066477D01*
X0311690Y0067076D02*
X0304391Y0067076D01*
X0304391Y0067674D02*
X0311690Y0067674D01*
X0311690Y0068273D02*
X0304391Y0068273D01*
X0304391Y0068871D02*
X0311690Y0068871D01*
X0311690Y0069470D02*
X0304391Y0069470D01*
X0304391Y0070068D02*
X0311690Y0070068D01*
X0311638Y0070667D02*
X0301423Y0070667D01*
X0301423Y0071265D02*
X0300823Y0071265D01*
X0300823Y0070667D02*
X0291524Y0070667D01*
X0291524Y0070852D02*
X0290124Y0072251D01*
X0288145Y0072251D01*
X0286956Y0071062D01*
X0286275Y0071062D01*
X0286275Y0077420D01*
X0285748Y0077947D01*
X0281065Y0077947D01*
X0280538Y0077420D01*
X0280538Y0064076D01*
X0281065Y0063549D01*
X0285748Y0063549D01*
X0286275Y0064076D01*
X0286275Y0068662D01*
X0286956Y0068662D01*
X0288145Y0067473D01*
X0290124Y0067473D01*
X0291524Y0068873D01*
X0291524Y0070852D01*
X0291110Y0071265D02*
X0297854Y0071265D01*
X0297854Y0071864D02*
X0290511Y0071864D01*
X0287758Y0071864D02*
X0286275Y0071864D01*
X0286275Y0072462D02*
X0297854Y0072462D01*
X0297854Y0073061D02*
X0286275Y0073061D01*
X0286275Y0073659D02*
X0297854Y0073659D01*
X0297854Y0074258D02*
X0286275Y0074258D01*
X0286275Y0074856D02*
X0297854Y0074856D01*
X0297854Y0075455D02*
X0286275Y0075455D01*
X0286275Y0076053D02*
X0297854Y0076053D01*
X0297854Y0076652D02*
X0286275Y0076652D01*
X0286275Y0077250D02*
X0297863Y0077250D01*
X0298118Y0077849D02*
X0285846Y0077849D01*
X0280967Y0077849D02*
X0261128Y0077849D01*
X0261132Y0077845D02*
X0260890Y0078087D01*
X0260593Y0078259D01*
X0260262Y0078347D01*
X0258423Y0078347D01*
X0258423Y0071048D01*
X0261391Y0071048D01*
X0261391Y0077218D01*
X0261303Y0077549D01*
X0261132Y0077845D01*
X0261383Y0077250D02*
X0280538Y0077250D01*
X0280538Y0076652D02*
X0261391Y0076652D01*
X0261391Y0076053D02*
X0280538Y0076053D01*
X0280538Y0075455D02*
X0261391Y0075455D01*
X0261391Y0074856D02*
X0280538Y0074856D01*
X0280538Y0074258D02*
X0261391Y0074258D01*
X0261391Y0073659D02*
X0280538Y0073659D01*
X0280538Y0073061D02*
X0261391Y0073061D01*
X0261391Y0072462D02*
X0280538Y0072462D01*
X0280538Y0071864D02*
X0261391Y0071864D01*
X0261391Y0071265D02*
X0280538Y0071265D01*
X0280538Y0070667D02*
X0258423Y0070667D01*
X0258423Y0070448D02*
X0258423Y0071048D01*
X0257823Y0071048D01*
X0257823Y0078347D01*
X0255983Y0078347D01*
X0255653Y0078259D01*
X0255356Y0078087D01*
X0255114Y0077845D01*
X0254943Y0077549D01*
X0254854Y0077218D01*
X0254854Y0071048D01*
X0257823Y0071048D01*
X0257823Y0070448D01*
X0258423Y0070448D01*
X0261391Y0070448D01*
X0261391Y0064278D01*
X0261303Y0063947D01*
X0261132Y0063651D01*
X0260890Y0063409D01*
X0260593Y0063237D01*
X0260262Y0063149D01*
X0258423Y0063149D01*
X0258423Y0070448D01*
X0258423Y0070068D02*
X0257823Y0070068D01*
X0257823Y0070448D02*
X0257823Y0063149D01*
X0255983Y0063149D01*
X0255653Y0063237D01*
X0255356Y0063409D01*
X0255114Y0063651D01*
X0254943Y0063947D01*
X0254854Y0064278D01*
X0254854Y0070448D01*
X0257823Y0070448D01*
X0257823Y0070667D02*
X0248404Y0070667D01*
X0248404Y0070852D02*
X0247004Y0072251D01*
X0245025Y0072251D01*
X0243836Y0071062D01*
X0243275Y0071062D01*
X0243275Y0077420D01*
X0242748Y0077947D01*
X0238065Y0077947D01*
X0237538Y0077420D01*
X0237538Y0064076D01*
X0238065Y0063549D01*
X0242748Y0063549D01*
X0243275Y0064076D01*
X0243275Y0068662D01*
X0243836Y0068662D01*
X0245025Y0067473D01*
X0247004Y0067473D01*
X0248404Y0068873D01*
X0248404Y0070852D01*
X0247990Y0071265D02*
X0254854Y0071265D01*
X0254854Y0071864D02*
X0247391Y0071864D01*
X0244638Y0071864D02*
X0243275Y0071864D01*
X0243275Y0072462D02*
X0254854Y0072462D01*
X0254854Y0073061D02*
X0243275Y0073061D01*
X0243275Y0073659D02*
X0254854Y0073659D01*
X0254854Y0074258D02*
X0243275Y0074258D01*
X0243275Y0074856D02*
X0254854Y0074856D01*
X0254854Y0075455D02*
X0243275Y0075455D01*
X0243275Y0076053D02*
X0254854Y0076053D01*
X0254854Y0076652D02*
X0243275Y0076652D01*
X0243275Y0077250D02*
X0254863Y0077250D01*
X0255118Y0077849D02*
X0242846Y0077849D01*
X0237967Y0077849D02*
X0218128Y0077849D01*
X0218132Y0077845D02*
X0217890Y0078087D01*
X0217593Y0078259D01*
X0217262Y0078347D01*
X0215423Y0078347D01*
X0215423Y0071048D01*
X0218391Y0071048D01*
X0218391Y0077218D01*
X0218303Y0077549D01*
X0218132Y0077845D01*
X0218383Y0077250D02*
X0237538Y0077250D01*
X0237538Y0076652D02*
X0218391Y0076652D01*
X0218391Y0076053D02*
X0237538Y0076053D01*
X0237538Y0075455D02*
X0218391Y0075455D01*
X0218391Y0074856D02*
X0237538Y0074856D01*
X0237538Y0074258D02*
X0218391Y0074258D01*
X0218391Y0073659D02*
X0237538Y0073659D01*
X0237538Y0073061D02*
X0218391Y0073061D01*
X0218391Y0072462D02*
X0237538Y0072462D01*
X0237538Y0071864D02*
X0218391Y0071864D01*
X0218391Y0071265D02*
X0237538Y0071265D01*
X0237538Y0070667D02*
X0215423Y0070667D01*
X0215423Y0070448D02*
X0215423Y0071048D01*
X0214823Y0071048D01*
X0214823Y0078347D01*
X0212983Y0078347D01*
X0212653Y0078259D01*
X0212356Y0078087D01*
X0212114Y0077845D01*
X0211943Y0077549D01*
X0211854Y0077218D01*
X0211854Y0071048D01*
X0214823Y0071048D01*
X0214823Y0070448D01*
X0215423Y0070448D01*
X0218391Y0070448D01*
X0218391Y0064278D01*
X0218303Y0063947D01*
X0218132Y0063651D01*
X0217890Y0063409D01*
X0217593Y0063237D01*
X0217262Y0063149D01*
X0215423Y0063149D01*
X0215423Y0070448D01*
X0215423Y0070068D02*
X0214823Y0070068D01*
X0214823Y0070448D02*
X0214823Y0063149D01*
X0212983Y0063149D01*
X0212653Y0063237D01*
X0212356Y0063409D01*
X0212114Y0063651D01*
X0211943Y0063947D01*
X0211854Y0064278D01*
X0211854Y0070448D01*
X0214823Y0070448D01*
X0214823Y0070667D02*
X0204654Y0070667D01*
X0204654Y0070852D02*
X0203254Y0072251D01*
X0201275Y0072251D01*
X0200275Y0071251D01*
X0200275Y0077420D01*
X0199748Y0077947D01*
X0195065Y0077947D01*
X0194538Y0077420D01*
X0194538Y0064076D01*
X0195065Y0063549D01*
X0199748Y0063549D01*
X0200275Y0064076D01*
X0200275Y0068473D01*
X0201275Y0067473D01*
X0203254Y0067473D01*
X0204654Y0068873D01*
X0204654Y0070852D01*
X0204240Y0071265D02*
X0211854Y0071265D01*
X0211854Y0071864D02*
X0203641Y0071864D01*
X0200888Y0071864D02*
X0200275Y0071864D01*
X0200275Y0072462D02*
X0211854Y0072462D01*
X0211854Y0073061D02*
X0200275Y0073061D01*
X0200275Y0073659D02*
X0211854Y0073659D01*
X0211854Y0074258D02*
X0200275Y0074258D01*
X0200275Y0074856D02*
X0211854Y0074856D01*
X0211854Y0075455D02*
X0200275Y0075455D01*
X0200275Y0076053D02*
X0211854Y0076053D01*
X0211854Y0076652D02*
X0200275Y0076652D01*
X0200275Y0077250D02*
X0211863Y0077250D01*
X0212118Y0077849D02*
X0199846Y0077849D01*
X0194967Y0077849D02*
X0175128Y0077849D01*
X0175132Y0077845D02*
X0174890Y0078087D01*
X0174593Y0078259D01*
X0174262Y0078347D01*
X0172423Y0078347D01*
X0172423Y0071048D01*
X0175391Y0071048D01*
X0175391Y0077218D01*
X0175303Y0077549D01*
X0175132Y0077845D01*
X0175383Y0077250D02*
X0194538Y0077250D01*
X0194538Y0076652D02*
X0175391Y0076652D01*
X0175391Y0076053D02*
X0194538Y0076053D01*
X0194538Y0075455D02*
X0175391Y0075455D01*
X0175391Y0074856D02*
X0194538Y0074856D01*
X0194538Y0074258D02*
X0175391Y0074258D01*
X0175391Y0073659D02*
X0194538Y0073659D01*
X0194538Y0073061D02*
X0175391Y0073061D01*
X0175391Y0072462D02*
X0194538Y0072462D01*
X0194538Y0071864D02*
X0175391Y0071864D01*
X0175391Y0071265D02*
X0194538Y0071265D01*
X0194538Y0070667D02*
X0172423Y0070667D01*
X0172423Y0070448D02*
X0172423Y0071048D01*
X0171823Y0071048D01*
X0171823Y0078347D01*
X0169983Y0078347D01*
X0169653Y0078259D01*
X0169356Y0078087D01*
X0169114Y0077845D01*
X0168943Y0077549D01*
X0168854Y0077218D01*
X0168854Y0071048D01*
X0171823Y0071048D01*
X0171823Y0070448D01*
X0172423Y0070448D01*
X0175391Y0070448D01*
X0175391Y0064278D01*
X0175303Y0063947D01*
X0175132Y0063651D01*
X0174890Y0063409D01*
X0174593Y0063237D01*
X0174262Y0063149D01*
X0172423Y0063149D01*
X0172423Y0070448D01*
X0172423Y0070068D02*
X0171823Y0070068D01*
X0171823Y0070448D02*
X0171823Y0063149D01*
X0169983Y0063149D01*
X0169653Y0063237D01*
X0169356Y0063409D01*
X0169114Y0063651D01*
X0168943Y0063947D01*
X0168854Y0064278D01*
X0168854Y0070448D01*
X0171823Y0070448D01*
X0171823Y0070667D02*
X0157275Y0070667D01*
X0157275Y0071265D02*
X0159983Y0071265D01*
X0160025Y0071223D02*
X0162004Y0071223D01*
X0163404Y0072623D01*
X0163404Y0074602D01*
X0162004Y0076001D01*
X0160025Y0076001D01*
X0158836Y0074812D01*
X0157275Y0074812D01*
X0157275Y0077420D01*
X0156748Y0077947D01*
X0152065Y0077947D01*
X0151538Y0077420D01*
X0151538Y0069812D01*
X0150980Y0069812D01*
X0150980Y0071150D01*
X0150452Y0071677D01*
X0145770Y0071677D01*
X0145243Y0071150D01*
X0145243Y0066074D01*
X0145770Y0065547D01*
X0150452Y0065547D01*
X0150980Y0066074D01*
X0150980Y0067412D01*
X0151538Y0067412D01*
X0151538Y0064076D01*
X0152065Y0063549D01*
X0156748Y0063549D01*
X0157275Y0064076D01*
X0157275Y0072412D01*
X0158836Y0072412D01*
X0160025Y0071223D01*
X0159384Y0071864D02*
X0157275Y0071864D01*
X0154406Y0070748D02*
X0154406Y0068612D01*
X0148111Y0068612D01*
X0145243Y0068871D02*
X0144287Y0068871D01*
X0144287Y0068273D02*
X0145243Y0068273D01*
X0145243Y0067674D02*
X0144287Y0067674D01*
X0144287Y0067076D02*
X0145243Y0067076D01*
X0145243Y0066477D02*
X0144287Y0066477D01*
X0144287Y0066074D02*
X0144287Y0071150D01*
X0143759Y0071677D01*
X0139077Y0071677D01*
X0138550Y0071150D01*
X0138550Y0066074D01*
X0139077Y0065547D01*
X0139815Y0065547D01*
X0139815Y0044541D01*
X0138626Y0043352D01*
X0138626Y0041373D01*
X0140025Y0039973D01*
X0142004Y0039973D01*
X0143404Y0041373D01*
X0143404Y0043352D01*
X0142215Y0044541D01*
X0142215Y0065547D01*
X0143759Y0065547D01*
X0144287Y0066074D01*
X0144091Y0065879D02*
X0145438Y0065879D01*
X0142215Y0065280D02*
X0151538Y0065280D01*
X0151538Y0064682D02*
X0142215Y0064682D01*
X0142215Y0064083D02*
X0151538Y0064083D01*
X0157275Y0064083D02*
X0168906Y0064083D01*
X0168854Y0064682D02*
X0157275Y0064682D01*
X0157275Y0065280D02*
X0168854Y0065280D01*
X0168854Y0065879D02*
X0157275Y0065879D01*
X0157275Y0066477D02*
X0168854Y0066477D01*
X0168854Y0067076D02*
X0157275Y0067076D01*
X0157275Y0067674D02*
X0168854Y0067674D01*
X0168854Y0068273D02*
X0157275Y0068273D01*
X0157275Y0068871D02*
X0168854Y0068871D01*
X0168854Y0069470D02*
X0157275Y0069470D01*
X0157275Y0070068D02*
X0168854Y0070068D01*
X0171823Y0069470D02*
X0172423Y0069470D01*
X0172423Y0068871D02*
X0171823Y0068871D01*
X0171823Y0068273D02*
X0172423Y0068273D01*
X0172423Y0067674D02*
X0171823Y0067674D01*
X0171823Y0067076D02*
X0172423Y0067076D01*
X0172423Y0066477D02*
X0171823Y0066477D01*
X0171823Y0065879D02*
X0172423Y0065879D01*
X0172423Y0065280D02*
X0171823Y0065280D01*
X0171823Y0064682D02*
X0172423Y0064682D01*
X0172423Y0064083D02*
X0171823Y0064083D01*
X0171823Y0063485D02*
X0172423Y0063485D01*
X0174966Y0063485D02*
X0212280Y0063485D01*
X0211906Y0064083D02*
X0200275Y0064083D01*
X0200275Y0064682D02*
X0211854Y0064682D01*
X0211854Y0065280D02*
X0200275Y0065280D01*
X0200275Y0065879D02*
X0211854Y0065879D01*
X0211854Y0066477D02*
X0200275Y0066477D01*
X0200275Y0067076D02*
X0211854Y0067076D01*
X0211854Y0067674D02*
X0203455Y0067674D01*
X0204054Y0068273D02*
X0211854Y0068273D01*
X0211854Y0068871D02*
X0204652Y0068871D01*
X0204654Y0069470D02*
X0211854Y0069470D01*
X0211854Y0070068D02*
X0204654Y0070068D01*
X0202265Y0069862D02*
X0198042Y0069862D01*
X0197406Y0070748D01*
X0200275Y0071265D02*
X0200289Y0071265D01*
X0194538Y0070068D02*
X0175391Y0070068D01*
X0175391Y0069470D02*
X0194538Y0069470D01*
X0194538Y0068871D02*
X0175391Y0068871D01*
X0175391Y0068273D02*
X0194538Y0068273D01*
X0194538Y0067674D02*
X0175391Y0067674D01*
X0175391Y0067076D02*
X0194538Y0067076D01*
X0194538Y0066477D02*
X0175391Y0066477D01*
X0175391Y0065879D02*
X0194538Y0065879D01*
X0194538Y0065280D02*
X0175391Y0065280D01*
X0175391Y0064682D02*
X0194538Y0064682D01*
X0194538Y0064083D02*
X0175339Y0064083D01*
X0169280Y0063485D02*
X0142215Y0063485D01*
X0139815Y0063485D02*
X0131966Y0063485D01*
X0131890Y0063409D02*
X0132132Y0063651D01*
X0132303Y0063947D01*
X0132391Y0064278D01*
X0132391Y0070448D01*
X0129423Y0070448D01*
X0129423Y0071048D01*
X0132391Y0071048D01*
X0132391Y0077218D01*
X0132303Y0077549D01*
X0132132Y0077845D01*
X0131890Y0078087D01*
X0131593Y0078259D01*
X0131262Y0078347D01*
X0129423Y0078347D01*
X0129423Y0071048D01*
X0128823Y0071048D01*
X0128823Y0078347D01*
X0126983Y0078347D01*
X0126653Y0078259D01*
X0126356Y0078087D01*
X0126114Y0077845D01*
X0125943Y0077549D01*
X0125854Y0077218D01*
X0125854Y0071048D01*
X0128823Y0071048D01*
X0128823Y0070448D01*
X0129423Y0070448D01*
X0129423Y0063149D01*
X0131262Y0063149D01*
X0131593Y0063237D01*
X0131890Y0063409D01*
X0132339Y0064083D02*
X0139815Y0064083D01*
X0139815Y0064682D02*
X0132391Y0064682D01*
X0132391Y0065280D02*
X0139815Y0065280D01*
X0138745Y0065879D02*
X0132391Y0065879D01*
X0132391Y0066477D02*
X0138550Y0066477D01*
X0138550Y0067076D02*
X0132391Y0067076D01*
X0132391Y0067674D02*
X0138550Y0067674D01*
X0138550Y0068273D02*
X0132391Y0068273D01*
X0132391Y0068871D02*
X0138550Y0068871D01*
X0138550Y0069470D02*
X0132391Y0069470D01*
X0132391Y0070068D02*
X0138550Y0070068D01*
X0138550Y0070667D02*
X0129423Y0070667D01*
X0129423Y0071265D02*
X0128823Y0071265D01*
X0128823Y0070667D02*
X0114275Y0070667D01*
X0114275Y0071265D02*
X0125854Y0071265D01*
X0125854Y0071864D02*
X0114275Y0071864D01*
X0114275Y0072462D02*
X0125854Y0072462D01*
X0125854Y0073061D02*
X0114275Y0073061D01*
X0114275Y0073659D02*
X0125854Y0073659D01*
X0125854Y0074258D02*
X0114275Y0074258D01*
X0114275Y0074856D02*
X0125854Y0074856D01*
X0125854Y0075455D02*
X0114275Y0075455D01*
X0114275Y0076053D02*
X0125854Y0076053D01*
X0125854Y0076652D02*
X0114275Y0076652D01*
X0114275Y0077250D02*
X0125863Y0077250D01*
X0126118Y0077849D02*
X0113846Y0077849D01*
X0113748Y0077947D02*
X0109065Y0077947D01*
X0108538Y0077420D01*
X0108538Y0077312D01*
X0106943Y0077312D01*
X0105754Y0078501D01*
X0103775Y0078501D01*
X0102376Y0077102D01*
X0102376Y0075123D01*
X0103775Y0073723D01*
X0105754Y0073723D01*
X0106943Y0074912D01*
X0108538Y0074912D01*
X0108538Y0064076D01*
X0109065Y0063549D01*
X0113748Y0063549D01*
X0114275Y0064076D01*
X0114275Y0064473D01*
X0115025Y0063723D01*
X0117004Y0063723D01*
X0118404Y0065123D01*
X0118404Y0067102D01*
X0117004Y0068501D01*
X0115025Y0068501D01*
X0114275Y0067751D01*
X0114275Y0077420D01*
X0113748Y0077947D01*
X0108967Y0077849D02*
X0106406Y0077849D01*
X0105808Y0078448D02*
X0303857Y0078448D01*
X0304128Y0077849D02*
X0304456Y0077849D01*
X0304383Y0077250D02*
X0305054Y0077250D01*
X0305653Y0076652D02*
X0304391Y0076652D01*
X0304391Y0076053D02*
X0306251Y0076053D01*
X0306850Y0075455D02*
X0304391Y0075455D01*
X0304391Y0074856D02*
X0307448Y0074856D01*
X0308047Y0074258D02*
X0304391Y0074258D01*
X0304391Y0073659D02*
X0308645Y0073659D01*
X0309244Y0073061D02*
X0304391Y0073061D01*
X0304391Y0072462D02*
X0309842Y0072462D01*
X0310441Y0071864D02*
X0304391Y0071864D01*
X0304391Y0071265D02*
X0311039Y0071265D01*
X0312890Y0071112D02*
X0302265Y0081737D01*
X0143515Y0081737D01*
X0141126Y0081440D02*
X0140904Y0081440D01*
X0140904Y0080842D02*
X0141126Y0080842D01*
X0140904Y0080243D02*
X0141630Y0080243D01*
X0142229Y0079645D02*
X0140425Y0079645D01*
X0139827Y0079046D02*
X0303259Y0079046D01*
X0302660Y0079645D02*
X0144800Y0079645D01*
X0145399Y0080243D02*
X0302062Y0080243D01*
X0306732Y0080842D02*
X0309090Y0080842D01*
X0309090Y0080691D02*
X0309178Y0080360D01*
X0309349Y0080064D01*
X0309591Y0079822D01*
X0309888Y0079651D01*
X0310218Y0079562D01*
X0316340Y0079562D01*
X0316340Y0083562D01*
X0309090Y0083562D01*
X0309090Y0080691D01*
X0309246Y0080243D02*
X0307331Y0080243D01*
X0307929Y0079645D02*
X0309911Y0079645D01*
X0308528Y0079046D02*
X0332610Y0079046D01*
X0332610Y0078448D02*
X0309126Y0078448D01*
X0309725Y0077849D02*
X0332610Y0077849D01*
X0332610Y0077250D02*
X0310323Y0077250D01*
X0310922Y0076652D02*
X0332610Y0076652D01*
X0332610Y0076053D02*
X0311520Y0076053D01*
X0312119Y0075455D02*
X0325183Y0075455D01*
X0324184Y0074856D02*
X0312717Y0074856D01*
X0313316Y0074258D02*
X0323586Y0074258D01*
X0323296Y0073659D02*
X0313914Y0073659D01*
X0313672Y0072205D02*
X0326482Y0072205D01*
X0329668Y0073659D02*
X0332610Y0073659D01*
X0332610Y0073061D02*
X0329916Y0073061D01*
X0329982Y0072462D02*
X0332610Y0072462D01*
X0332610Y0071864D02*
X0329982Y0071864D01*
X0329881Y0071265D02*
X0332610Y0071265D01*
X0332610Y0070667D02*
X0329633Y0070667D01*
X0329296Y0070068D02*
X0332610Y0070068D01*
X0332610Y0069470D02*
X0328697Y0069470D01*
X0327581Y0068871D02*
X0332610Y0068871D01*
X0313672Y0072205D02*
X0302890Y0082987D01*
X0146640Y0082987D01*
X0145390Y0084237D01*
X0141640Y0084237D01*
X0138515Y0081112D01*
X0136126Y0080842D02*
X0087873Y0080842D01*
X0088404Y0081440D02*
X0136126Y0081440D01*
X0136126Y0082039D02*
X0088404Y0082039D01*
X0088404Y0082637D02*
X0136661Y0082637D01*
X0137260Y0083236D02*
X0088404Y0083236D01*
X0087921Y0083834D02*
X0139539Y0083834D01*
X0140138Y0084433D02*
X0087323Y0084433D01*
X0084707Y0084433D02*
X0047644Y0084433D01*
X0047943Y0083834D02*
X0084108Y0083834D01*
X0086015Y0082362D02*
X0059765Y0082362D01*
X0057265Y0079862D01*
X0057265Y0070856D01*
X0057156Y0070748D01*
X0054288Y0070667D02*
X0047851Y0070667D01*
X0048099Y0071265D02*
X0054288Y0071265D01*
X0054288Y0071864D02*
X0048265Y0071864D01*
X0048265Y0072462D02*
X0054288Y0072462D01*
X0054288Y0073061D02*
X0048263Y0073061D01*
X0048016Y0073659D02*
X0054288Y0073659D01*
X0054288Y0074258D02*
X0047768Y0074258D01*
X0047220Y0074856D02*
X0054288Y0074856D01*
X0054288Y0075455D02*
X0046444Y0075455D01*
X0043085Y0075455D02*
X0033765Y0075455D01*
X0033765Y0076053D02*
X0054288Y0076053D01*
X0054288Y0076652D02*
X0033765Y0076652D01*
X0033765Y0077250D02*
X0054288Y0077250D01*
X0054717Y0077849D02*
X0033765Y0077849D01*
X0034221Y0078448D02*
X0056065Y0078448D01*
X0056065Y0079046D02*
X0045905Y0079046D01*
X0046997Y0079645D02*
X0056065Y0079645D01*
X0056065Y0080243D02*
X0047595Y0080243D01*
X0047923Y0080842D02*
X0056547Y0080842D01*
X0057145Y0081440D02*
X0048171Y0081440D01*
X0048265Y0082039D02*
X0057744Y0082039D01*
X0058342Y0082637D02*
X0048265Y0082637D01*
X0048191Y0083236D02*
X0058941Y0083236D01*
X0059941Y0080842D02*
X0084157Y0080842D01*
X0084755Y0080243D02*
X0059343Y0080243D01*
X0058744Y0079645D02*
X0136604Y0079645D01*
X0136126Y0080243D02*
X0087274Y0080243D01*
X0078053Y0077549D02*
X0077882Y0077845D01*
X0077640Y0078087D01*
X0077343Y0078259D01*
X0077012Y0078347D01*
X0075173Y0078347D01*
X0075173Y0071048D01*
X0078141Y0071048D01*
X0078141Y0077218D01*
X0078053Y0077549D01*
X0078133Y0077250D02*
X0102524Y0077250D01*
X0102376Y0076652D02*
X0078141Y0076652D01*
X0078141Y0076053D02*
X0102376Y0076053D01*
X0102376Y0075455D02*
X0078141Y0075455D01*
X0078141Y0074856D02*
X0102642Y0074856D01*
X0103240Y0074258D02*
X0078141Y0074258D01*
X0078141Y0073659D02*
X0108538Y0073659D01*
X0108538Y0073061D02*
X0078141Y0073061D01*
X0078141Y0072462D02*
X0108538Y0072462D01*
X0108538Y0071864D02*
X0078141Y0071864D01*
X0078141Y0071265D02*
X0108538Y0071265D01*
X0108538Y0070667D02*
X0075173Y0070667D01*
X0075173Y0070448D02*
X0075173Y0071048D01*
X0074573Y0071048D01*
X0074573Y0078347D01*
X0072733Y0078347D01*
X0072403Y0078259D01*
X0072106Y0078087D01*
X0071864Y0077845D01*
X0071693Y0077549D01*
X0071604Y0077218D01*
X0071604Y0071048D01*
X0074573Y0071048D01*
X0074573Y0070448D01*
X0075173Y0070448D01*
X0078141Y0070448D01*
X0078141Y0064278D01*
X0078053Y0063947D01*
X0077882Y0063651D01*
X0077640Y0063409D01*
X0077343Y0063237D01*
X0077012Y0063149D01*
X0075173Y0063149D01*
X0075173Y0070448D01*
X0075173Y0070068D02*
X0074573Y0070068D01*
X0074573Y0070448D02*
X0074573Y0063149D01*
X0072733Y0063149D01*
X0072403Y0063237D01*
X0072106Y0063409D01*
X0071864Y0063651D01*
X0071693Y0063947D01*
X0071604Y0064278D01*
X0071604Y0070448D01*
X0074573Y0070448D01*
X0074573Y0070667D02*
X0060025Y0070667D01*
X0060025Y0071265D02*
X0071604Y0071265D01*
X0071604Y0071864D02*
X0060025Y0071864D01*
X0060025Y0072462D02*
X0071604Y0072462D01*
X0071604Y0073061D02*
X0060025Y0073061D01*
X0060025Y0073659D02*
X0071604Y0073659D01*
X0071604Y0074258D02*
X0060025Y0074258D01*
X0060025Y0074856D02*
X0071604Y0074856D01*
X0071604Y0075455D02*
X0060025Y0075455D01*
X0060025Y0076053D02*
X0071604Y0076053D01*
X0071604Y0076652D02*
X0060025Y0076652D01*
X0060025Y0077250D02*
X0071613Y0077250D01*
X0071868Y0077849D02*
X0059596Y0077849D01*
X0058465Y0078448D02*
X0103721Y0078448D01*
X0103123Y0077849D02*
X0077878Y0077849D01*
X0075173Y0077849D02*
X0074573Y0077849D01*
X0074573Y0077250D02*
X0075173Y0077250D01*
X0075173Y0076652D02*
X0074573Y0076652D01*
X0074573Y0076053D02*
X0075173Y0076053D01*
X0075173Y0075455D02*
X0074573Y0075455D01*
X0074573Y0074856D02*
X0075173Y0074856D01*
X0075173Y0074258D02*
X0074573Y0074258D01*
X0074573Y0073659D02*
X0075173Y0073659D01*
X0075173Y0073061D02*
X0074573Y0073061D01*
X0074573Y0072462D02*
X0075173Y0072462D01*
X0075173Y0071864D02*
X0074573Y0071864D01*
X0074573Y0071265D02*
X0075173Y0071265D01*
X0075173Y0069470D02*
X0074573Y0069470D01*
X0074573Y0068871D02*
X0075173Y0068871D01*
X0075173Y0068273D02*
X0074573Y0068273D01*
X0074573Y0067674D02*
X0075173Y0067674D01*
X0075173Y0067076D02*
X0074573Y0067076D01*
X0074573Y0066477D02*
X0075173Y0066477D01*
X0075173Y0065879D02*
X0074573Y0065879D01*
X0074573Y0065280D02*
X0075173Y0065280D01*
X0075173Y0064682D02*
X0074573Y0064682D01*
X0074573Y0064083D02*
X0075173Y0064083D01*
X0075173Y0063485D02*
X0074573Y0063485D01*
X0072030Y0063485D02*
X0058656Y0063485D01*
X0058656Y0062886D02*
X0139815Y0062886D01*
X0139815Y0062288D02*
X0058656Y0062288D01*
X0060025Y0064083D02*
X0071656Y0064083D01*
X0071604Y0064682D02*
X0060025Y0064682D01*
X0060025Y0065280D02*
X0071604Y0065280D01*
X0071604Y0065879D02*
X0060025Y0065879D01*
X0060025Y0066477D02*
X0071604Y0066477D01*
X0071604Y0067076D02*
X0060025Y0067076D01*
X0060025Y0067674D02*
X0071604Y0067674D01*
X0071604Y0068273D02*
X0060025Y0068273D01*
X0060025Y0068871D02*
X0071604Y0068871D01*
X0071604Y0069470D02*
X0060025Y0069470D01*
X0060025Y0070068D02*
X0071604Y0070068D01*
X0078141Y0070068D02*
X0108538Y0070068D01*
X0108538Y0069470D02*
X0078141Y0069470D01*
X0078141Y0068871D02*
X0108538Y0068871D01*
X0108538Y0068273D02*
X0078141Y0068273D01*
X0078141Y0067674D02*
X0108538Y0067674D01*
X0108538Y0067076D02*
X0078141Y0067076D01*
X0078141Y0066477D02*
X0108538Y0066477D01*
X0108538Y0065879D02*
X0078141Y0065879D01*
X0078141Y0065280D02*
X0108538Y0065280D01*
X0108538Y0064682D02*
X0078141Y0064682D01*
X0078089Y0064083D02*
X0108538Y0064083D01*
X0114275Y0064083D02*
X0114665Y0064083D01*
X0117364Y0064083D02*
X0125906Y0064083D01*
X0125943Y0063947D02*
X0126114Y0063651D01*
X0126356Y0063409D01*
X0126653Y0063237D01*
X0126983Y0063149D01*
X0128823Y0063149D01*
X0128823Y0070448D01*
X0125854Y0070448D01*
X0125854Y0064278D01*
X0125943Y0063947D01*
X0126280Y0063485D02*
X0077716Y0063485D01*
X0054288Y0067076D02*
X0036265Y0067076D01*
X0036265Y0067674D02*
X0054288Y0067674D01*
X0054288Y0068273D02*
X0036265Y0068273D01*
X0036265Y0068871D02*
X0044046Y0068871D01*
X0045483Y0068871D02*
X0054288Y0068871D01*
X0054288Y0069470D02*
X0046822Y0069470D01*
X0047421Y0070068D02*
X0054288Y0070068D01*
X0042707Y0069470D02*
X0036494Y0069470D01*
X0037092Y0070068D02*
X0042109Y0070068D01*
X0041678Y0070667D02*
X0037691Y0070667D01*
X0034645Y0071864D02*
X0033765Y0071864D01*
X0033765Y0072462D02*
X0035244Y0072462D01*
X0035765Y0072983D02*
X0035765Y0072983D01*
X0035842Y0073061D02*
X0033765Y0073061D01*
X0033765Y0073659D02*
X0036441Y0073659D01*
X0033765Y0074258D02*
X0041761Y0074258D01*
X0042309Y0074856D02*
X0033765Y0074856D01*
X0034143Y0071362D02*
X0034143Y0071362D01*
X0034046Y0071265D02*
X0033765Y0071265D01*
X0025528Y0069470D02*
X0024754Y0069470D01*
X0024754Y0070068D02*
X0024930Y0070068D01*
X0024876Y0070667D02*
X0024754Y0070667D01*
X0024754Y0071265D02*
X0024876Y0071265D01*
X0024876Y0071864D02*
X0024754Y0071864D01*
X0034820Y0079046D02*
X0043624Y0079046D01*
X0042532Y0079645D02*
X0035418Y0079645D01*
X0036017Y0080243D02*
X0041934Y0080243D01*
X0041606Y0080842D02*
X0036615Y0080842D01*
X0033570Y0082039D02*
X0006565Y0082039D01*
X0006565Y0082637D02*
X0034168Y0082637D01*
X0034767Y0083236D02*
X0006565Y0083236D01*
X0006565Y0083834D02*
X0035365Y0083834D01*
X0032971Y0081440D02*
X0006565Y0081440D01*
X0006565Y0080842D02*
X0032373Y0080842D01*
X0041885Y0084433D02*
X0006565Y0084433D01*
X0006565Y0085031D02*
X0042484Y0085031D01*
X0043507Y0085630D02*
X0006565Y0085630D01*
X0006565Y0086228D02*
X0309090Y0086228D01*
X0309090Y0085630D02*
X0046022Y0085630D01*
X0047045Y0085031D02*
X0140737Y0085031D01*
X0146293Y0085031D02*
X0309090Y0085031D01*
X0309090Y0084433D02*
X0146891Y0084433D01*
X0137202Y0079046D02*
X0058465Y0079046D01*
X0104765Y0076112D02*
X0112265Y0076112D01*
X0111406Y0075254D01*
X0111406Y0070748D01*
X0111406Y0066504D01*
X0111015Y0066112D01*
X0116015Y0066112D01*
X0118404Y0065879D02*
X0125854Y0065879D01*
X0125854Y0066477D02*
X0118404Y0066477D01*
X0118404Y0067076D02*
X0125854Y0067076D01*
X0125854Y0067674D02*
X0117831Y0067674D01*
X0117232Y0068273D02*
X0125854Y0068273D01*
X0125854Y0068871D02*
X0114275Y0068871D01*
X0114275Y0068273D02*
X0114797Y0068273D01*
X0114275Y0069470D02*
X0125854Y0069470D01*
X0125854Y0070068D02*
X0114275Y0070068D01*
X0128823Y0070068D02*
X0129423Y0070068D01*
X0129423Y0069470D02*
X0128823Y0069470D01*
X0128823Y0068871D02*
X0129423Y0068871D01*
X0129423Y0068273D02*
X0128823Y0068273D01*
X0128823Y0067674D02*
X0129423Y0067674D01*
X0129423Y0067076D02*
X0128823Y0067076D01*
X0128823Y0066477D02*
X0129423Y0066477D01*
X0129423Y0065879D02*
X0128823Y0065879D01*
X0128823Y0065280D02*
X0129423Y0065280D01*
X0129423Y0064682D02*
X0128823Y0064682D01*
X0128823Y0064083D02*
X0129423Y0064083D01*
X0129423Y0063485D02*
X0128823Y0063485D01*
X0125854Y0064682D02*
X0117963Y0064682D01*
X0118404Y0065280D02*
X0125854Y0065280D01*
X0141015Y0068612D02*
X0141418Y0068612D01*
X0141015Y0068612D02*
X0141015Y0042362D01*
X0142772Y0040741D02*
X0151538Y0040741D01*
X0151538Y0040143D02*
X0142174Y0040143D01*
X0143371Y0041340D02*
X0151538Y0041340D01*
X0151538Y0041938D02*
X0143404Y0041938D01*
X0143404Y0042537D02*
X0151538Y0042537D01*
X0151538Y0043135D02*
X0143404Y0043135D01*
X0143021Y0043734D02*
X0151538Y0043734D01*
X0151538Y0044332D02*
X0142423Y0044332D01*
X0142215Y0044931D02*
X0151538Y0044931D01*
X0151538Y0045529D02*
X0142215Y0045529D01*
X0142215Y0046128D02*
X0151538Y0046128D01*
X0151538Y0046726D02*
X0142215Y0046726D01*
X0142215Y0047325D02*
X0151538Y0047325D01*
X0151538Y0047923D02*
X0142215Y0047923D01*
X0142215Y0048522D02*
X0151538Y0048522D01*
X0151538Y0049120D02*
X0142215Y0049120D01*
X0142215Y0049719D02*
X0151538Y0049719D01*
X0151538Y0050317D02*
X0142215Y0050317D01*
X0142215Y0050916D02*
X0151805Y0050916D01*
X0153515Y0048612D02*
X0154765Y0047362D01*
X0154406Y0047004D01*
X0154406Y0044862D01*
X0154765Y0045220D01*
X0154406Y0044862D02*
X0154406Y0043976D01*
X0157275Y0043734D02*
X0162376Y0043734D01*
X0162376Y0043135D02*
X0157275Y0043135D01*
X0157275Y0042537D02*
X0162376Y0042537D01*
X0162376Y0041938D02*
X0157275Y0041938D01*
X0157275Y0041340D02*
X0162958Y0041340D01*
X0163557Y0040741D02*
X0157275Y0040741D01*
X0157275Y0040143D02*
X0163245Y0040143D01*
X0162543Y0039544D02*
X0157275Y0039544D01*
X0157275Y0038946D02*
X0161842Y0038946D01*
X0161141Y0038347D02*
X0157275Y0038347D01*
X0151538Y0038347D02*
X0132391Y0038347D01*
X0132391Y0038946D02*
X0151538Y0038946D01*
X0151538Y0039544D02*
X0132391Y0039544D01*
X0132391Y0040143D02*
X0139855Y0040143D01*
X0139257Y0040741D02*
X0132391Y0040741D01*
X0132391Y0041340D02*
X0138658Y0041340D01*
X0138626Y0041938D02*
X0132391Y0041938D01*
X0132391Y0042537D02*
X0138626Y0042537D01*
X0138626Y0043135D02*
X0132391Y0043135D01*
X0132391Y0044332D02*
X0139606Y0044332D01*
X0139815Y0044931D02*
X0132391Y0044931D01*
X0132391Y0045529D02*
X0139815Y0045529D01*
X0139815Y0046128D02*
X0132391Y0046128D01*
X0132391Y0046726D02*
X0139815Y0046726D01*
X0139815Y0047325D02*
X0132391Y0047325D01*
X0132391Y0047923D02*
X0139815Y0047923D01*
X0139815Y0048522D02*
X0132391Y0048522D01*
X0132391Y0049120D02*
X0139815Y0049120D01*
X0139815Y0049719D02*
X0132391Y0049719D01*
X0132391Y0050317D02*
X0139815Y0050317D01*
X0139815Y0050916D02*
X0132223Y0050916D01*
X0131490Y0051515D02*
X0139815Y0051515D01*
X0139815Y0052113D02*
X0107517Y0052113D01*
X0114007Y0050916D02*
X0114940Y0050916D01*
X0114341Y0050317D02*
X0114275Y0050317D01*
X0116015Y0048612D02*
X0111015Y0048612D01*
X0111406Y0048220D01*
X0111406Y0043976D01*
X0114275Y0043734D02*
X0128823Y0043734D01*
X0128823Y0044332D02*
X0129423Y0044332D01*
X0129423Y0043734D02*
X0139008Y0043734D01*
X0129423Y0044931D02*
X0128823Y0044931D01*
X0128823Y0045529D02*
X0129423Y0045529D01*
X0129423Y0046128D02*
X0128823Y0046128D01*
X0128823Y0046726D02*
X0129423Y0046726D01*
X0129423Y0047325D02*
X0128823Y0047325D01*
X0128823Y0047923D02*
X0129423Y0047923D01*
X0129423Y0048522D02*
X0128823Y0048522D01*
X0128823Y0049120D02*
X0129423Y0049120D01*
X0129423Y0049719D02*
X0128823Y0049719D01*
X0128823Y0050317D02*
X0129423Y0050317D01*
X0129423Y0050916D02*
X0128823Y0050916D01*
X0128823Y0051515D02*
X0129423Y0051515D01*
X0157275Y0044931D02*
X0163405Y0044931D01*
X0162806Y0044332D02*
X0157275Y0044332D01*
X0214823Y0047325D02*
X0215423Y0047325D01*
X0215423Y0047923D02*
X0214823Y0047923D01*
X0214823Y0048522D02*
X0215423Y0048522D01*
X0215423Y0049120D02*
X0214823Y0049120D01*
X0214823Y0049719D02*
X0215423Y0049719D01*
X0215423Y0050317D02*
X0214823Y0050317D01*
X0214823Y0050916D02*
X0215423Y0050916D01*
X0215423Y0051515D02*
X0214823Y0051515D01*
X0229765Y0059862D02*
X0234765Y0054862D01*
X0234765Y0049459D01*
X0240611Y0049459D01*
X0241015Y0049862D01*
X0241015Y0047362D01*
X0240906Y0047254D01*
X0240406Y0043976D01*
X0237538Y0045529D02*
X0237407Y0045529D01*
X0237439Y0046726D02*
X0237538Y0046726D01*
X0241015Y0047362D02*
X0246015Y0047362D01*
X0244394Y0049120D02*
X0243275Y0049120D01*
X0243275Y0049719D02*
X0244993Y0049719D01*
X0261391Y0045529D02*
X0273992Y0045529D01*
X0286275Y0039544D02*
X0297854Y0039544D01*
X0297854Y0038946D02*
X0286275Y0038946D01*
X0286275Y0038347D02*
X0297854Y0038347D01*
X0297854Y0037749D02*
X0286275Y0037749D01*
X0286121Y0037150D02*
X0297957Y0037150D01*
X0304288Y0037150D02*
X0309299Y0037150D01*
X0309090Y0037749D02*
X0304391Y0037749D01*
X0304391Y0038347D02*
X0309090Y0038347D01*
X0309090Y0038946D02*
X0304391Y0038946D01*
X0304391Y0039544D02*
X0309090Y0039544D01*
X0316940Y0040741D02*
X0332610Y0040741D01*
X0332610Y0040143D02*
X0324190Y0040143D01*
X0324190Y0039544D02*
X0332610Y0039544D01*
X0332610Y0038946D02*
X0324190Y0038946D01*
X0324190Y0038347D02*
X0332610Y0038347D01*
X0332610Y0037749D02*
X0324190Y0037749D01*
X0323980Y0037150D02*
X0332610Y0037150D01*
X0332610Y0041340D02*
X0324190Y0041340D01*
X0324190Y0041938D02*
X0332610Y0041938D01*
X0332610Y0042537D02*
X0324190Y0042537D01*
X0324190Y0043135D02*
X0332610Y0043135D01*
X0332610Y0043734D02*
X0324190Y0043734D01*
X0324109Y0044332D02*
X0332610Y0044332D01*
X0301423Y0063485D02*
X0300823Y0063485D01*
X0300823Y0063149D02*
X0300823Y0070448D01*
X0297854Y0070448D01*
X0297854Y0064278D01*
X0297943Y0063947D01*
X0298114Y0063651D01*
X0298356Y0063409D01*
X0298653Y0063237D01*
X0298983Y0063149D01*
X0300823Y0063149D01*
X0300823Y0064083D02*
X0301423Y0064083D01*
X0301423Y0064682D02*
X0300823Y0064682D01*
X0300823Y0065280D02*
X0301423Y0065280D01*
X0301423Y0065879D02*
X0300823Y0065879D01*
X0300823Y0066477D02*
X0301423Y0066477D01*
X0301423Y0067076D02*
X0300823Y0067076D01*
X0300823Y0067674D02*
X0301423Y0067674D01*
X0301423Y0068273D02*
X0300823Y0068273D01*
X0300823Y0068871D02*
X0301423Y0068871D01*
X0301423Y0069470D02*
X0300823Y0069470D01*
X0300823Y0070068D02*
X0301423Y0070068D01*
X0297854Y0070068D02*
X0291524Y0070068D01*
X0291524Y0069470D02*
X0297854Y0069470D01*
X0297854Y0068871D02*
X0291522Y0068871D01*
X0290924Y0068273D02*
X0297854Y0068273D01*
X0297854Y0067674D02*
X0290325Y0067674D01*
X0287944Y0067674D02*
X0286275Y0067674D01*
X0286275Y0067076D02*
X0297854Y0067076D01*
X0297854Y0066477D02*
X0286275Y0066477D01*
X0286275Y0065879D02*
X0297854Y0065879D01*
X0297854Y0065280D02*
X0286275Y0065280D01*
X0286275Y0064682D02*
X0297854Y0064682D01*
X0297906Y0064083D02*
X0286275Y0064083D01*
X0280538Y0064083D02*
X0261339Y0064083D01*
X0261391Y0064682D02*
X0280538Y0064682D01*
X0280538Y0065280D02*
X0261391Y0065280D01*
X0261391Y0065879D02*
X0280538Y0065879D01*
X0280538Y0066477D02*
X0261391Y0066477D01*
X0261391Y0067076D02*
X0280538Y0067076D01*
X0280538Y0067674D02*
X0261391Y0067674D01*
X0261391Y0068273D02*
X0280538Y0068273D01*
X0280538Y0068871D02*
X0261391Y0068871D01*
X0261391Y0069470D02*
X0280538Y0069470D01*
X0280538Y0070068D02*
X0261391Y0070068D01*
X0258423Y0069470D02*
X0257823Y0069470D01*
X0257823Y0068871D02*
X0258423Y0068871D01*
X0258423Y0068273D02*
X0257823Y0068273D01*
X0257823Y0067674D02*
X0258423Y0067674D01*
X0258423Y0067076D02*
X0257823Y0067076D01*
X0257823Y0066477D02*
X0258423Y0066477D01*
X0258423Y0065879D02*
X0257823Y0065879D01*
X0257823Y0065280D02*
X0258423Y0065280D01*
X0258423Y0064682D02*
X0257823Y0064682D01*
X0257823Y0064083D02*
X0258423Y0064083D01*
X0258423Y0063485D02*
X0257823Y0063485D01*
X0255280Y0063485D02*
X0217966Y0063485D01*
X0218339Y0064083D02*
X0237538Y0064083D01*
X0237538Y0064682D02*
X0218391Y0064682D01*
X0218391Y0065280D02*
X0237538Y0065280D01*
X0237538Y0065879D02*
X0218391Y0065879D01*
X0218391Y0066477D02*
X0237538Y0066477D01*
X0237538Y0067076D02*
X0218391Y0067076D01*
X0218391Y0067674D02*
X0237538Y0067674D01*
X0237538Y0068273D02*
X0218391Y0068273D01*
X0218391Y0068871D02*
X0237538Y0068871D01*
X0237538Y0069470D02*
X0218391Y0069470D01*
X0218391Y0070068D02*
X0237538Y0070068D01*
X0239765Y0068612D02*
X0240906Y0069754D01*
X0240406Y0070748D01*
X0241015Y0069862D02*
X0246015Y0069862D01*
X0248404Y0070068D02*
X0254854Y0070068D01*
X0254854Y0069470D02*
X0248404Y0069470D01*
X0248402Y0068871D02*
X0254854Y0068871D01*
X0254854Y0068273D02*
X0247804Y0068273D01*
X0247205Y0067674D02*
X0254854Y0067674D01*
X0254854Y0067076D02*
X0243275Y0067076D01*
X0243275Y0067674D02*
X0244824Y0067674D01*
X0244225Y0068273D02*
X0243275Y0068273D01*
X0243275Y0066477D02*
X0254854Y0066477D01*
X0254854Y0065879D02*
X0243275Y0065879D01*
X0243275Y0065280D02*
X0254854Y0065280D01*
X0254854Y0064682D02*
X0243275Y0064682D01*
X0243275Y0064083D02*
X0254906Y0064083D01*
X0260966Y0063485D02*
X0298280Y0063485D01*
X0287345Y0068273D02*
X0286275Y0068273D01*
X0283662Y0069862D02*
X0289135Y0069862D01*
X0283662Y0069862D02*
X0283406Y0070748D01*
X0286275Y0071265D02*
X0287159Y0071265D01*
X0300823Y0071864D02*
X0301423Y0071864D01*
X0301423Y0072462D02*
X0300823Y0072462D01*
X0300823Y0073061D02*
X0301423Y0073061D01*
X0301423Y0073659D02*
X0300823Y0073659D01*
X0300823Y0074258D02*
X0301423Y0074258D01*
X0301423Y0074856D02*
X0300823Y0074856D01*
X0300823Y0075455D02*
X0301423Y0075455D01*
X0301423Y0076053D02*
X0300823Y0076053D01*
X0300823Y0076652D02*
X0301423Y0076652D01*
X0301423Y0077250D02*
X0300823Y0077250D01*
X0300823Y0077849D02*
X0301423Y0077849D01*
X0316340Y0079645D02*
X0316940Y0079645D01*
X0316940Y0079562D02*
X0323061Y0079562D01*
X0323391Y0079651D01*
X0323688Y0079822D01*
X0323930Y0080064D01*
X0324101Y0080360D01*
X0324190Y0080691D01*
X0324190Y0083562D01*
X0316940Y0083562D01*
X0316940Y0079562D01*
X0316940Y0080243D02*
X0316340Y0080243D01*
X0316340Y0080842D02*
X0316940Y0080842D01*
X0316940Y0081440D02*
X0316340Y0081440D01*
X0316340Y0082039D02*
X0316940Y0082039D01*
X0316940Y0082637D02*
X0316340Y0082637D01*
X0316340Y0083236D02*
X0316940Y0083236D01*
X0316940Y0083834D02*
X0332610Y0083834D01*
X0332610Y0083236D02*
X0324190Y0083236D01*
X0324190Y0082637D02*
X0332610Y0082637D01*
X0332610Y0082039D02*
X0324190Y0082039D01*
X0324190Y0081440D02*
X0332610Y0081440D01*
X0332610Y0080842D02*
X0324190Y0080842D01*
X0324033Y0080243D02*
X0332610Y0080243D01*
X0332610Y0079645D02*
X0323368Y0079645D01*
X0309090Y0081440D02*
X0306134Y0081440D01*
X0305535Y0082039D02*
X0309090Y0082039D01*
X0309090Y0082637D02*
X0304937Y0082637D01*
X0304338Y0083236D02*
X0309090Y0083236D01*
X0303740Y0083834D02*
X0316340Y0083834D01*
X0324190Y0084433D02*
X0332610Y0084433D01*
X0332610Y0085031D02*
X0324190Y0085031D01*
X0324190Y0085630D02*
X0332610Y0085630D01*
X0332610Y0086228D02*
X0324190Y0086228D01*
X0324190Y0086827D02*
X0332610Y0086827D01*
X0309090Y0086827D02*
X0006565Y0086827D01*
X0106289Y0074258D02*
X0108538Y0074258D01*
X0108538Y0074856D02*
X0106887Y0074856D01*
X0128823Y0074856D02*
X0129423Y0074856D01*
X0129423Y0074258D02*
X0128823Y0074258D01*
X0128823Y0073659D02*
X0129423Y0073659D01*
X0129423Y0073061D02*
X0128823Y0073061D01*
X0128823Y0072462D02*
X0129423Y0072462D01*
X0129423Y0071864D02*
X0128823Y0071864D01*
X0132391Y0071864D02*
X0151538Y0071864D01*
X0151538Y0072462D02*
X0132391Y0072462D01*
X0132391Y0073061D02*
X0151538Y0073061D01*
X0151538Y0073659D02*
X0132391Y0073659D01*
X0132391Y0074258D02*
X0151538Y0074258D01*
X0151538Y0074856D02*
X0132391Y0074856D01*
X0132391Y0075455D02*
X0151538Y0075455D01*
X0151538Y0076053D02*
X0132391Y0076053D01*
X0132391Y0076652D02*
X0151538Y0076652D01*
X0151538Y0077250D02*
X0132383Y0077250D01*
X0132128Y0077849D02*
X0151967Y0077849D01*
X0156846Y0077849D02*
X0169118Y0077849D01*
X0168863Y0077250D02*
X0157275Y0077250D01*
X0157275Y0076652D02*
X0168854Y0076652D01*
X0168854Y0076053D02*
X0157275Y0076053D01*
X0157275Y0075455D02*
X0159479Y0075455D01*
X0158880Y0074856D02*
X0157275Y0074856D01*
X0154765Y0073612D02*
X0154406Y0073254D01*
X0154406Y0070748D01*
X0151538Y0070667D02*
X0150980Y0070667D01*
X0150980Y0070068D02*
X0151538Y0070068D01*
X0151538Y0071265D02*
X0150864Y0071265D01*
X0154765Y0073612D02*
X0161015Y0073612D01*
X0163404Y0073659D02*
X0168854Y0073659D01*
X0168854Y0073061D02*
X0163404Y0073061D01*
X0163243Y0072462D02*
X0168854Y0072462D01*
X0168854Y0071864D02*
X0162645Y0071864D01*
X0162046Y0071265D02*
X0168854Y0071265D01*
X0171823Y0071265D02*
X0172423Y0071265D01*
X0172423Y0071864D02*
X0171823Y0071864D01*
X0171823Y0072462D02*
X0172423Y0072462D01*
X0172423Y0073061D02*
X0171823Y0073061D01*
X0171823Y0073659D02*
X0172423Y0073659D01*
X0172423Y0074258D02*
X0171823Y0074258D01*
X0171823Y0074856D02*
X0172423Y0074856D01*
X0172423Y0075455D02*
X0171823Y0075455D01*
X0171823Y0076053D02*
X0172423Y0076053D01*
X0172423Y0076652D02*
X0171823Y0076652D01*
X0171823Y0077250D02*
X0172423Y0077250D01*
X0172423Y0077849D02*
X0171823Y0077849D01*
X0168854Y0075455D02*
X0162550Y0075455D01*
X0163149Y0074856D02*
X0168854Y0074856D01*
X0168854Y0074258D02*
X0163404Y0074258D01*
X0145358Y0071265D02*
X0144172Y0071265D01*
X0144287Y0070667D02*
X0145243Y0070667D01*
X0145243Y0070068D02*
X0144287Y0070068D01*
X0144287Y0069470D02*
X0145243Y0069470D01*
X0138665Y0071265D02*
X0132391Y0071265D01*
X0129423Y0075455D02*
X0128823Y0075455D01*
X0128823Y0076053D02*
X0129423Y0076053D01*
X0129423Y0076652D02*
X0128823Y0076652D01*
X0128823Y0077250D02*
X0129423Y0077250D01*
X0129423Y0077849D02*
X0128823Y0077849D01*
X0150980Y0067076D02*
X0151538Y0067076D01*
X0151538Y0066477D02*
X0150980Y0066477D01*
X0150784Y0065879D02*
X0151538Y0065879D01*
X0200275Y0067674D02*
X0201074Y0067674D01*
X0200475Y0068273D02*
X0200275Y0068273D01*
X0214823Y0068273D02*
X0215423Y0068273D01*
X0215423Y0068871D02*
X0214823Y0068871D01*
X0214823Y0069470D02*
X0215423Y0069470D01*
X0215423Y0071265D02*
X0214823Y0071265D01*
X0214823Y0071864D02*
X0215423Y0071864D01*
X0215423Y0072462D02*
X0214823Y0072462D01*
X0214823Y0073061D02*
X0215423Y0073061D01*
X0215423Y0073659D02*
X0214823Y0073659D01*
X0214823Y0074258D02*
X0215423Y0074258D01*
X0215423Y0074856D02*
X0214823Y0074856D01*
X0214823Y0075455D02*
X0215423Y0075455D01*
X0215423Y0076053D02*
X0214823Y0076053D01*
X0214823Y0076652D02*
X0215423Y0076652D01*
X0215423Y0077250D02*
X0214823Y0077250D01*
X0214823Y0077849D02*
X0215423Y0077849D01*
X0243275Y0071265D02*
X0244039Y0071265D01*
X0241015Y0069862D02*
X0240906Y0069754D01*
X0257823Y0071265D02*
X0258423Y0071265D01*
X0258423Y0071864D02*
X0257823Y0071864D01*
X0257823Y0072462D02*
X0258423Y0072462D01*
X0258423Y0073061D02*
X0257823Y0073061D01*
X0257823Y0073659D02*
X0258423Y0073659D01*
X0258423Y0074258D02*
X0257823Y0074258D01*
X0257823Y0074856D02*
X0258423Y0074856D01*
X0258423Y0075455D02*
X0257823Y0075455D01*
X0257823Y0076053D02*
X0258423Y0076053D01*
X0258423Y0076652D02*
X0257823Y0076652D01*
X0257823Y0077250D02*
X0258423Y0077250D01*
X0258423Y0077849D02*
X0257823Y0077849D01*
X0215423Y0067674D02*
X0214823Y0067674D01*
X0214823Y0067076D02*
X0215423Y0067076D01*
X0215423Y0066477D02*
X0214823Y0066477D01*
X0214823Y0065879D02*
X0215423Y0065879D01*
X0215423Y0065280D02*
X0214823Y0065280D01*
X0214823Y0064682D02*
X0215423Y0064682D01*
X0215423Y0064083D02*
X0214823Y0064083D01*
X0214823Y0063485D02*
X0215423Y0063485D01*
X0327781Y0075455D02*
X0332610Y0075455D01*
X0332610Y0074856D02*
X0328780Y0074856D01*
X0329379Y0074258D02*
X0332610Y0074258D01*
X0061211Y0042537D02*
X0060025Y0042537D01*
X0060025Y0043135D02*
X0060613Y0043135D01*
X0050832Y0038347D02*
X0006565Y0038347D01*
X0006565Y0037749D02*
X0051431Y0037749D01*
X0052029Y0037150D02*
X0006565Y0037150D01*
D22*
X0062265Y0044862D03*
X0098515Y0042362D03*
X0116015Y0048612D03*
X0141015Y0042362D03*
X0164765Y0042912D03*
X0186015Y0042362D03*
X0202265Y0047362D03*
X0229765Y0042362D03*
X0246015Y0047362D03*
X0271635Y0042362D03*
X0289135Y0047362D03*
X0289135Y0069862D03*
X0246015Y0069862D03*
X0202265Y0069862D03*
X0161015Y0073612D03*
X0138515Y0081112D03*
X0143515Y0081737D03*
X0104765Y0076112D03*
X0086015Y0082362D03*
X0027265Y0071112D03*
X0116015Y0066112D03*
X0153515Y0058612D03*
X0159765Y0058612D03*
X0164765Y0057362D03*
D23*
X0027265Y0068612D02*
X0026133Y0067480D01*
X0021288Y0067480D01*
X0027265Y0068612D02*
X0027265Y0071112D01*
M02*
